<svg xmlns="http://www.w3.org/2000/svg" xmlns:xlink="http://www.w3.org/1999/xlink" width="480" zoomAndPan="magnify" viewBox="0 0 360 359.999987" height="480" preserveAspectRatio="xMidYMid meet" version="1.0"><path fill="#fefbfd" d="M 90.535156 270 C 91.417969 270 92.292969 269.933594 93.160156 269.804688 C 94.03125 269.675781 94.886719 269.484375 95.730469 269.230469 C 96.574219 268.972656 97.390625 268.660156 98.1875 268.28125 C 98.980469 267.90625 99.746094 267.472656 100.476562 266.984375 C 101.207031 266.496094 101.898438 265.957031 102.550781 265.367188 C 103.203125 264.773438 103.808594 264.140625 104.367188 263.460938 C 104.925781 262.777344 105.429688 262.0625 105.882812 261.308594 C 106.335938 260.550781 106.730469 259.769531 107.066406 258.957031 C 107.402344 258.144531 107.679688 257.308594 107.894531 256.457031 C 108.105469 255.601562 108.257812 254.738281 108.34375 253.863281 C 108.429688 252.988281 108.449219 252.109375 108.40625 251.230469 C 108.363281 250.351562 108.257812 249.480469 108.085938 248.617188 C 107.914062 247.753906 107.679688 246.910156 107.382812 246.082031 C 107.085938 245.253906 106.730469 244.449219 106.316406 243.675781 C 105.902344 242.898438 105.433594 242.15625 104.910156 241.449219 C 104.386719 240.742188 103.8125 240.078125 103.191406 239.457031 L 62.164062 198.429688 L 341.035156 198.429688 C 341.621094 198.429688 342.203125 198.402344 342.789062 198.34375 C 343.371094 198.285156 343.949219 198.199219 344.523438 198.085938 C 345.097656 197.972656 345.667969 197.828125 346.226562 197.660156 C 346.789062 197.488281 347.339844 197.292969 347.882812 197.066406 C 348.421875 196.84375 348.953125 196.59375 349.46875 196.316406 C 349.984375 196.039062 350.488281 195.738281 350.972656 195.414062 C 351.460938 195.089844 351.933594 194.738281 352.382812 194.367188 C 352.835938 193.996094 353.269531 193.601562 353.6875 193.1875 C 354.101562 192.773438 354.492188 192.339844 354.863281 191.886719 C 355.238281 191.433594 355.585938 190.964844 355.910156 190.476562 C 356.238281 189.988281 356.539062 189.488281 356.8125 188.972656 C 357.089844 188.453125 357.339844 187.925781 357.5625 187.382812 C 357.789062 186.84375 357.984375 186.292969 358.15625 185.730469 C 358.324219 185.171875 358.46875 184.601562 358.582031 184.027344 C 358.695312 183.453125 358.78125 182.875 358.839844 182.289062 C 358.898438 181.707031 358.925781 181.121094 358.925781 180.535156 C 358.925781 179.949219 358.898438 179.367188 358.839844 178.78125 C 358.78125 178.199219 358.695312 177.621094 358.582031 177.046875 C 358.46875 176.472656 358.324219 175.902344 358.15625 175.34375 C 357.984375 174.78125 357.789062 174.230469 357.5625 173.691406 C 357.339844 173.148438 357.089844 172.617188 356.8125 172.101562 C 356.539062 171.585938 356.238281 171.082031 355.910156 170.597656 C 355.585938 170.109375 355.238281 169.640625 354.863281 169.1875 C 354.492188 168.734375 354.101562 168.300781 353.6875 167.882812 C 353.269531 167.46875 352.835938 167.078125 352.382812 166.707031 C 351.933594 166.332031 351.460938 165.984375 350.972656 165.660156 C 350.488281 165.335938 349.984375 165.03125 349.46875 164.757812 C 348.953125 164.480469 348.421875 164.230469 347.882812 164.007812 C 347.339844 163.78125 346.789062 163.585938 346.226562 163.414062 C 345.667969 163.246094 345.097656 163.101562 344.523438 162.988281 C 343.949219 162.875 343.371094 162.789062 342.789062 162.730469 C 342.203125 162.671875 341.621094 162.644531 341.035156 162.644531 L 62.164062 162.644531 L 103.191406 121.617188 C 103.609375 121.203125 104.003906 120.769531 104.378906 120.316406 C 104.753906 119.863281 105.105469 119.394531 105.433594 118.90625 C 105.761719 118.417969 106.066406 117.917969 106.34375 117.398438 C 106.621094 116.882812 106.875 116.351562 107.101562 115.808594 C 107.328125 115.269531 107.527344 114.714844 107.699219 114.152344 C 107.871094 113.59375 108.015625 113.023438 108.132812 112.445312 C 108.25 111.871094 108.335938 111.289062 108.394531 110.707031 C 108.453125 110.121094 108.484375 109.535156 108.484375 108.949219 C 108.488281 108.359375 108.457031 107.773438 108.402344 107.1875 C 108.34375 106.601562 108.261719 106.023438 108.148438 105.445312 C 108.03125 104.871094 107.890625 104.300781 107.722656 103.738281 C 107.550781 103.175781 107.355469 102.621094 107.128906 102.078125 C 106.90625 101.535156 106.65625 101.003906 106.378906 100.488281 C 106.101562 99.96875 105.800781 99.464844 105.472656 98.976562 C 105.148438 98.488281 104.796875 98.015625 104.425781 97.5625 C 104.050781 97.105469 103.660156 96.671875 103.242188 96.257812 C 102.828125 95.839844 102.390625 95.445312 101.9375 95.074219 C 101.484375 94.703125 101.011719 94.351562 100.523438 94.027344 C 100.035156 93.699219 99.53125 93.398438 99.011719 93.121094 C 98.492188 92.847656 97.960938 92.59375 97.417969 92.371094 C 96.875 92.148438 96.324219 91.949219 95.761719 91.78125 C 95.199219 91.609375 94.628906 91.46875 94.050781 91.355469 C 93.476562 91.242188 92.894531 91.15625 92.308594 91.101562 C 91.722656 91.042969 91.136719 91.015625 90.550781 91.019531 C 89.964844 91.019531 89.375 91.050781 88.792969 91.109375 C 88.207031 91.167969 87.628906 91.253906 87.050781 91.371094 C 86.476562 91.488281 85.90625 91.632812 85.34375 91.804688 C 84.78125 91.976562 84.230469 92.175781 83.6875 92.402344 C 83.144531 92.628906 82.617188 92.882812 82.097656 93.160156 C 81.582031 93.441406 81.078125 93.746094 80.59375 94.074219 C 80.105469 94.402344 79.636719 94.753906 79.183594 95.128906 C 78.730469 95.503906 78.296875 95.898438 77.882812 96.316406 L 6.3125 167.886719 C 5.898438 168.300781 5.503906 168.734375 5.132812 169.1875 C 4.757812 169.640625 4.410156 170.109375 4.085938 170.597656 C 3.757812 171.082031 3.457031 171.585938 3.179688 172.101562 C 2.902344 172.617188 2.652344 173.148438 2.429688 173.6875 C 2.203125 174.230469 2.007812 174.78125 1.835938 175.34375 C 1.667969 175.902344 1.523438 176.472656 1.410156 177.046875 C 1.292969 177.621094 1.207031 178.199219 1.152344 178.78125 C 1.09375 179.367188 1.066406 179.949219 1.066406 180.535156 C 1.066406 181.121094 1.09375 181.707031 1.152344 182.289062 C 1.207031 182.875 1.292969 183.453125 1.410156 184.027344 C 1.523438 184.601562 1.667969 185.171875 1.835938 185.730469 C 2.007812 186.292969 2.203125 186.84375 2.429688 187.382812 C 2.652344 187.925781 2.902344 188.453125 3.179688 188.972656 C 3.457031 189.488281 3.757812 189.988281 4.085938 190.476562 C 4.410156 190.964844 4.757812 191.433594 5.132812 191.886719 C 5.503906 192.339844 5.898438 192.773438 6.3125 193.1875 L 77.882812 264.757812 C 79.558594 266.4375 81.492188 267.734375 83.6875 268.640625 C 85.878906 269.550781 88.164062 270.003906 90.535156 270 Z M 90.535156 270 " fill-opacity="1" fill-rule="nonzero"/></svg>