<svg xmlns="http://www.w3.org/2000/svg" xmlns:xlink="http://www.w3.org/1999/xlink" width="480" zoomAndPan="magnify" viewBox="0 0 360 359.999987" height="480" preserveAspectRatio="xMidYMid meet" version="1.0"><defs><clipPath id="97c51f96fd"><path d="M 13.957031 44 L 346.207031 44 L 346.207031 349.886719 L 13.957031 349.886719 Z M 13.957031 44 " clip-rule="nonzero"/></clipPath><clipPath id="0f921496e1"><path d="M 65 10.136719 L 98 10.136719 L 98 79 L 65 79 Z M 65 10.136719 " clip-rule="nonzero"/></clipPath><clipPath id="e01e192047"><path d="M 262 10.136719 L 295 10.136719 L 295 79 L 262 79 Z M 262 10.136719 " clip-rule="nonzero"/></clipPath></defs><g clip-path="url(#97c51f96fd)"><path fill="#ffffff" d="M 54.667969 349.621094 L 305.332031 349.621094 C 327.949219 349.621094 346.042969 331.152344 346.042969 308.914062 L 346.042969 85.386719 C 346.042969 62.769531 327.574219 44.675781 305.332031 44.675781 L 304.957031 44.675781 L 304.957031 64.277344 C 304.957031 78.222656 293.648438 89.53125 279.699219 89.53125 L 276.6875 89.53125 C 262.738281 89.53125 251.429688 78.222656 251.429688 63.898438 L 251.429688 44.675781 L 108.945312 44.675781 L 108.945312 64.277344 C 108.945312 78.222656 97.636719 89.53125 83.691406 89.53125 L 80.675781 89.53125 C 66.730469 89.53125 55.421875 78.222656 55.421875 64.277344 L 55.421875 44.675781 L 55.042969 44.675781 C 32.425781 44.675781 13.957031 62.769531 13.957031 85.386719 L 13.957031 308.914062 C 13.957031 331.152344 32.425781 349.621094 54.667969 349.621094 Z M 37.328125 134.386719 L 323.050781 134.386719 L 323.050781 308.535156 C 323.050781 317.960938 315.132812 325.875 305.710938 325.875 L 54.667969 325.875 C 45.242188 325.875 37.328125 317.960938 37.328125 308.535156 Z M 37.328125 134.386719 " fill-opacity="1" fill-rule="nonzero"/></g><path fill="#ffffff" d="M 64.84375 157.003906 L 113.847656 157.003906 L 113.847656 196.207031 L 64.84375 196.207031 Z M 64.84375 157.003906 " fill-opacity="1" fill-rule="nonzero"/><path fill="#ffffff" d="M 125.53125 157.003906 L 174.535156 157.003906 L 174.535156 196.207031 L 125.53125 196.207031 Z M 125.53125 157.003906 " fill-opacity="1" fill-rule="nonzero"/><path fill="#ffffff" d="M 185.84375 157.003906 L 234.84375 157.003906 L 234.84375 196.207031 L 185.84375 196.207031 Z M 185.84375 157.003906 " fill-opacity="1" fill-rule="nonzero"/><path fill="#ffffff" d="M 246.53125 157.003906 L 295.53125 157.003906 L 295.53125 196.207031 L 246.53125 196.207031 Z M 246.53125 157.003906 " fill-opacity="1" fill-rule="nonzero"/><path fill="#ffffff" d="M 64.84375 207.890625 L 113.847656 207.890625 L 113.847656 247.09375 L 64.84375 247.09375 Z M 64.84375 207.890625 " fill-opacity="1" fill-rule="nonzero"/><path fill="#ffffff" d="M 125.53125 207.890625 L 174.535156 207.890625 L 174.535156 247.09375 L 125.53125 247.09375 Z M 125.53125 207.890625 " fill-opacity="1" fill-rule="nonzero"/><path fill="#ffffff" d="M 185.84375 207.890625 L 234.84375 207.890625 L 234.84375 247.09375 L 185.84375 247.09375 Z M 185.84375 207.890625 " fill-opacity="1" fill-rule="nonzero"/><path fill="#ffffff" d="M 246.53125 207.890625 L 295.53125 207.890625 L 295.53125 247.09375 L 246.53125 247.09375 Z M 246.53125 207.890625 " fill-opacity="1" fill-rule="nonzero"/><path fill="#ffffff" d="M 64.84375 258.777344 L 113.847656 258.777344 L 113.847656 297.980469 L 64.84375 297.980469 Z M 64.84375 258.777344 " fill-opacity="1" fill-rule="nonzero"/><path fill="#ffffff" d="M 125.53125 258.777344 L 174.535156 258.777344 L 174.535156 297.980469 L 125.53125 297.980469 Z M 125.53125 258.777344 " fill-opacity="1" fill-rule="nonzero"/><path fill="#ffffff" d="M 185.84375 258.777344 L 234.84375 258.777344 L 234.84375 297.980469 L 185.84375 297.980469 Z M 185.84375 258.777344 " fill-opacity="1" fill-rule="nonzero"/><path fill="#ffffff" d="M 246.53125 258.777344 L 295.53125 258.777344 L 295.53125 297.980469 L 246.53125 297.980469 Z M 246.53125 258.777344 " fill-opacity="1" fill-rule="nonzero"/><g clip-path="url(#0f921496e1)"><path fill="#ffffff" d="M 80.296875 78.601562 L 83.3125 78.601562 C 91.230469 78.601562 97.636719 72.191406 97.636719 64.277344 L 97.636719 24.699219 C 97.636719 16.78125 91.230469 10.375 83.3125 10.375 L 80.296875 10.375 C 72.382812 10.375 65.976562 16.78125 65.976562 24.699219 L 65.976562 63.898438 C 65.976562 72.191406 72.382812 78.601562 80.296875 78.601562 Z M 80.296875 78.601562 " fill-opacity="1" fill-rule="nonzero"/></g><g clip-path="url(#e01e192047)"><path fill="#ffffff" d="M 277.0625 78.601562 L 280.078125 78.601562 C 287.992188 78.601562 294.402344 72.191406 294.402344 64.277344 L 294.402344 24.699219 C 294.402344 16.78125 287.992188 10.375 280.078125 10.375 L 277.0625 10.375 C 269.148438 10.375 262.738281 16.78125 262.738281 24.699219 L 262.738281 63.898438 C 262.363281 72.191406 268.769531 78.601562 277.0625 78.601562 Z M 277.0625 78.601562 " fill-opacity="1" fill-rule="nonzero"/></g></svg>