<svg xmlns="http://www.w3.org/2000/svg" xmlns:xlink="http://www.w3.org/1999/xlink" width="480" zoomAndPan="magnify" viewBox="0 0 360 359.999987" height="480" preserveAspectRatio="xMidYMid meet" version="1.0"><path fill="#ffffff" d="M 333.894531 187.65625 L 319.738281 187.65625 L 319.738281 332.847656 C 319.675781 333.828125 319.519531 334.789062 319.273438 335.738281 C 319.023438 336.6875 318.683594 337.601562 318.253906 338.484375 C 317.828125 339.367188 317.316406 340.199219 316.726562 340.984375 C 316.136719 341.765625 315.472656 342.484375 314.742188 343.136719 C 314.011719 343.792969 313.222656 344.367188 312.378906 344.867188 C 311.535156 345.367188 310.652344 345.78125 309.726562 346.105469 C 308.800781 346.433594 307.851562 346.667969 306.882812 346.808594 C 305.914062 346.949219 304.9375 346.996094 303.957031 346.945312 L 220.3125 346.945312 L 220.3125 247.949219 C 220.3125 247.269531 220.246094 246.597656 220.113281 245.929688 C 219.984375 245.265625 219.785156 244.617188 219.527344 243.992188 C 219.265625 243.363281 218.949219 242.769531 218.570312 242.203125 C 218.195312 241.640625 217.765625 241.117188 217.285156 240.636719 C 216.804688 240.15625 216.285156 239.726562 215.71875 239.351562 C 215.15625 238.972656 214.558594 238.652344 213.933594 238.394531 C 213.304688 238.132812 212.660156 237.9375 211.992188 237.804688 C 211.328125 237.671875 210.65625 237.605469 209.976562 237.605469 L 149.289062 237.605469 C 148.609375 237.605469 147.9375 237.671875 147.269531 237.804688 C 146.605469 237.9375 145.957031 238.132812 145.332031 238.390625 C 144.703125 238.652344 144.109375 238.96875 143.542969 239.347656 C 142.980469 239.726562 142.457031 240.152344 141.976562 240.632812 C 141.496094 241.113281 141.066406 241.636719 140.691406 242.203125 C 140.3125 242.765625 139.996094 243.363281 139.734375 243.992188 C 139.476562 244.617188 139.28125 245.265625 139.148438 245.929688 C 139.015625 246.597656 138.949219 247.269531 138.949219 247.949219 L 138.949219 346.9375 L 55.300781 346.9375 C 54.324219 346.992188 53.351562 346.949219 52.382812 346.808594 C 51.417969 346.667969 50.472656 346.4375 49.550781 346.113281 C 48.625 345.789062 47.746094 345.378906 46.902344 344.882812 C 46.0625 344.382812 45.277344 343.808594 44.546875 343.160156 C 43.816406 342.507812 43.160156 341.792969 42.570312 341.011719 C 41.980469 340.230469 41.472656 339.398438 41.046875 338.519531 C 40.621094 337.640625 40.285156 336.726562 40.039062 335.78125 C 39.792969 334.835938 39.640625 333.875 39.582031 332.898438 L 39.582031 187.65625 L 25.363281 187.65625 C 9.601562 187.65625 1.0625 172.816406 11.386719 163.296875 L 167.015625 19.421875 C 167.988281 18.597656 169.027344 17.867188 170.128906 17.226562 C 171.234375 16.585938 172.382812 16.046875 173.582031 15.609375 C 174.78125 15.171875 176.007812 14.839844 177.261719 14.621094 C 178.519531 14.398438 179.785156 14.289062 181.0625 14.292969 C 182.335938 14.292969 183.601562 14.410156 184.859375 14.632812 C 186.113281 14.859375 187.339844 15.195312 188.535156 15.636719 C 189.730469 16.078125 190.878906 16.625 191.980469 17.269531 C 193.082031 17.914062 194.117188 18.652344 195.085938 19.480469 C 246.035156 67.433594 297.007812 115.390625 348 163.347656 C 358.132812 172.960938 349.601562 187.65625 333.894531 187.65625 Z M 333.894531 187.65625 " fill-opacity="1" fill-rule="nonzero"/></svg>