<svg xmlns="http://www.w3.org/2000/svg" xmlns:xlink="http://www.w3.org/1999/xlink" width="480" zoomAndPan="magnify" viewBox="0 0 360 359.999987" height="480" preserveAspectRatio="xMidYMid meet" version="1.0"><defs><clipPath id="c5c220d40d"><path d="M 9.414062 162 L 231 162 L 231 203 L 9.414062 203 Z M 9.414062 162 " clip-rule="nonzero"/></clipPath><clipPath id="aa81b3fcec"><path d="M 9.414062 182 L 50 182 L 50 239 L 9.414062 239 Z M 9.414062 182 " clip-rule="nonzero"/></clipPath><clipPath id="ddf23ace54"><path d="M 210 109.90625 L 350.664062 109.90625 L 350.664062 250 L 210 250 Z M 210 109.90625 " clip-rule="nonzero"/></clipPath></defs><g clip-path="url(#c5c220d40d)"><path fill="#fefbfd" d="M 9.78125 162.148438 L 230.0625 162.148438 L 230.0625 202.203125 L 9.78125 202.203125 Z M 9.78125 162.148438 " fill-opacity="1" fill-rule="evenodd"/></g><g clip-path="url(#aa81b3fcec)"><path fill="#fefbfd" d="M 9.78125 182.175781 L 49.832031 182.175781 L 49.832031 238.070312 L 9.78125 238.070312 Z M 9.78125 182.175781 " fill-opacity="1" fill-rule="evenodd"/></g><path fill="#fefbfd" d="M 69.859375 182.175781 L 109.910156 182.175781 L 109.910156 238.070312 L 69.859375 238.070312 Z M 69.859375 182.175781 " fill-opacity="1" fill-rule="evenodd"/><g clip-path="url(#ddf23ace54)"><path fill="#fefbfd" d="M 280.128906 149.785156 C 263.539062 149.785156 250.089844 163.234375 250.089844 179.824219 C 250.089844 196.414062 263.539062 209.863281 280.128906 209.863281 C 296.71875 209.863281 310.167969 196.414062 310.167969 179.824219 C 310.167969 163.234375 296.71875 149.785156 280.128906 149.785156 Z M 210.039062 179.824219 C 210.039062 141.113281 241.417969 109.734375 280.128906 109.734375 C 318.835938 109.734375 350.21875 141.113281 350.21875 179.824219 C 350.21875 218.535156 318.835938 249.914062 280.128906 249.914062 C 241.417969 249.914062 210.039062 218.535156 210.039062 179.824219 Z M 210.039062 179.824219 " fill-opacity="1" fill-rule="evenodd"/></g></svg>