<svg xmlns="http://www.w3.org/2000/svg" xmlns:xlink="http://www.w3.org/1999/xlink" width="480" zoomAndPan="magnify" viewBox="0 0 360 359.999987" height="480" preserveAspectRatio="xMidYMid meet" version="1.0"><defs><clipPath id="e84ad1cc1c"><path d="M 11.820312 113 L 228 113 L 228 242 L 11.820312 242 Z M 11.820312 113 " clip-rule="nonzero"/></clipPath><clipPath id="576bba0be6"><path d="M 80 7 L 347.820312 7 L 347.820312 352 L 80 352 Z M 80 7 " clip-rule="nonzero"/></clipPath></defs><g clip-path="url(#e84ad1cc1c)"><path fill="#ffffff" d="M 152.476562 215.925781 C 146.359375 222.039062 146.359375 231.210938 152.476562 237.328125 C 155.535156 240.386719 160.121094 241.914062 163.179688 241.914062 C 166.234375 241.914062 170.824219 240.386719 173.878906 237.328125 L 222.804688 188.402344 C 224.332031 186.875 225.863281 185.347656 225.863281 183.816406 C 227.390625 182.289062 227.390625 179.230469 227.390625 177.703125 C 227.390625 176.171875 227.390625 173.117188 225.863281 171.585938 C 225.863281 171.585938 224.332031 170.058594 224.332031 170.058594 C 224.332031 168.527344 222.804688 168.527344 222.804688 167 L 173.878906 118.078125 C 167.765625 111.960938 158.589844 111.960938 152.476562 118.078125 C 146.359375 124.191406 146.359375 133.363281 152.476562 139.480469 L 175.410156 162.414062 L 27.109375 162.414062 C 17.933594 162.414062 11.820312 168.527344 11.820312 177.703125 C 11.820312 186.875 17.933594 192.992188 27.109375 192.992188 L 175.410156 192.992188 Z M 152.476562 215.925781 " fill-opacity="1" fill-rule="nonzero"/></g><g clip-path="url(#576bba0be6)"><path fill="#ffffff" d="M 332.882812 7.996094 L 95.90625 7.996094 C 86.734375 7.996094 80.617188 14.113281 80.617188 23.285156 L 80.617188 99.730469 C 80.617188 108.902344 86.734375 115.019531 95.90625 115.019531 C 105.082031 115.019531 111.195312 108.902344 111.195312 99.730469 L 111.195312 38.574219 L 317.59375 38.574219 L 317.59375 321.414062 L 111.195312 321.414062 L 111.195312 260.261719 C 111.195312 251.089844 105.082031 244.972656 95.90625 244.972656 C 86.734375 244.972656 80.617188 251.089844 80.617188 260.261719 L 80.617188 336.703125 C 80.617188 345.878906 86.734375 351.992188 95.90625 351.992188 L 332.882812 351.992188 C 342.054688 351.992188 348.171875 345.878906 348.171875 336.703125 L 348.171875 23.285156 C 348.171875 14.113281 340.527344 7.996094 332.882812 7.996094 Z M 332.882812 7.996094 " fill-opacity="1" fill-rule="nonzero"/></g></svg>