<svg xmlns="http://www.w3.org/2000/svg" xmlns:xlink="http://www.w3.org/1999/xlink" width="480" zoomAndPan="magnify" viewBox="0 0 360 359.999987" height="480" preserveAspectRatio="xMidYMid meet" version="1.0"><defs><clipPath id="3182507553"><path d="M 17 45.925781 L 344 45.925781 L 344 178 L 17 178 Z M 17 45.925781 " clip-rule="nonzero"/></clipPath><clipPath id="787d117b4b"><path d="M 12.40625 99 L 347.65625 99 L 347.65625 314.425781 L 12.40625 314.425781 Z M 12.40625 99 " clip-rule="nonzero"/></clipPath></defs><g clip-path="url(#3182507553)"><path fill="#ffffff" d="M 179.996094 177.988281 L 343.117188 76.09375 C 342.128906 73.863281 340.984375 71.71875 339.6875 69.652344 C 338.390625 67.589844 336.949219 65.628906 335.371094 63.773438 C 333.789062 61.917969 332.082031 60.183594 330.253906 58.574219 C 328.421875 56.960938 326.484375 55.492188 324.445312 54.160156 C 322.402344 52.828125 320.273438 51.648438 318.0625 50.625 C 315.847656 49.601562 313.574219 48.738281 311.238281 48.042969 C 308.902344 47.347656 306.527344 46.820312 304.113281 46.464844 C 301.703125 46.113281 299.277344 45.933594 296.839844 45.925781 L 63.152344 45.925781 C 60.730469 45.933594 58.320312 46.109375 55.925781 46.460938 C 53.53125 46.8125 51.171875 47.328125 48.851562 48.019531 C 46.527344 48.707031 44.269531 49.554688 42.066406 50.570312 C 39.867188 51.582031 37.75 52.742188 35.71875 54.058594 C 33.683594 55.375 31.757812 56.828125 29.929688 58.417969 C 28.105469 60.011719 26.40625 61.722656 24.824219 63.558594 C 23.246094 65.394531 21.804688 67.332031 20.503906 69.375 C 19.199219 71.417969 18.050781 73.539062 17.054688 75.746094 Z M 179.996094 177.988281 " fill-opacity="1" fill-rule="nonzero"/></g><g clip-path="url(#787d117b4b)"><path fill="#ffffff" d="M 185.917969 200.644531 C 185.027344 201.203125 184.082031 201.625 183.074219 201.914062 C 182.066406 202.203125 181.039062 202.347656 179.992188 202.347656 C 178.941406 202.347656 177.914062 202.203125 176.90625 201.914062 C 175.898438 201.625 174.953125 201.203125 174.0625 200.644531 L 12.40625 99.210938 L 12.40625 263.324219 C 12.40625 264.984375 12.492188 266.644531 12.65625 268.296875 C 12.820312 269.949219 13.0625 271.59375 13.386719 273.222656 C 13.714844 274.851562 14.117188 276.460938 14.601562 278.050781 C 15.085938 279.640625 15.644531 281.203125 16.28125 282.738281 C 16.917969 284.273438 17.628906 285.773438 18.410156 287.238281 C 19.195312 288.703125 20.046875 290.125 20.972656 291.507812 C 21.894531 292.886719 22.882812 294.222656 23.9375 295.503906 C 24.992188 296.789062 26.105469 298.019531 27.28125 299.195312 C 28.457031 300.371094 29.6875 301.484375 30.972656 302.539062 C 32.253906 303.59375 33.589844 304.582031 34.96875 305.503906 C 36.351562 306.429688 37.773438 307.28125 39.238281 308.066406 C 40.703125 308.847656 42.203125 309.558594 43.738281 310.195312 C 45.273438 310.832031 46.835938 311.390625 48.425781 311.875 C 50.015625 312.359375 51.625 312.761719 53.253906 313.089844 C 54.882812 313.414062 56.527344 313.660156 58.179688 313.824219 C 59.832031 313.988281 61.492188 314.070312 63.152344 314.070312 L 296.839844 314.070312 C 298.5 314.070312 300.160156 313.988281 301.8125 313.824219 C 303.464844 313.660156 305.105469 313.414062 306.738281 313.089844 C 308.367188 312.761719 309.976562 312.359375 311.566406 311.875 C 313.15625 311.390625 314.71875 310.832031 316.253906 310.195312 C 317.785156 309.558594 319.285156 308.847656 320.753906 308.066406 C 322.21875 307.28125 323.640625 306.429688 325.023438 305.503906 C 326.402344 304.582031 327.734375 303.59375 329.019531 302.539062 C 330.304688 301.484375 331.535156 300.371094 332.710938 299.195312 C 333.882812 298.019531 335 296.789062 336.054688 295.503906 C 337.105469 294.222656 338.097656 292.886719 339.019531 291.507812 C 339.941406 290.125 340.796875 288.703125 341.582031 287.238281 C 342.363281 285.773438 343.074219 284.273438 343.710938 282.738281 C 344.347656 281.203125 344.90625 279.640625 345.390625 278.050781 C 345.875 276.460938 346.277344 274.851562 346.601562 273.222656 C 346.929688 271.59375 347.171875 269.949219 347.335938 268.296875 C 347.5 266.644531 347.585938 264.984375 347.585938 263.324219 L 347.585938 99.613281 Z M 185.917969 200.644531 " fill-opacity="1" fill-rule="nonzero"/></g></svg>