<svg xmlns="http://www.w3.org/2000/svg" xmlns:xlink="http://www.w3.org/1999/xlink" width="480" zoomAndPan="magnify" viewBox="0 0 360 359.999987" height="480" preserveAspectRatio="xMidYMid meet" version="1.0"><defs><clipPath id="6459e6b8a0"><path d="M 13.789062 44.539062 L 346.039062 44.539062 L 346.039062 315.289062 L 13.789062 315.289062 Z M 13.789062 44.539062 " clip-rule="nonzero"/></clipPath></defs><g clip-path="url(#6459e6b8a0)"><path fill="#000000" d="M 273.539062 225.082031 L 262.984375 225.082031 C 263.171875 224.664062 263.285156 224.199219 263.285156 223.703125 C 263.285156 208.675781 253.917969 195.8125 240.71875 190.589844 C 246.179688 186.558594 249.746094 180.109375 249.746094 172.820312 C 249.746094 160.632812 239.832031 150.730469 227.65625 150.730469 C 215.464844 150.730469 205.5625 160.632812 205.5625 172.820312 C 205.5625 180.109375 209.128906 186.558594 214.582031 190.589844 C 201.394531 195.8125 192.015625 208.675781 192.015625 223.703125 C 192.015625 224.199219 192.128906 224.664062 192.320312 225.082031 L 181.761719 225.082031 L 181.761719 142.207031 L 273.539062 142.207031 Z M 212.390625 172.820312 C 212.390625 164.410156 219.242188 157.558594 227.65625 157.558594 C 236.066406 157.558594 242.914062 164.410156 242.914062 172.820312 C 242.914062 181.230469 236.066406 188.070312 227.65625 188.070312 C 219.242188 188.070312 212.390625 181.230469 212.390625 172.820312 Z M 198.546875 225.082031 C 198.742188 224.664062 198.855469 224.199219 198.855469 223.703125 C 198.855469 207.824219 211.773438 194.910156 227.65625 194.910156 C 243.527344 194.910156 256.457031 207.824219 256.457031 223.703125 C 256.457031 224.199219 256.570312 224.664062 256.753906 225.082031 Z M 276.957031 135.367188 L 178.34375 135.367188 C 176.453125 135.367188 174.929688 136.894531 174.929688 138.785156 L 174.929688 228.5 C 174.929688 230.394531 176.453125 231.925781 178.34375 231.925781 L 276.957031 231.925781 C 278.84375 231.925781 280.382812 230.394531 280.382812 228.5 L 280.382812 138.785156 C 280.382812 136.894531 278.84375 135.367188 276.957031 135.367188 Z M 273.539062 225.082031 L 262.984375 225.082031 C 263.171875 224.664062 263.285156 224.199219 263.285156 223.703125 C 263.285156 208.675781 253.917969 195.8125 240.71875 190.589844 C 246.179688 186.558594 249.746094 180.109375 249.746094 172.820312 C 249.746094 160.632812 239.832031 150.730469 227.65625 150.730469 C 215.464844 150.730469 205.5625 160.632812 205.5625 172.820312 C 205.5625 180.109375 209.128906 186.558594 214.582031 190.589844 C 201.394531 195.8125 192.015625 208.675781 192.015625 223.703125 C 192.015625 224.199219 192.128906 224.664062 192.320312 225.082031 L 181.761719 225.082031 L 181.761719 142.207031 L 273.539062 142.207031 Z M 212.390625 172.820312 C 212.390625 164.410156 219.242188 157.558594 227.65625 157.558594 C 236.066406 157.558594 242.914062 164.410156 242.914062 172.820312 C 242.914062 181.230469 236.066406 188.070312 227.65625 188.070312 C 219.242188 188.070312 212.390625 181.230469 212.390625 172.820312 Z M 198.546875 225.082031 C 198.742188 224.664062 198.855469 224.199219 198.855469 223.703125 C 198.855469 207.824219 211.773438 194.910156 227.65625 194.910156 C 243.527344 194.910156 256.457031 207.824219 256.457031 223.703125 C 256.457031 224.199219 256.570312 224.664062 256.753906 225.082031 Z M 276.957031 135.367188 L 178.34375 135.367188 C 176.453125 135.367188 174.929688 136.894531 174.929688 138.785156 L 174.929688 228.5 C 174.929688 230.394531 176.453125 231.925781 178.34375 231.925781 L 276.957031 231.925781 C 278.84375 231.925781 280.382812 230.394531 280.382812 228.5 L 280.382812 138.785156 C 280.382812 136.894531 278.84375 135.367188 276.957031 135.367188 Z M 154.609375 143.636719 L 57.199219 143.636719 C 55.3125 143.636719 53.777344 145.167969 53.777344 147.050781 C 53.777344 148.941406 55.3125 150.476562 57.199219 150.476562 L 154.609375 150.476562 C 156.496094 150.476562 158.03125 148.941406 158.03125 147.050781 C 158.03125 145.167969 156.496094 143.636719 154.609375 143.636719 Z M 129.121094 168.027344 L 57.199219 168.027344 C 55.3125 168.027344 53.777344 169.5625 53.777344 171.449219 C 53.777344 173.339844 55.3125 174.867188 57.199219 174.867188 L 129.121094 174.867188 C 131.007812 174.867188 132.535156 173.339844 132.535156 171.449219 C 132.535156 169.5625 131.007812 168.027344 129.121094 168.027344 Z M 127.777344 216.8125 L 57.199219 216.8125 C 55.3125 216.8125 53.777344 218.339844 53.777344 220.230469 C 53.777344 222.125 55.3125 223.652344 57.199219 223.652344 L 127.777344 223.652344 C 129.664062 223.652344 131.195312 222.125 131.195312 220.230469 C 131.195312 218.339844 129.664062 216.8125 127.777344 216.8125 Z M 96.921875 192.425781 L 57.199219 192.425781 C 55.3125 192.425781 53.777344 193.953125 53.777344 195.839844 C 53.777344 197.726562 55.3125 199.253906 57.199219 199.253906 L 96.921875 199.253906 C 98.804688 199.253906 100.339844 197.726562 100.339844 195.839844 C 100.339844 193.953125 98.804688 192.425781 96.921875 192.425781 Z M 96.921875 192.425781 L 57.199219 192.425781 C 55.3125 192.425781 53.777344 193.953125 53.777344 195.839844 C 53.777344 197.726562 55.3125 199.253906 57.199219 199.253906 L 96.921875 199.253906 C 98.804688 199.253906 100.339844 197.726562 100.339844 195.839844 C 100.339844 193.953125 98.804688 192.425781 96.921875 192.425781 Z M 127.777344 216.8125 L 57.199219 216.8125 C 55.3125 216.8125 53.777344 218.339844 53.777344 220.230469 C 53.777344 222.125 55.3125 223.652344 57.199219 223.652344 L 127.777344 223.652344 C 129.664062 223.652344 131.195312 222.125 131.195312 220.230469 C 131.195312 218.339844 129.664062 216.8125 127.777344 216.8125 Z M 129.121094 168.027344 L 57.199219 168.027344 C 55.3125 168.027344 53.777344 169.5625 53.777344 171.449219 C 53.777344 173.339844 55.3125 174.867188 57.199219 174.867188 L 129.121094 174.867188 C 131.007812 174.867188 132.535156 173.339844 132.535156 171.449219 C 132.535156 169.5625 131.007812 168.027344 129.121094 168.027344 Z M 154.609375 143.636719 L 57.199219 143.636719 C 55.3125 143.636719 53.777344 145.167969 53.777344 147.050781 C 53.777344 148.941406 55.3125 150.476562 57.199219 150.476562 L 154.609375 150.476562 C 156.496094 150.476562 158.03125 148.941406 158.03125 147.050781 C 158.03125 145.167969 156.496094 143.636719 154.609375 143.636719 Z M 273.539062 225.082031 L 262.984375 225.082031 C 263.171875 224.664062 263.285156 224.199219 263.285156 223.703125 C 263.285156 208.675781 253.917969 195.8125 240.71875 190.589844 C 246.179688 186.558594 249.746094 180.109375 249.746094 172.820312 C 249.746094 160.632812 239.832031 150.730469 227.65625 150.730469 C 215.464844 150.730469 205.5625 160.632812 205.5625 172.820312 C 205.5625 180.109375 209.128906 186.558594 214.582031 190.589844 C 201.394531 195.8125 192.015625 208.675781 192.015625 223.703125 C 192.015625 224.199219 192.128906 224.664062 192.320312 225.082031 L 181.761719 225.082031 L 181.761719 142.207031 L 273.539062 142.207031 Z M 212.390625 172.820312 C 212.390625 164.410156 219.242188 157.558594 227.65625 157.558594 C 236.066406 157.558594 242.914062 164.410156 242.914062 172.820312 C 242.914062 181.230469 236.066406 188.070312 227.65625 188.070312 C 219.242188 188.070312 212.390625 181.230469 212.390625 172.820312 Z M 198.546875 225.082031 C 198.742188 224.664062 198.855469 224.199219 198.855469 223.703125 C 198.855469 207.824219 211.773438 194.910156 227.65625 194.910156 C 243.527344 194.910156 256.457031 207.824219 256.457031 223.703125 C 256.457031 224.199219 256.570312 224.664062 256.753906 225.082031 Z M 276.957031 135.367188 L 178.34375 135.367188 C 176.453125 135.367188 174.929688 136.894531 174.929688 138.785156 L 174.929688 228.5 C 174.929688 230.394531 176.453125 231.925781 178.34375 231.925781 L 276.957031 231.925781 C 278.84375 231.925781 280.382812 230.394531 280.382812 228.5 L 280.382812 138.785156 C 280.382812 136.894531 278.84375 135.367188 276.957031 135.367188 Z M 273.539062 225.082031 L 262.984375 225.082031 C 263.171875 224.664062 263.285156 224.199219 263.285156 223.703125 C 263.285156 208.675781 253.917969 195.8125 240.71875 190.589844 C 246.179688 186.558594 249.746094 180.109375 249.746094 172.820312 C 249.746094 160.632812 239.832031 150.730469 227.65625 150.730469 C 215.464844 150.730469 205.5625 160.632812 205.5625 172.820312 C 205.5625 180.109375 209.128906 186.558594 214.582031 190.589844 C 201.394531 195.8125 192.015625 208.675781 192.015625 223.703125 C 192.015625 224.199219 192.128906 224.664062 192.320312 225.082031 L 181.761719 225.082031 L 181.761719 142.207031 L 273.539062 142.207031 Z M 212.390625 172.820312 C 212.390625 164.410156 219.242188 157.558594 227.65625 157.558594 C 236.066406 157.558594 242.914062 164.410156 242.914062 172.820312 C 242.914062 181.230469 236.066406 188.070312 227.65625 188.070312 C 219.242188 188.070312 212.390625 181.230469 212.390625 172.820312 Z M 198.546875 225.082031 C 198.742188 224.664062 198.855469 224.199219 198.855469 223.703125 C 198.855469 207.824219 211.773438 194.910156 227.65625 194.910156 C 243.527344 194.910156 256.457031 207.824219 256.457031 223.703125 C 256.457031 224.199219 256.570312 224.664062 256.753906 225.082031 Z M 276.957031 135.367188 L 178.34375 135.367188 C 176.453125 135.367188 174.929688 136.894531 174.929688 138.785156 L 174.929688 228.5 C 174.929688 230.394531 176.453125 231.925781 178.34375 231.925781 L 276.957031 231.925781 C 278.84375 231.925781 280.382812 230.394531 280.382812 228.5 L 280.382812 138.785156 C 280.382812 136.894531 278.84375 135.367188 276.957031 135.367188 Z M 154.609375 143.636719 L 57.199219 143.636719 C 55.3125 143.636719 53.777344 145.167969 53.777344 147.050781 C 53.777344 148.941406 55.3125 150.476562 57.199219 150.476562 L 154.609375 150.476562 C 156.496094 150.476562 158.03125 148.941406 158.03125 147.050781 C 158.03125 145.167969 156.496094 143.636719 154.609375 143.636719 Z M 129.121094 168.027344 L 57.199219 168.027344 C 55.3125 168.027344 53.777344 169.5625 53.777344 171.449219 C 53.777344 173.339844 55.3125 174.867188 57.199219 174.867188 L 129.121094 174.867188 C 131.007812 174.867188 132.535156 173.339844 132.535156 171.449219 C 132.535156 169.5625 131.007812 168.027344 129.121094 168.027344 Z M 127.777344 216.8125 L 57.199219 216.8125 C 55.3125 216.8125 53.777344 218.339844 53.777344 220.230469 C 53.777344 222.125 55.3125 223.652344 57.199219 223.652344 L 127.777344 223.652344 C 129.664062 223.652344 131.195312 222.125 131.195312 220.230469 C 131.195312 218.339844 129.664062 216.8125 127.777344 216.8125 Z M 96.921875 192.425781 L 57.199219 192.425781 C 55.3125 192.425781 53.777344 193.953125 53.777344 195.839844 C 53.777344 197.726562 55.3125 199.253906 57.199219 199.253906 L 96.921875 199.253906 C 98.804688 199.253906 100.339844 197.726562 100.339844 195.839844 C 100.339844 193.953125 98.804688 192.425781 96.921875 192.425781 Z M 96.921875 192.425781 L 57.199219 192.425781 C 55.3125 192.425781 53.777344 193.953125 53.777344 195.839844 C 53.777344 197.726562 55.3125 199.253906 57.199219 199.253906 L 96.921875 199.253906 C 98.804688 199.253906 100.339844 197.726562 100.339844 195.839844 C 100.339844 193.953125 98.804688 192.425781 96.921875 192.425781 Z M 127.777344 216.8125 L 57.199219 216.8125 C 55.3125 216.8125 53.777344 218.339844 53.777344 220.230469 C 53.777344 222.125 55.3125 223.652344 57.199219 223.652344 L 127.777344 223.652344 C 129.664062 223.652344 131.195312 222.125 131.195312 220.230469 C 131.195312 218.339844 129.664062 216.8125 127.777344 216.8125 Z M 129.121094 168.027344 L 57.199219 168.027344 C 55.3125 168.027344 53.777344 169.5625 53.777344 171.449219 C 53.777344 173.339844 55.3125 174.867188 57.199219 174.867188 L 129.121094 174.867188 C 131.007812 174.867188 132.535156 173.339844 132.535156 171.449219 C 132.535156 169.5625 131.007812 168.027344 129.121094 168.027344 Z M 154.609375 143.636719 L 57.199219 143.636719 C 55.3125 143.636719 53.777344 145.167969 53.777344 147.050781 C 53.777344 148.941406 55.3125 150.476562 57.199219 150.476562 L 154.609375 150.476562 C 156.496094 150.476562 158.03125 148.941406 158.03125 147.050781 C 158.03125 145.167969 156.496094 143.636719 154.609375 143.636719 Z M 273.539062 225.082031 L 262.984375 225.082031 C 263.171875 224.664062 263.285156 224.199219 263.285156 223.703125 C 263.285156 208.675781 253.917969 195.8125 240.71875 190.589844 C 246.179688 186.558594 249.746094 180.109375 249.746094 172.820312 C 249.746094 160.632812 239.832031 150.730469 227.65625 150.730469 C 215.464844 150.730469 205.5625 160.632812 205.5625 172.820312 C 205.5625 180.109375 209.128906 186.558594 214.582031 190.589844 C 201.394531 195.8125 192.015625 208.675781 192.015625 223.703125 C 192.015625 224.199219 192.128906 224.664062 192.320312 225.082031 L 181.761719 225.082031 L 181.761719 142.207031 L 273.539062 142.207031 Z M 212.390625 172.820312 C 212.390625 164.410156 219.242188 157.558594 227.65625 157.558594 C 236.066406 157.558594 242.914062 164.410156 242.914062 172.820312 C 242.914062 181.230469 236.066406 188.070312 227.65625 188.070312 C 219.242188 188.070312 212.390625 181.230469 212.390625 172.820312 Z M 198.546875 225.082031 C 198.742188 224.664062 198.855469 224.199219 198.855469 223.703125 C 198.855469 207.824219 211.773438 194.910156 227.65625 194.910156 C 243.527344 194.910156 256.457031 207.824219 256.457031 223.703125 C 256.457031 224.199219 256.570312 224.664062 256.753906 225.082031 Z M 276.957031 135.367188 L 178.34375 135.367188 C 176.453125 135.367188 174.929688 136.894531 174.929688 138.785156 L 174.929688 228.5 C 174.929688 230.394531 176.453125 231.925781 178.34375 231.925781 L 276.957031 231.925781 C 278.84375 231.925781 280.382812 230.394531 280.382812 228.5 L 280.382812 138.785156 C 280.382812 136.894531 278.84375 135.367188 276.957031 135.367188 Z M 273.539062 225.082031 L 262.984375 225.082031 C 263.171875 224.664062 263.285156 224.199219 263.285156 223.703125 C 263.285156 208.675781 253.917969 195.8125 240.71875 190.589844 C 246.179688 186.558594 249.746094 180.109375 249.746094 172.820312 C 249.746094 160.632812 239.832031 150.730469 227.65625 150.730469 C 215.464844 150.730469 205.5625 160.632812 205.5625 172.820312 C 205.5625 180.109375 209.128906 186.558594 214.582031 190.589844 C 201.394531 195.8125 192.015625 208.675781 192.015625 223.703125 C 192.015625 224.199219 192.128906 224.664062 192.320312 225.082031 L 181.761719 225.082031 L 181.761719 142.207031 L 273.539062 142.207031 Z M 212.390625 172.820312 C 212.390625 164.410156 219.242188 157.558594 227.65625 157.558594 C 236.066406 157.558594 242.914062 164.410156 242.914062 172.820312 C 242.914062 181.230469 236.066406 188.070312 227.65625 188.070312 C 219.242188 188.070312 212.390625 181.230469 212.390625 172.820312 Z M 198.546875 225.082031 C 198.742188 224.664062 198.855469 224.199219 198.855469 223.703125 C 198.855469 207.824219 211.773438 194.910156 227.65625 194.910156 C 243.527344 194.910156 256.457031 207.824219 256.457031 223.703125 C 256.457031 224.199219 256.570312 224.664062 256.753906 225.082031 Z M 276.957031 135.367188 L 178.34375 135.367188 C 176.453125 135.367188 174.929688 136.894531 174.929688 138.785156 L 174.929688 228.5 C 174.929688 230.394531 176.453125 231.925781 178.34375 231.925781 L 276.957031 231.925781 C 278.84375 231.925781 280.382812 230.394531 280.382812 228.5 L 280.382812 138.785156 C 280.382812 136.894531 278.84375 135.367188 276.957031 135.367188 Z M 154.609375 143.636719 L 57.199219 143.636719 C 55.3125 143.636719 53.777344 145.167969 53.777344 147.050781 C 53.777344 148.941406 55.3125 150.476562 57.199219 150.476562 L 154.609375 150.476562 C 156.496094 150.476562 158.03125 148.941406 158.03125 147.050781 C 158.03125 145.167969 156.496094 143.636719 154.609375 143.636719 Z M 129.121094 168.027344 L 57.199219 168.027344 C 55.3125 168.027344 53.777344 169.5625 53.777344 171.449219 C 53.777344 173.339844 55.3125 174.867188 57.199219 174.867188 L 129.121094 174.867188 C 131.007812 174.867188 132.535156 173.339844 132.535156 171.449219 C 132.535156 169.5625 131.007812 168.027344 129.121094 168.027344 Z M 127.777344 216.8125 L 57.199219 216.8125 C 55.3125 216.8125 53.777344 218.339844 53.777344 220.230469 C 53.777344 222.125 55.3125 223.652344 57.199219 223.652344 L 127.777344 223.652344 C 129.664062 223.652344 131.195312 222.125 131.195312 220.230469 C 131.195312 218.339844 129.664062 216.8125 127.777344 216.8125 Z M 96.921875 192.425781 L 57.199219 192.425781 C 55.3125 192.425781 53.777344 193.953125 53.777344 195.839844 C 53.777344 197.726562 55.3125 199.253906 57.199219 199.253906 L 96.921875 199.253906 C 98.804688 199.253906 100.339844 197.726562 100.339844 195.839844 C 100.339844 193.953125 98.804688 192.425781 96.921875 192.425781 Z M 96.921875 192.425781 L 57.199219 192.425781 C 55.3125 192.425781 53.777344 193.953125 53.777344 195.839844 C 53.777344 197.726562 55.3125 199.253906 57.199219 199.253906 L 96.921875 199.253906 C 98.804688 199.253906 100.339844 197.726562 100.339844 195.839844 C 100.339844 193.953125 98.804688 192.425781 96.921875 192.425781 Z M 127.777344 216.8125 L 57.199219 216.8125 C 55.3125 216.8125 53.777344 218.339844 53.777344 220.230469 C 53.777344 222.125 55.3125 223.652344 57.199219 223.652344 L 127.777344 223.652344 C 129.664062 223.652344 131.195312 222.125 131.195312 220.230469 C 131.195312 218.339844 129.664062 216.8125 127.777344 216.8125 Z M 129.121094 168.027344 L 57.199219 168.027344 C 55.3125 168.027344 53.777344 169.5625 53.777344 171.449219 C 53.777344 173.339844 55.3125 174.867188 57.199219 174.867188 L 129.121094 174.867188 C 131.007812 174.867188 132.535156 173.339844 132.535156 171.449219 C 132.535156 169.5625 131.007812 168.027344 129.121094 168.027344 Z M 154.609375 143.636719 L 57.199219 143.636719 C 55.3125 143.636719 53.777344 145.167969 53.777344 147.050781 C 53.777344 148.941406 55.3125 150.476562 57.199219 150.476562 L 154.609375 150.476562 C 156.496094 150.476562 158.03125 148.941406 158.03125 147.050781 C 158.03125 145.167969 156.496094 143.636719 154.609375 143.636719 Z M 273.539062 225.082031 L 262.984375 225.082031 C 263.171875 224.664062 263.285156 224.199219 263.285156 223.703125 C 263.285156 208.675781 253.917969 195.8125 240.71875 190.589844 C 246.179688 186.558594 249.746094 180.109375 249.746094 172.820312 C 249.746094 160.632812 239.832031 150.730469 227.65625 150.730469 C 215.464844 150.730469 205.5625 160.632812 205.5625 172.820312 C 205.5625 180.109375 209.128906 186.558594 214.582031 190.589844 C 201.394531 195.8125 192.015625 208.675781 192.015625 223.703125 C 192.015625 224.199219 192.128906 224.664062 192.320312 225.082031 L 181.761719 225.082031 L 181.761719 142.207031 L 273.539062 142.207031 Z M 212.390625 172.820312 C 212.390625 164.410156 219.242188 157.558594 227.65625 157.558594 C 236.066406 157.558594 242.914062 164.410156 242.914062 172.820312 C 242.914062 181.230469 236.066406 188.070312 227.65625 188.070312 C 219.242188 188.070312 212.390625 181.230469 212.390625 172.820312 Z M 198.546875 225.082031 C 198.742188 224.664062 198.855469 224.199219 198.855469 223.703125 C 198.855469 207.824219 211.773438 194.910156 227.65625 194.910156 C 243.527344 194.910156 256.457031 207.824219 256.457031 223.703125 C 256.457031 224.199219 256.570312 224.664062 256.753906 225.082031 Z M 276.957031 135.367188 L 178.34375 135.367188 C 176.453125 135.367188 174.929688 136.894531 174.929688 138.785156 L 174.929688 228.5 C 174.929688 230.394531 176.453125 231.925781 178.34375 231.925781 L 276.957031 231.925781 C 278.84375 231.925781 280.382812 230.394531 280.382812 228.5 L 280.382812 138.785156 C 280.382812 136.894531 278.84375 135.367188 276.957031 135.367188 Z M 273.539062 225.082031 L 262.984375 225.082031 C 263.171875 224.664062 263.285156 224.199219 263.285156 223.703125 C 263.285156 208.675781 253.917969 195.8125 240.71875 190.589844 C 246.179688 186.558594 249.746094 180.109375 249.746094 172.820312 C 249.746094 160.632812 239.832031 150.730469 227.65625 150.730469 C 215.464844 150.730469 205.5625 160.632812 205.5625 172.820312 C 205.5625 180.109375 209.128906 186.558594 214.582031 190.589844 C 201.394531 195.8125 192.015625 208.675781 192.015625 223.703125 C 192.015625 224.199219 192.128906 224.664062 192.320312 225.082031 L 181.761719 225.082031 L 181.761719 142.207031 L 273.539062 142.207031 Z M 212.390625 172.820312 C 212.390625 164.410156 219.242188 157.558594 227.65625 157.558594 C 236.066406 157.558594 242.914062 164.410156 242.914062 172.820312 C 242.914062 181.230469 236.066406 188.070312 227.65625 188.070312 C 219.242188 188.070312 212.390625 181.230469 212.390625 172.820312 Z M 198.546875 225.082031 C 198.742188 224.664062 198.855469 224.199219 198.855469 223.703125 C 198.855469 207.824219 211.773438 194.910156 227.65625 194.910156 C 243.527344 194.910156 256.457031 207.824219 256.457031 223.703125 C 256.457031 224.199219 256.570312 224.664062 256.753906 225.082031 Z M 276.957031 135.367188 L 178.34375 135.367188 C 176.453125 135.367188 174.929688 136.894531 174.929688 138.785156 L 174.929688 228.5 C 174.929688 230.394531 176.453125 231.925781 178.34375 231.925781 L 276.957031 231.925781 C 278.84375 231.925781 280.382812 230.394531 280.382812 228.5 L 280.382812 138.785156 C 280.382812 136.894531 278.84375 135.367188 276.957031 135.367188 Z M 154.609375 143.636719 L 57.199219 143.636719 C 55.3125 143.636719 53.777344 145.167969 53.777344 147.050781 C 53.777344 148.941406 55.3125 150.476562 57.199219 150.476562 L 154.609375 150.476562 C 156.496094 150.476562 158.03125 148.941406 158.03125 147.050781 C 158.03125 145.167969 156.496094 143.636719 154.609375 143.636719 Z M 129.121094 168.027344 L 57.199219 168.027344 C 55.3125 168.027344 53.777344 169.5625 53.777344 171.449219 C 53.777344 173.339844 55.3125 174.867188 57.199219 174.867188 L 129.121094 174.867188 C 131.007812 174.867188 132.535156 173.339844 132.535156 171.449219 C 132.535156 169.5625 131.007812 168.027344 129.121094 168.027344 Z M 127.777344 216.8125 L 57.199219 216.8125 C 55.3125 216.8125 53.777344 218.339844 53.777344 220.230469 C 53.777344 222.125 55.3125 223.652344 57.199219 223.652344 L 127.777344 223.652344 C 129.664062 223.652344 131.195312 222.125 131.195312 220.230469 C 131.195312 218.339844 129.664062 216.8125 127.777344 216.8125 Z M 96.921875 192.425781 L 57.199219 192.425781 C 55.3125 192.425781 53.777344 193.953125 53.777344 195.839844 C 53.777344 197.726562 55.3125 199.253906 57.199219 199.253906 L 96.921875 199.253906 C 98.804688 199.253906 100.339844 197.726562 100.339844 195.839844 C 100.339844 193.953125 98.804688 192.425781 96.921875 192.425781 Z M 96.921875 192.425781 L 57.199219 192.425781 C 55.3125 192.425781 53.777344 193.953125 53.777344 195.839844 C 53.777344 197.726562 55.3125 199.253906 57.199219 199.253906 L 96.921875 199.253906 C 98.804688 199.253906 100.339844 197.726562 100.339844 195.839844 C 100.339844 193.953125 98.804688 192.425781 96.921875 192.425781 Z M 127.777344 216.8125 L 57.199219 216.8125 C 55.3125 216.8125 53.777344 218.339844 53.777344 220.230469 C 53.777344 222.125 55.3125 223.652344 57.199219 223.652344 L 127.777344 223.652344 C 129.664062 223.652344 131.195312 222.125 131.195312 220.230469 C 131.195312 218.339844 129.664062 216.8125 127.777344 216.8125 Z M 129.121094 168.027344 L 57.199219 168.027344 C 55.3125 168.027344 53.777344 169.5625 53.777344 171.449219 C 53.777344 173.339844 55.3125 174.867188 57.199219 174.867188 L 129.121094 174.867188 C 131.007812 174.867188 132.535156 173.339844 132.535156 171.449219 C 132.535156 169.5625 131.007812 168.027344 129.121094 168.027344 Z M 154.609375 143.636719 L 57.199219 143.636719 C 55.3125 143.636719 53.777344 145.167969 53.777344 147.050781 C 53.777344 148.941406 55.3125 150.476562 57.199219 150.476562 L 154.609375 150.476562 C 156.496094 150.476562 158.03125 148.941406 158.03125 147.050781 C 158.03125 145.167969 156.496094 143.636719 154.609375 143.636719 Z M 273.539062 225.082031 L 262.984375 225.082031 C 263.171875 224.664062 263.285156 224.199219 263.285156 223.703125 C 263.285156 208.675781 253.917969 195.8125 240.71875 190.589844 C 246.179688 186.558594 249.746094 180.109375 249.746094 172.820312 C 249.746094 160.632812 239.832031 150.730469 227.65625 150.730469 C 215.464844 150.730469 205.5625 160.632812 205.5625 172.820312 C 205.5625 180.109375 209.128906 186.558594 214.582031 190.589844 C 201.394531 195.8125 192.015625 208.675781 192.015625 223.703125 C 192.015625 224.199219 192.128906 224.664062 192.320312 225.082031 L 181.761719 225.082031 L 181.761719 142.207031 L 273.539062 142.207031 Z M 212.390625 172.820312 C 212.390625 164.410156 219.242188 157.558594 227.65625 157.558594 C 236.066406 157.558594 242.914062 164.410156 242.914062 172.820312 C 242.914062 181.230469 236.066406 188.070312 227.65625 188.070312 C 219.242188 188.070312 212.390625 181.230469 212.390625 172.820312 Z M 198.546875 225.082031 C 198.742188 224.664062 198.855469 224.199219 198.855469 223.703125 C 198.855469 207.824219 211.773438 194.910156 227.65625 194.910156 C 243.527344 194.910156 256.457031 207.824219 256.457031 223.703125 C 256.457031 224.199219 256.570312 224.664062 256.753906 225.082031 Z M 276.957031 135.367188 L 178.34375 135.367188 C 176.453125 135.367188 174.929688 136.894531 174.929688 138.785156 L 174.929688 228.5 C 174.929688 230.394531 176.453125 231.925781 178.34375 231.925781 L 276.957031 231.925781 C 278.84375 231.925781 280.382812 230.394531 280.382812 228.5 L 280.382812 138.785156 C 280.382812 136.894531 278.84375 135.367188 276.957031 135.367188 Z M 273.539062 225.082031 L 262.984375 225.082031 C 263.171875 224.664062 263.285156 224.199219 263.285156 223.703125 C 263.285156 208.675781 253.917969 195.8125 240.71875 190.589844 C 246.179688 186.558594 249.746094 180.109375 249.746094 172.820312 C 249.746094 160.632812 239.832031 150.730469 227.65625 150.730469 C 215.464844 150.730469 205.5625 160.632812 205.5625 172.820312 C 205.5625 180.109375 209.128906 186.558594 214.582031 190.589844 C 201.394531 195.8125 192.015625 208.675781 192.015625 223.703125 C 192.015625 224.199219 192.128906 224.664062 192.320312 225.082031 L 181.761719 225.082031 L 181.761719 142.207031 L 273.539062 142.207031 Z M 212.390625 172.820312 C 212.390625 164.410156 219.242188 157.558594 227.65625 157.558594 C 236.066406 157.558594 242.914062 164.410156 242.914062 172.820312 C 242.914062 181.230469 236.066406 188.070312 227.65625 188.070312 C 219.242188 188.070312 212.390625 181.230469 212.390625 172.820312 Z M 198.546875 225.082031 C 198.742188 224.664062 198.855469 224.199219 198.855469 223.703125 C 198.855469 207.824219 211.773438 194.910156 227.65625 194.910156 C 243.527344 194.910156 256.457031 207.824219 256.457031 223.703125 C 256.457031 224.199219 256.570312 224.664062 256.753906 225.082031 Z M 276.957031 135.367188 L 178.34375 135.367188 C 176.453125 135.367188 174.929688 136.894531 174.929688 138.785156 L 174.929688 228.5 C 174.929688 230.394531 176.453125 231.925781 178.34375 231.925781 L 276.957031 231.925781 C 278.84375 231.925781 280.382812 230.394531 280.382812 228.5 L 280.382812 138.785156 C 280.382812 136.894531 278.84375 135.367188 276.957031 135.367188 Z M 154.609375 143.636719 L 57.199219 143.636719 C 55.3125 143.636719 53.777344 145.167969 53.777344 147.050781 C 53.777344 148.941406 55.3125 150.476562 57.199219 150.476562 L 154.609375 150.476562 C 156.496094 150.476562 158.03125 148.941406 158.03125 147.050781 C 158.03125 145.167969 156.496094 143.636719 154.609375 143.636719 Z M 129.121094 168.027344 L 57.199219 168.027344 C 55.3125 168.027344 53.777344 169.5625 53.777344 171.449219 C 53.777344 173.339844 55.3125 174.867188 57.199219 174.867188 L 129.121094 174.867188 C 131.007812 174.867188 132.535156 173.339844 132.535156 171.449219 C 132.535156 169.5625 131.007812 168.027344 129.121094 168.027344 Z M 127.777344 216.8125 L 57.199219 216.8125 C 55.3125 216.8125 53.777344 218.339844 53.777344 220.230469 C 53.777344 222.125 55.3125 223.652344 57.199219 223.652344 L 127.777344 223.652344 C 129.664062 223.652344 131.195312 222.125 131.195312 220.230469 C 131.195312 218.339844 129.664062 216.8125 127.777344 216.8125 Z M 96.921875 192.425781 L 57.199219 192.425781 C 55.3125 192.425781 53.777344 193.953125 53.777344 195.839844 C 53.777344 197.726562 55.3125 199.253906 57.199219 199.253906 L 96.921875 199.253906 C 98.804688 199.253906 100.339844 197.726562 100.339844 195.839844 C 100.339844 193.953125 98.804688 192.425781 96.921875 192.425781 Z M 57.199219 199.253906 L 96.921875 199.253906 C 98.804688 199.253906 100.339844 197.726562 100.339844 195.839844 C 100.339844 193.953125 98.804688 192.425781 96.921875 192.425781 L 57.199219 192.425781 C 55.3125 192.425781 53.777344 193.953125 53.777344 195.839844 C 53.777344 197.726562 55.3125 199.253906 57.199219 199.253906 Z M 127.777344 216.8125 L 57.199219 216.8125 C 55.3125 216.8125 53.777344 218.339844 53.777344 220.230469 C 53.777344 222.125 55.3125 223.652344 57.199219 223.652344 L 127.777344 223.652344 C 129.664062 223.652344 131.195312 222.125 131.195312 220.230469 C 131.195312 218.339844 129.664062 216.8125 127.777344 216.8125 Z M 129.121094 168.027344 L 57.199219 168.027344 C 55.3125 168.027344 53.777344 169.5625 53.777344 171.449219 C 53.777344 173.339844 55.3125 174.867188 57.199219 174.867188 L 129.121094 174.867188 C 131.007812 174.867188 132.535156 173.339844 132.535156 171.449219 C 132.535156 169.5625 131.007812 168.027344 129.121094 168.027344 Z M 154.609375 143.636719 L 57.199219 143.636719 C 55.3125 143.636719 53.777344 145.167969 53.777344 147.050781 C 53.777344 148.941406 55.3125 150.476562 57.199219 150.476562 L 154.609375 150.476562 C 156.496094 150.476562 158.03125 148.941406 158.03125 147.050781 C 158.03125 145.167969 156.496094 143.636719 154.609375 143.636719 Z M 273.539062 225.082031 L 262.984375 225.082031 C 263.171875 224.664062 263.285156 224.199219 263.285156 223.703125 C 263.285156 208.675781 253.917969 195.8125 240.71875 190.589844 C 246.179688 186.558594 249.746094 180.109375 249.746094 172.820312 C 249.746094 160.632812 239.832031 150.730469 227.65625 150.730469 C 215.464844 150.730469 205.5625 160.632812 205.5625 172.820312 C 205.5625 180.109375 209.128906 186.558594 214.582031 190.589844 C 201.394531 195.8125 192.015625 208.675781 192.015625 223.703125 C 192.015625 224.199219 192.128906 224.664062 192.320312 225.082031 L 181.761719 225.082031 L 181.761719 142.207031 L 273.539062 142.207031 Z M 212.390625 172.820312 C 212.390625 164.410156 219.242188 157.558594 227.65625 157.558594 C 236.066406 157.558594 242.914062 164.410156 242.914062 172.820312 C 242.914062 181.230469 236.066406 188.070312 227.65625 188.070312 C 219.242188 188.070312 212.390625 181.230469 212.390625 172.820312 Z M 198.546875 225.082031 C 198.742188 224.664062 198.855469 224.199219 198.855469 223.703125 C 198.855469 207.824219 211.773438 194.910156 227.65625 194.910156 C 243.527344 194.910156 256.457031 207.824219 256.457031 223.703125 C 256.457031 224.199219 256.570312 224.664062 256.753906 225.082031 Z M 276.957031 135.367188 L 178.34375 135.367188 C 176.453125 135.367188 174.929688 136.894531 174.929688 138.785156 L 174.929688 228.5 C 174.929688 230.394531 176.453125 231.925781 178.34375 231.925781 L 276.957031 231.925781 C 278.84375 231.925781 280.382812 230.394531 280.382812 228.5 L 280.382812 138.785156 C 280.382812 136.894531 278.84375 135.367188 276.957031 135.367188 Z M 339.21875 74.375 L 60.613281 74.375 L 60.613281 71.363281 C 60.613281 60.53125 69.433594 51.726562 80.257812 51.726562 L 319.574219 51.726562 C 330.410156 51.726562 339.21875 60.53125 339.21875 71.363281 Z M 339.21875 110.695312 L 60.613281 110.695312 L 60.613281 81.21875 L 339.21875 81.21875 Z M 339.21875 222.742188 C 339.21875 233.574219 330.410156 242.386719 319.574219 242.386719 L 306.054688 242.386719 L 306.054688 137.175781 C 306.054688 129.378906 302.648438 122.382812 297.265625 117.527344 L 339.21875 117.527344 Z M 299.214844 268.234375 L 20.613281 268.234375 L 20.613281 137.175781 C 20.613281 126.34375 29.421875 117.527344 40.253906 117.527344 L 279.574219 117.527344 C 290.40625 117.527344 299.214844 126.34375 299.214844 137.175781 Z M 299.214844 288.550781 C 299.214844 299.386719 290.40625 308.1875 279.574219 308.1875 L 40.253906 308.1875 C 29.421875 308.1875 20.613281 299.386719 20.613281 288.550781 L 20.613281 275.0625 L 299.214844 275.0625 Z M 319.574219 44.886719 L 80.257812 44.886719 C 65.65625 44.886719 53.777344 56.765625 53.777344 71.363281 L 53.777344 110.695312 L 40.253906 110.695312 C 25.652344 110.695312 13.773438 122.578125 13.773438 137.175781 L 13.773438 288.550781 C 13.773438 303.152344 25.652344 315.03125 40.253906 315.03125 L 279.574219 315.03125 C 294.171875 315.03125 306.054688 303.152344 306.054688 288.550781 L 306.054688 249.21875 L 319.574219 249.21875 C 334.179688 249.21875 346.058594 237.339844 346.058594 222.742188 L 346.058594 71.363281 C 346.058594 56.765625 334.179688 44.886719 319.574219 44.886719 Z M 57.199219 199.253906 L 96.921875 199.253906 C 98.804688 199.253906 100.339844 197.726562 100.339844 195.839844 C 100.339844 193.953125 98.804688 192.425781 96.921875 192.425781 L 57.199219 192.425781 C 55.3125 192.425781 53.777344 193.953125 53.777344 195.839844 C 53.777344 197.726562 55.3125 199.253906 57.199219 199.253906 Z M 127.777344 216.8125 L 57.199219 216.8125 C 55.3125 216.8125 53.777344 218.339844 53.777344 220.230469 C 53.777344 222.125 55.3125 223.652344 57.199219 223.652344 L 127.777344 223.652344 C 129.664062 223.652344 131.195312 222.125 131.195312 220.230469 C 131.195312 218.339844 129.664062 216.8125 127.777344 216.8125 Z M 129.121094 168.027344 L 57.199219 168.027344 C 55.3125 168.027344 53.777344 169.5625 53.777344 171.449219 C 53.777344 173.339844 55.3125 174.867188 57.199219 174.867188 L 129.121094 174.867188 C 131.007812 174.867188 132.535156 173.339844 132.535156 171.449219 C 132.535156 169.5625 131.007812 168.027344 129.121094 168.027344 Z M 154.609375 143.636719 L 57.199219 143.636719 C 55.3125 143.636719 53.777344 145.167969 53.777344 147.050781 C 53.777344 148.941406 55.3125 150.476562 57.199219 150.476562 L 154.609375 150.476562 C 156.496094 150.476562 158.03125 148.941406 158.03125 147.050781 C 158.03125 145.167969 156.496094 143.636719 154.609375 143.636719 Z M 273.539062 225.082031 L 262.984375 225.082031 C 263.171875 224.664062 263.285156 224.199219 263.285156 223.703125 C 263.285156 208.675781 253.917969 195.8125 240.71875 190.589844 C 246.179688 186.558594 249.746094 180.109375 249.746094 172.820312 C 249.746094 160.632812 239.832031 150.730469 227.65625 150.730469 C 215.464844 150.730469 205.5625 160.632812 205.5625 172.820312 C 205.5625 180.109375 209.128906 186.558594 214.582031 190.589844 C 201.394531 195.8125 192.015625 208.675781 192.015625 223.703125 C 192.015625 224.199219 192.128906 224.664062 192.320312 225.082031 L 181.761719 225.082031 L 181.761719 142.207031 L 273.539062 142.207031 Z M 212.390625 172.820312 C 212.390625 164.410156 219.242188 157.558594 227.65625 157.558594 C 236.066406 157.558594 242.914062 164.410156 242.914062 172.820312 C 242.914062 181.230469 236.066406 188.070312 227.65625 188.070312 C 219.242188 188.070312 212.390625 181.230469 212.390625 172.820312 Z M 198.546875 225.082031 C 198.742188 224.664062 198.855469 224.199219 198.855469 223.703125 C 198.855469 207.824219 211.773438 194.910156 227.65625 194.910156 C 243.527344 194.910156 256.457031 207.824219 256.457031 223.703125 C 256.457031 224.199219 256.570312 224.664062 256.753906 225.082031 Z M 276.957031 135.367188 L 178.34375 135.367188 C 176.453125 135.367188 174.929688 136.894531 174.929688 138.785156 L 174.929688 228.5 C 174.929688 230.394531 176.453125 231.925781 178.34375 231.925781 L 276.957031 231.925781 C 278.84375 231.925781 280.382812 230.394531 280.382812 228.5 L 280.382812 138.785156 C 280.382812 136.894531 278.84375 135.367188 276.957031 135.367188 Z M 273.539062 225.082031 L 262.984375 225.082031 C 263.171875 224.664062 263.285156 224.199219 263.285156 223.703125 C 263.285156 208.675781 253.917969 195.8125 240.71875 190.589844 C 246.179688 186.558594 249.746094 180.109375 249.746094 172.820312 C 249.746094 160.632812 239.832031 150.730469 227.65625 150.730469 C 215.464844 150.730469 205.5625 160.632812 205.5625 172.820312 C 205.5625 180.109375 209.128906 186.558594 214.582031 190.589844 C 201.394531 195.8125 192.015625 208.675781 192.015625 223.703125 C 192.015625 224.199219 192.128906 224.664062 192.320312 225.082031 L 181.761719 225.082031 L 181.761719 142.207031 L 273.539062 142.207031 Z M 212.390625 172.820312 C 212.390625 164.410156 219.242188 157.558594 227.65625 157.558594 C 236.066406 157.558594 242.914062 164.410156 242.914062 172.820312 C 242.914062 181.230469 236.066406 188.070312 227.65625 188.070312 C 219.242188 188.070312 212.390625 181.230469 212.390625 172.820312 Z M 198.546875 225.082031 C 198.742188 224.664062 198.855469 224.199219 198.855469 223.703125 C 198.855469 207.824219 211.773438 194.910156 227.65625 194.910156 C 243.527344 194.910156 256.457031 207.824219 256.457031 223.703125 C 256.457031 224.199219 256.570312 224.664062 256.753906 225.082031 Z M 276.957031 135.367188 L 178.34375 135.367188 C 176.453125 135.367188 174.929688 136.894531 174.929688 138.785156 L 174.929688 228.5 C 174.929688 230.394531 176.453125 231.925781 178.34375 231.925781 L 276.957031 231.925781 C 278.84375 231.925781 280.382812 230.394531 280.382812 228.5 L 280.382812 138.785156 C 280.382812 136.894531 278.84375 135.367188 276.957031 135.367188 Z M 154.609375 143.636719 L 57.199219 143.636719 C 55.3125 143.636719 53.777344 145.167969 53.777344 147.050781 C 53.777344 148.941406 55.3125 150.476562 57.199219 150.476562 L 154.609375 150.476562 C 156.496094 150.476562 158.03125 148.941406 158.03125 147.050781 C 158.03125 145.167969 156.496094 143.636719 154.609375 143.636719 Z M 129.121094 168.027344 L 57.199219 168.027344 C 55.3125 168.027344 53.777344 169.5625 53.777344 171.449219 C 53.777344 173.339844 55.3125 174.867188 57.199219 174.867188 L 129.121094 174.867188 C 131.007812 174.867188 132.535156 173.339844 132.535156 171.449219 C 132.535156 169.5625 131.007812 168.027344 129.121094 168.027344 Z M 127.777344 216.8125 L 57.199219 216.8125 C 55.3125 216.8125 53.777344 218.339844 53.777344 220.230469 C 53.777344 222.125 55.3125 223.652344 57.199219 223.652344 L 127.777344 223.652344 C 129.664062 223.652344 131.195312 222.125 131.195312 220.230469 C 131.195312 218.339844 129.664062 216.8125 127.777344 216.8125 Z M 96.921875 192.425781 L 57.199219 192.425781 C 55.3125 192.425781 53.777344 193.953125 53.777344 195.839844 C 53.777344 197.726562 55.3125 199.253906 57.199219 199.253906 L 96.921875 199.253906 C 98.804688 199.253906 100.339844 197.726562 100.339844 195.839844 C 100.339844 193.953125 98.804688 192.425781 96.921875 192.425781 Z M 96.921875 192.425781 L 57.199219 192.425781 C 55.3125 192.425781 53.777344 193.953125 53.777344 195.839844 C 53.777344 197.726562 55.3125 199.253906 57.199219 199.253906 L 96.921875 199.253906 C 98.804688 199.253906 100.339844 197.726562 100.339844 195.839844 C 100.339844 193.953125 98.804688 192.425781 96.921875 192.425781 Z M 127.777344 216.8125 L 57.199219 216.8125 C 55.3125 216.8125 53.777344 218.339844 53.777344 220.230469 C 53.777344 222.125 55.3125 223.652344 57.199219 223.652344 L 127.777344 223.652344 C 129.664062 223.652344 131.195312 222.125 131.195312 220.230469 C 131.195312 218.339844 129.664062 216.8125 127.777344 216.8125 Z M 129.121094 168.027344 L 57.199219 168.027344 C 55.3125 168.027344 53.777344 169.5625 53.777344 171.449219 C 53.777344 173.339844 55.3125 174.867188 57.199219 174.867188 L 129.121094 174.867188 C 131.007812 174.867188 132.535156 173.339844 132.535156 171.449219 C 132.535156 169.5625 131.007812 168.027344 129.121094 168.027344 Z M 154.609375 143.636719 L 57.199219 143.636719 C 55.3125 143.636719 53.777344 145.167969 53.777344 147.050781 C 53.777344 148.941406 55.3125 150.476562 57.199219 150.476562 L 154.609375 150.476562 C 156.496094 150.476562 158.03125 148.941406 158.03125 147.050781 C 158.03125 145.167969 156.496094 143.636719 154.609375 143.636719 Z M 273.539062 225.082031 L 262.984375 225.082031 C 263.171875 224.664062 263.285156 224.199219 263.285156 223.703125 C 263.285156 208.675781 253.917969 195.8125 240.71875 190.589844 C 246.179688 186.558594 249.746094 180.109375 249.746094 172.820312 C 249.746094 160.632812 239.832031 150.730469 227.65625 150.730469 C 215.464844 150.730469 205.5625 160.632812 205.5625 172.820312 C 205.5625 180.109375 209.128906 186.558594 214.582031 190.589844 C 201.394531 195.8125 192.015625 208.675781 192.015625 223.703125 C 192.015625 224.199219 192.128906 224.664062 192.320312 225.082031 L 181.761719 225.082031 L 181.761719 142.207031 L 273.539062 142.207031 Z M 212.390625 172.820312 C 212.390625 164.410156 219.242188 157.558594 227.65625 157.558594 C 236.066406 157.558594 242.914062 164.410156 242.914062 172.820312 C 242.914062 181.230469 236.066406 188.070312 227.65625 188.070312 C 219.242188 188.070312 212.390625 181.230469 212.390625 172.820312 Z M 198.546875 225.082031 C 198.742188 224.664062 198.855469 224.199219 198.855469 223.703125 C 198.855469 207.824219 211.773438 194.910156 227.65625 194.910156 C 243.527344 194.910156 256.457031 207.824219 256.457031 223.703125 C 256.457031 224.199219 256.570312 224.664062 256.753906 225.082031 Z M 276.957031 135.367188 L 178.34375 135.367188 C 176.453125 135.367188 174.929688 136.894531 174.929688 138.785156 L 174.929688 228.5 C 174.929688 230.394531 176.453125 231.925781 178.34375 231.925781 L 276.957031 231.925781 C 278.84375 231.925781 280.382812 230.394531 280.382812 228.5 L 280.382812 138.785156 C 280.382812 136.894531 278.84375 135.367188 276.957031 135.367188 Z M 273.539062 225.082031 L 262.984375 225.082031 C 263.171875 224.664062 263.285156 224.199219 263.285156 223.703125 C 263.285156 208.675781 253.917969 195.8125 240.71875 190.589844 C 246.179688 186.558594 249.746094 180.109375 249.746094 172.820312 C 249.746094 160.632812 239.832031 150.730469 227.65625 150.730469 C 215.464844 150.730469 205.5625 160.632812 205.5625 172.820312 C 205.5625 180.109375 209.128906 186.558594 214.582031 190.589844 C 201.394531 195.8125 192.015625 208.675781 192.015625 223.703125 C 192.015625 224.199219 192.128906 224.664062 192.320312 225.082031 L 181.761719 225.082031 L 181.761719 142.207031 L 273.539062 142.207031 Z M 212.390625 172.820312 C 212.390625 164.410156 219.242188 157.558594 227.65625 157.558594 C 236.066406 157.558594 242.914062 164.410156 242.914062 172.820312 C 242.914062 181.230469 236.066406 188.070312 227.65625 188.070312 C 219.242188 188.070312 212.390625 181.230469 212.390625 172.820312 Z M 198.546875 225.082031 C 198.742188 224.664062 198.855469 224.199219 198.855469 223.703125 C 198.855469 207.824219 211.773438 194.910156 227.65625 194.910156 C 243.527344 194.910156 256.457031 207.824219 256.457031 223.703125 C 256.457031 224.199219 256.570312 224.664062 256.753906 225.082031 Z M 276.957031 135.367188 L 178.34375 135.367188 C 176.453125 135.367188 174.929688 136.894531 174.929688 138.785156 L 174.929688 228.5 C 174.929688 230.394531 176.453125 231.925781 178.34375 231.925781 L 276.957031 231.925781 C 278.84375 231.925781 280.382812 230.394531 280.382812 228.5 L 280.382812 138.785156 C 280.382812 136.894531 278.84375 135.367188 276.957031 135.367188 Z M 154.609375 143.636719 L 57.199219 143.636719 C 55.3125 143.636719 53.777344 145.167969 53.777344 147.050781 C 53.777344 148.941406 55.3125 150.476562 57.199219 150.476562 L 154.609375 150.476562 C 156.496094 150.476562 158.03125 148.941406 158.03125 147.050781 C 158.03125 145.167969 156.496094 143.636719 154.609375 143.636719 Z M 129.121094 168.027344 L 57.199219 168.027344 C 55.3125 168.027344 53.777344 169.5625 53.777344 171.449219 C 53.777344 173.339844 55.3125 174.867188 57.199219 174.867188 L 129.121094 174.867188 C 131.007812 174.867188 132.535156 173.339844 132.535156 171.449219 C 132.535156 169.5625 131.007812 168.027344 129.121094 168.027344 Z M 127.777344 216.8125 L 57.199219 216.8125 C 55.3125 216.8125 53.777344 218.339844 53.777344 220.230469 C 53.777344 222.125 55.3125 223.652344 57.199219 223.652344 L 127.777344 223.652344 C 129.664062 223.652344 131.195312 222.125 131.195312 220.230469 C 131.195312 218.339844 129.664062 216.8125 127.777344 216.8125 Z M 96.921875 192.425781 L 57.199219 192.425781 C 55.3125 192.425781 53.777344 193.953125 53.777344 195.839844 C 53.777344 197.726562 55.3125 199.253906 57.199219 199.253906 L 96.921875 199.253906 C 98.804688 199.253906 100.339844 197.726562 100.339844 195.839844 C 100.339844 193.953125 98.804688 192.425781 96.921875 192.425781 Z M 96.921875 192.425781 L 57.199219 192.425781 C 55.3125 192.425781 53.777344 193.953125 53.777344 195.839844 C 53.777344 197.726562 55.3125 199.253906 57.199219 199.253906 L 96.921875 199.253906 C 98.804688 199.253906 100.339844 197.726562 100.339844 195.839844 C 100.339844 193.953125 98.804688 192.425781 96.921875 192.425781 Z M 127.777344 216.8125 L 57.199219 216.8125 C 55.3125 216.8125 53.777344 218.339844 53.777344 220.230469 C 53.777344 222.125 55.3125 223.652344 57.199219 223.652344 L 127.777344 223.652344 C 129.664062 223.652344 131.195312 222.125 131.195312 220.230469 C 131.195312 218.339844 129.664062 216.8125 127.777344 216.8125 Z M 129.121094 168.027344 L 57.199219 168.027344 C 55.3125 168.027344 53.777344 169.5625 53.777344 171.449219 C 53.777344 173.339844 55.3125 174.867188 57.199219 174.867188 L 129.121094 174.867188 C 131.007812 174.867188 132.535156 173.339844 132.535156 171.449219 C 132.535156 169.5625 131.007812 168.027344 129.121094 168.027344 Z M 154.609375 143.636719 L 57.199219 143.636719 C 55.3125 143.636719 53.777344 145.167969 53.777344 147.050781 C 53.777344 148.941406 55.3125 150.476562 57.199219 150.476562 L 154.609375 150.476562 C 156.496094 150.476562 158.03125 148.941406 158.03125 147.050781 C 158.03125 145.167969 156.496094 143.636719 154.609375 143.636719 Z M 273.539062 225.082031 L 262.984375 225.082031 C 263.171875 224.664062 263.285156 224.199219 263.285156 223.703125 C 263.285156 208.675781 253.917969 195.8125 240.71875 190.589844 C 246.179688 186.558594 249.746094 180.109375 249.746094 172.820312 C 249.746094 160.632812 239.832031 150.730469 227.65625 150.730469 C 215.464844 150.730469 205.5625 160.632812 205.5625 172.820312 C 205.5625 180.109375 209.128906 186.558594 214.582031 190.589844 C 201.394531 195.8125 192.015625 208.675781 192.015625 223.703125 C 192.015625 224.199219 192.128906 224.664062 192.320312 225.082031 L 181.761719 225.082031 L 181.761719 142.207031 L 273.539062 142.207031 Z M 212.390625 172.820312 C 212.390625 164.410156 219.242188 157.558594 227.65625 157.558594 C 236.066406 157.558594 242.914062 164.410156 242.914062 172.820312 C 242.914062 181.230469 236.066406 188.070312 227.65625 188.070312 C 219.242188 188.070312 212.390625 181.230469 212.390625 172.820312 Z M 198.546875 225.082031 C 198.742188 224.664062 198.855469 224.199219 198.855469 223.703125 C 198.855469 207.824219 211.773438 194.910156 227.65625 194.910156 C 243.527344 194.910156 256.457031 207.824219 256.457031 223.703125 C 256.457031 224.199219 256.570312 224.664062 256.753906 225.082031 Z M 276.957031 135.367188 L 178.34375 135.367188 C 176.453125 135.367188 174.929688 136.894531 174.929688 138.785156 L 174.929688 228.5 C 174.929688 230.394531 176.453125 231.925781 178.34375 231.925781 L 276.957031 231.925781 C 278.84375 231.925781 280.382812 230.394531 280.382812 228.5 L 280.382812 138.785156 C 280.382812 136.894531 278.84375 135.367188 276.957031 135.367188 Z M 273.539062 225.082031 L 262.984375 225.082031 C 263.171875 224.664062 263.285156 224.199219 263.285156 223.703125 C 263.285156 208.675781 253.917969 195.8125 240.71875 190.589844 C 246.179688 186.558594 249.746094 180.109375 249.746094 172.820312 C 249.746094 160.632812 239.832031 150.730469 227.65625 150.730469 C 215.464844 150.730469 205.5625 160.632812 205.5625 172.820312 C 205.5625 180.109375 209.128906 186.558594 214.582031 190.589844 C 201.394531 195.8125 192.015625 208.675781 192.015625 223.703125 C 192.015625 224.199219 192.128906 224.664062 192.320312 225.082031 L 181.761719 225.082031 L 181.761719 142.207031 L 273.539062 142.207031 Z M 212.390625 172.820312 C 212.390625 164.410156 219.242188 157.558594 227.65625 157.558594 C 236.066406 157.558594 242.914062 164.410156 242.914062 172.820312 C 242.914062 181.230469 236.066406 188.070312 227.65625 188.070312 C 219.242188 188.070312 212.390625 181.230469 212.390625 172.820312 Z M 198.546875 225.082031 C 198.742188 224.664062 198.855469 224.199219 198.855469 223.703125 C 198.855469 207.824219 211.773438 194.910156 227.65625 194.910156 C 243.527344 194.910156 256.457031 207.824219 256.457031 223.703125 C 256.457031 224.199219 256.570312 224.664062 256.753906 225.082031 Z M 276.957031 135.367188 L 178.34375 135.367188 C 176.453125 135.367188 174.929688 136.894531 174.929688 138.785156 L 174.929688 228.5 C 174.929688 230.394531 176.453125 231.925781 178.34375 231.925781 L 276.957031 231.925781 C 278.84375 231.925781 280.382812 230.394531 280.382812 228.5 L 280.382812 138.785156 C 280.382812 136.894531 278.84375 135.367188 276.957031 135.367188 Z M 154.609375 143.636719 L 57.199219 143.636719 C 55.3125 143.636719 53.777344 145.167969 53.777344 147.050781 C 53.777344 148.941406 55.3125 150.476562 57.199219 150.476562 L 154.609375 150.476562 C 156.496094 150.476562 158.03125 148.941406 158.03125 147.050781 C 158.03125 145.167969 156.496094 143.636719 154.609375 143.636719 Z M 129.121094 168.027344 L 57.199219 168.027344 C 55.3125 168.027344 53.777344 169.5625 53.777344 171.449219 C 53.777344 173.339844 55.3125 174.867188 57.199219 174.867188 L 129.121094 174.867188 C 131.007812 174.867188 132.535156 173.339844 132.535156 171.449219 C 132.535156 169.5625 131.007812 168.027344 129.121094 168.027344 Z M 127.777344 216.8125 L 57.199219 216.8125 C 55.3125 216.8125 53.777344 218.339844 53.777344 220.230469 C 53.777344 222.125 55.3125 223.652344 57.199219 223.652344 L 127.777344 223.652344 C 129.664062 223.652344 131.195312 222.125 131.195312 220.230469 C 131.195312 218.339844 129.664062 216.8125 127.777344 216.8125 Z M 96.921875 192.425781 L 57.199219 192.425781 C 55.3125 192.425781 53.777344 193.953125 53.777344 195.839844 C 53.777344 197.726562 55.3125 199.253906 57.199219 199.253906 L 96.921875 199.253906 C 98.804688 199.253906 100.339844 197.726562 100.339844 195.839844 C 100.339844 193.953125 98.804688 192.425781 96.921875 192.425781 Z M 96.921875 192.425781 L 57.199219 192.425781 C 55.3125 192.425781 53.777344 193.953125 53.777344 195.839844 C 53.777344 197.726562 55.3125 199.253906 57.199219 199.253906 L 96.921875 199.253906 C 98.804688 199.253906 100.339844 197.726562 100.339844 195.839844 C 100.339844 193.953125 98.804688 192.425781 96.921875 192.425781 Z M 127.777344 216.8125 L 57.199219 216.8125 C 55.3125 216.8125 53.777344 218.339844 53.777344 220.230469 C 53.777344 222.125 55.3125 223.652344 57.199219 223.652344 L 127.777344 223.652344 C 129.664062 223.652344 131.195312 222.125 131.195312 220.230469 C 131.195312 218.339844 129.664062 216.8125 127.777344 216.8125 Z M 129.121094 168.027344 L 57.199219 168.027344 C 55.3125 168.027344 53.777344 169.5625 53.777344 171.449219 C 53.777344 173.339844 55.3125 174.867188 57.199219 174.867188 L 129.121094 174.867188 C 131.007812 174.867188 132.535156 173.339844 132.535156 171.449219 C 132.535156 169.5625 131.007812 168.027344 129.121094 168.027344 Z M 154.609375 143.636719 L 57.199219 143.636719 C 55.3125 143.636719 53.777344 145.167969 53.777344 147.050781 C 53.777344 148.941406 55.3125 150.476562 57.199219 150.476562 L 154.609375 150.476562 C 156.496094 150.476562 158.03125 148.941406 158.03125 147.050781 C 158.03125 145.167969 156.496094 143.636719 154.609375 143.636719 Z M 273.539062 225.082031 L 262.984375 225.082031 C 263.171875 224.664062 263.285156 224.199219 263.285156 223.703125 C 263.285156 208.675781 253.917969 195.8125 240.71875 190.589844 C 246.179688 186.558594 249.746094 180.109375 249.746094 172.820312 C 249.746094 160.632812 239.832031 150.730469 227.65625 150.730469 C 215.464844 150.730469 205.5625 160.632812 205.5625 172.820312 C 205.5625 180.109375 209.128906 186.558594 214.582031 190.589844 C 201.394531 195.8125 192.015625 208.675781 192.015625 223.703125 C 192.015625 224.199219 192.128906 224.664062 192.320312 225.082031 L 181.761719 225.082031 L 181.761719 142.207031 L 273.539062 142.207031 Z M 212.390625 172.820312 C 212.390625 164.410156 219.242188 157.558594 227.65625 157.558594 C 236.066406 157.558594 242.914062 164.410156 242.914062 172.820312 C 242.914062 181.230469 236.066406 188.070312 227.65625 188.070312 C 219.242188 188.070312 212.390625 181.230469 212.390625 172.820312 Z M 198.546875 225.082031 C 198.742188 224.664062 198.855469 224.199219 198.855469 223.703125 C 198.855469 207.824219 211.773438 194.910156 227.65625 194.910156 C 243.527344 194.910156 256.457031 207.824219 256.457031 223.703125 C 256.457031 224.199219 256.570312 224.664062 256.753906 225.082031 Z M 276.957031 135.367188 L 178.34375 135.367188 C 176.453125 135.367188 174.929688 136.894531 174.929688 138.785156 L 174.929688 228.5 C 174.929688 230.394531 176.453125 231.925781 178.34375 231.925781 L 276.957031 231.925781 C 278.84375 231.925781 280.382812 230.394531 280.382812 228.5 L 280.382812 138.785156 C 280.382812 136.894531 278.84375 135.367188 276.957031 135.367188 Z M 273.539062 225.082031 L 262.984375 225.082031 C 263.171875 224.664062 263.285156 224.199219 263.285156 223.703125 C 263.285156 208.675781 253.917969 195.8125 240.71875 190.589844 C 246.179688 186.558594 249.746094 180.109375 249.746094 172.820312 C 249.746094 160.632812 239.832031 150.730469 227.65625 150.730469 C 215.464844 150.730469 205.5625 160.632812 205.5625 172.820312 C 205.5625 180.109375 209.128906 186.558594 214.582031 190.589844 C 201.394531 195.8125 192.015625 208.675781 192.015625 223.703125 C 192.015625 224.199219 192.128906 224.664062 192.320312 225.082031 L 181.761719 225.082031 L 181.761719 142.207031 L 273.539062 142.207031 Z M 212.390625 172.820312 C 212.390625 164.410156 219.242188 157.558594 227.65625 157.558594 C 236.066406 157.558594 242.914062 164.410156 242.914062 172.820312 C 242.914062 181.230469 236.066406 188.070312 227.65625 188.070312 C 219.242188 188.070312 212.390625 181.230469 212.390625 172.820312 Z M 198.546875 225.082031 C 198.742188 224.664062 198.855469 224.199219 198.855469 223.703125 C 198.855469 207.824219 211.773438 194.910156 227.65625 194.910156 C 243.527344 194.910156 256.457031 207.824219 256.457031 223.703125 C 256.457031 224.199219 256.570312 224.664062 256.753906 225.082031 Z M 276.957031 135.367188 L 178.34375 135.367188 C 176.453125 135.367188 174.929688 136.894531 174.929688 138.785156 L 174.929688 228.5 C 174.929688 230.394531 176.453125 231.925781 178.34375 231.925781 L 276.957031 231.925781 C 278.84375 231.925781 280.382812 230.394531 280.382812 228.5 L 280.382812 138.785156 C 280.382812 136.894531 278.84375 135.367188 276.957031 135.367188 Z M 154.609375 143.636719 L 57.199219 143.636719 C 55.3125 143.636719 53.777344 145.167969 53.777344 147.050781 C 53.777344 148.941406 55.3125 150.476562 57.199219 150.476562 L 154.609375 150.476562 C 156.496094 150.476562 158.03125 148.941406 158.03125 147.050781 C 158.03125 145.167969 156.496094 143.636719 154.609375 143.636719 Z M 129.121094 168.027344 L 57.199219 168.027344 C 55.3125 168.027344 53.777344 169.5625 53.777344 171.449219 C 53.777344 173.339844 55.3125 174.867188 57.199219 174.867188 L 129.121094 174.867188 C 131.007812 174.867188 132.535156 173.339844 132.535156 171.449219 C 132.535156 169.5625 131.007812 168.027344 129.121094 168.027344 Z M 127.777344 216.8125 L 57.199219 216.8125 C 55.3125 216.8125 53.777344 218.339844 53.777344 220.230469 C 53.777344 222.125 55.3125 223.652344 57.199219 223.652344 L 127.777344 223.652344 C 129.664062 223.652344 131.195312 222.125 131.195312 220.230469 C 131.195312 218.339844 129.664062 216.8125 127.777344 216.8125 Z M 96.921875 192.425781 L 57.199219 192.425781 C 55.3125 192.425781 53.777344 193.953125 53.777344 195.839844 C 53.777344 197.726562 55.3125 199.253906 57.199219 199.253906 L 96.921875 199.253906 C 98.804688 199.253906 100.339844 197.726562 100.339844 195.839844 C 100.339844 193.953125 98.804688 192.425781 96.921875 192.425781 Z M 96.921875 192.425781 L 57.199219 192.425781 C 55.3125 192.425781 53.777344 193.953125 53.777344 195.839844 C 53.777344 197.726562 55.3125 199.253906 57.199219 199.253906 L 96.921875 199.253906 C 98.804688 199.253906 100.339844 197.726562 100.339844 195.839844 C 100.339844 193.953125 98.804688 192.425781 96.921875 192.425781 Z M 127.777344 216.8125 L 57.199219 216.8125 C 55.3125 216.8125 53.777344 218.339844 53.777344 220.230469 C 53.777344 222.125 55.3125 223.652344 57.199219 223.652344 L 127.777344 223.652344 C 129.664062 223.652344 131.195312 222.125 131.195312 220.230469 C 131.195312 218.339844 129.664062 216.8125 127.777344 216.8125 Z M 129.121094 168.027344 L 57.199219 168.027344 C 55.3125 168.027344 53.777344 169.5625 53.777344 171.449219 C 53.777344 173.339844 55.3125 174.867188 57.199219 174.867188 L 129.121094 174.867188 C 131.007812 174.867188 132.535156 173.339844 132.535156 171.449219 C 132.535156 169.5625 131.007812 168.027344 129.121094 168.027344 Z M 154.609375 143.636719 L 57.199219 143.636719 C 55.3125 143.636719 53.777344 145.167969 53.777344 147.050781 C 53.777344 148.941406 55.3125 150.476562 57.199219 150.476562 L 154.609375 150.476562 C 156.496094 150.476562 158.03125 148.941406 158.03125 147.050781 C 158.03125 145.167969 156.496094 143.636719 154.609375 143.636719 Z M 273.539062 225.082031 L 262.984375 225.082031 C 263.171875 224.664062 263.285156 224.199219 263.285156 223.703125 C 263.285156 208.675781 253.917969 195.8125 240.71875 190.589844 C 246.179688 186.558594 249.746094 180.109375 249.746094 172.820312 C 249.746094 160.632812 239.832031 150.730469 227.65625 150.730469 C 215.464844 150.730469 205.5625 160.632812 205.5625 172.820312 C 205.5625 180.109375 209.128906 186.558594 214.582031 190.589844 C 201.394531 195.8125 192.015625 208.675781 192.015625 223.703125 C 192.015625 224.199219 192.128906 224.664062 192.320312 225.082031 L 181.761719 225.082031 L 181.761719 142.207031 L 273.539062 142.207031 Z M 212.390625 172.820312 C 212.390625 164.410156 219.242188 157.558594 227.65625 157.558594 C 236.066406 157.558594 242.914062 164.410156 242.914062 172.820312 C 242.914062 181.230469 236.066406 188.070312 227.65625 188.070312 C 219.242188 188.070312 212.390625 181.230469 212.390625 172.820312 Z M 198.546875 225.082031 C 198.742188 224.664062 198.855469 224.199219 198.855469 223.703125 C 198.855469 207.824219 211.773438 194.910156 227.65625 194.910156 C 243.527344 194.910156 256.457031 207.824219 256.457031 223.703125 C 256.457031 224.199219 256.570312 224.664062 256.753906 225.082031 Z M 276.957031 135.367188 L 178.34375 135.367188 C 176.453125 135.367188 174.929688 136.894531 174.929688 138.785156 L 174.929688 228.5 C 174.929688 230.394531 176.453125 231.925781 178.34375 231.925781 L 276.957031 231.925781 C 278.84375 231.925781 280.382812 230.394531 280.382812 228.5 L 280.382812 138.785156 C 280.382812 136.894531 278.84375 135.367188 276.957031 135.367188 Z M 273.539062 225.082031 L 262.984375 225.082031 C 263.171875 224.664062 263.285156 224.199219 263.285156 223.703125 C 263.285156 208.675781 253.917969 195.8125 240.71875 190.589844 C 246.179688 186.558594 249.746094 180.109375 249.746094 172.820312 C 249.746094 160.632812 239.832031 150.730469 227.65625 150.730469 C 215.464844 150.730469 205.5625 160.632812 205.5625 172.820312 C 205.5625 180.109375 209.128906 186.558594 214.582031 190.589844 C 201.394531 195.8125 192.015625 208.675781 192.015625 223.703125 C 192.015625 224.199219 192.128906 224.664062 192.320312 225.082031 L 181.761719 225.082031 L 181.761719 142.207031 L 273.539062 142.207031 Z M 212.390625 172.820312 C 212.390625 164.410156 219.242188 157.558594 227.65625 157.558594 C 236.066406 157.558594 242.914062 164.410156 242.914062 172.820312 C 242.914062 181.230469 236.066406 188.070312 227.65625 188.070312 C 219.242188 188.070312 212.390625 181.230469 212.390625 172.820312 Z M 198.546875 225.082031 C 198.742188 224.664062 198.855469 224.199219 198.855469 223.703125 C 198.855469 207.824219 211.773438 194.910156 227.65625 194.910156 C 243.527344 194.910156 256.457031 207.824219 256.457031 223.703125 C 256.457031 224.199219 256.570312 224.664062 256.753906 225.082031 Z M 276.957031 135.367188 L 178.34375 135.367188 C 176.453125 135.367188 174.929688 136.894531 174.929688 138.785156 L 174.929688 228.5 C 174.929688 230.394531 176.453125 231.925781 178.34375 231.925781 L 276.957031 231.925781 C 278.84375 231.925781 280.382812 230.394531 280.382812 228.5 L 280.382812 138.785156 C 280.382812 136.894531 278.84375 135.367188 276.957031 135.367188 Z M 154.609375 143.636719 L 57.199219 143.636719 C 55.3125 143.636719 53.777344 145.167969 53.777344 147.050781 C 53.777344 148.941406 55.3125 150.476562 57.199219 150.476562 L 154.609375 150.476562 C 156.496094 150.476562 158.03125 148.941406 158.03125 147.050781 C 158.03125 145.167969 156.496094 143.636719 154.609375 143.636719 Z M 129.121094 168.027344 L 57.199219 168.027344 C 55.3125 168.027344 53.777344 169.5625 53.777344 171.449219 C 53.777344 173.339844 55.3125 174.867188 57.199219 174.867188 L 129.121094 174.867188 C 131.007812 174.867188 132.535156 173.339844 132.535156 171.449219 C 132.535156 169.5625 131.007812 168.027344 129.121094 168.027344 Z M 127.777344 216.8125 L 57.199219 216.8125 C 55.3125 216.8125 53.777344 218.339844 53.777344 220.230469 C 53.777344 222.125 55.3125 223.652344 57.199219 223.652344 L 127.777344 223.652344 C 129.664062 223.652344 131.195312 222.125 131.195312 220.230469 C 131.195312 218.339844 129.664062 216.8125 127.777344 216.8125 Z M 96.921875 192.425781 L 57.199219 192.425781 C 55.3125 192.425781 53.777344 193.953125 53.777344 195.839844 C 53.777344 197.726562 55.3125 199.253906 57.199219 199.253906 L 96.921875 199.253906 C 98.804688 199.253906 100.339844 197.726562 100.339844 195.839844 C 100.339844 193.953125 98.804688 192.425781 96.921875 192.425781 Z M 127.777344 216.8125 L 57.199219 216.8125 C 55.3125 216.8125 53.777344 218.339844 53.777344 220.230469 C 53.777344 222.125 55.3125 223.652344 57.199219 223.652344 L 127.777344 223.652344 C 129.664062 223.652344 131.195312 222.125 131.195312 220.230469 C 131.195312 218.339844 129.664062 216.8125 127.777344 216.8125 Z M 96.921875 192.425781 L 57.199219 192.425781 C 55.3125 192.425781 53.777344 193.953125 53.777344 195.839844 C 53.777344 197.726562 55.3125 199.253906 57.199219 199.253906 L 96.921875 199.253906 C 98.804688 199.253906 100.339844 197.726562 100.339844 195.839844 C 100.339844 193.953125 98.804688 192.425781 96.921875 192.425781 Z M 129.121094 168.027344 L 57.199219 168.027344 C 55.3125 168.027344 53.777344 169.5625 53.777344 171.449219 C 53.777344 173.339844 55.3125 174.867188 57.199219 174.867188 L 129.121094 174.867188 C 131.007812 174.867188 132.535156 173.339844 132.535156 171.449219 C 132.535156 169.5625 131.007812 168.027344 129.121094 168.027344 Z M 154.609375 143.636719 L 57.199219 143.636719 C 55.3125 143.636719 53.777344 145.167969 53.777344 147.050781 C 53.777344 148.941406 55.3125 150.476562 57.199219 150.476562 L 154.609375 150.476562 C 156.496094 150.476562 158.03125 148.941406 158.03125 147.050781 C 158.03125 145.167969 156.496094 143.636719 154.609375 143.636719 " fill-opacity="1" fill-rule="nonzero"/></g><path fill="#8ed7ee" d="M 280.382812 138.785156 C 280.382812 136.894531 278.84375 135.367188 276.957031 135.367188 L 178.34375 135.367188 C 176.453125 135.367188 174.929688 136.894531 174.929688 138.785156 L 174.929688 228.5 C 174.929688 230.394531 176.453125 231.925781 178.34375 231.925781 L 276.957031 231.925781 C 278.84375 231.925781 280.382812 230.394531 280.382812 228.5 Z M 158.03125 147.050781 C 158.03125 145.167969 156.496094 143.636719 154.609375 143.636719 L 57.199219 143.636719 C 55.3125 143.636719 53.777344 145.167969 53.777344 147.050781 C 53.777344 148.941406 55.3125 150.476562 57.199219 150.476562 L 154.609375 150.476562 C 156.496094 150.476562 158.03125 148.941406 158.03125 147.050781 Z M 132.535156 171.449219 C 132.535156 169.5625 131.007812 168.027344 129.121094 168.027344 L 57.199219 168.027344 C 55.3125 168.027344 53.777344 169.5625 53.777344 171.449219 C 53.777344 173.339844 55.3125 174.867188 57.199219 174.867188 L 129.121094 174.867188 C 131.007812 174.867188 132.535156 173.339844 132.535156 171.449219 Z M 57.199219 199.253906 L 96.921875 199.253906 C 98.804688 199.253906 100.339844 197.726562 100.339844 195.839844 C 100.339844 193.953125 98.804688 192.425781 96.921875 192.425781 L 57.199219 192.425781 C 55.3125 192.425781 53.777344 193.953125 53.777344 195.839844 C 53.777344 197.726562 55.3125 199.253906 57.199219 199.253906 Z M 131.195312 220.230469 C 131.195312 218.339844 129.664062 216.8125 127.777344 216.8125 L 57.199219 216.8125 C 55.3125 216.8125 53.777344 218.339844 53.777344 220.230469 C 53.777344 222.125 55.3125 223.652344 57.199219 223.652344 L 127.777344 223.652344 C 129.664062 223.652344 131.195312 222.125 131.195312 220.230469 Z M 299.214844 137.175781 L 299.214844 268.234375 L 20.613281 268.234375 L 20.613281 137.175781 C 20.613281 126.34375 29.421875 117.527344 40.253906 117.527344 L 279.574219 117.527344 C 290.40625 117.527344 299.214844 126.34375 299.214844 137.175781 Z M 297.265625 117.527344 C 302.648438 122.382812 306.054688 129.378906 306.054688 137.175781 L 306.054688 242.386719 L 319.574219 242.386719 C 330.410156 242.386719 339.21875 233.574219 339.21875 222.742188 L 339.21875 117.527344 Z M 339.21875 71.363281 L 339.21875 74.375 L 60.613281 74.375 L 60.613281 71.363281 C 60.613281 60.53125 69.433594 51.726562 80.257812 51.726562 L 319.574219 51.726562 C 330.410156 51.726562 339.21875 60.53125 339.21875 71.363281 " fill-opacity="1" fill-rule="nonzero"/><path fill="#f1f1f2" d="M 273.539062 142.207031 L 273.539062 225.082031 L 262.984375 225.082031 C 263.171875 224.664062 263.285156 224.199219 263.285156 223.703125 C 263.285156 208.675781 253.917969 195.8125 240.71875 190.589844 C 246.179688 186.558594 249.746094 180.109375 249.746094 172.820312 C 249.746094 160.632812 239.832031 150.730469 227.65625 150.730469 C 215.464844 150.730469 205.5625 160.632812 205.5625 172.820312 C 205.5625 180.109375 209.128906 186.558594 214.582031 190.589844 C 201.394531 195.8125 192.015625 208.675781 192.015625 223.703125 C 192.015625 224.199219 192.128906 224.664062 192.320312 225.082031 L 181.761719 225.082031 L 181.761719 142.207031 L 273.539062 142.207031 " fill-opacity="1" fill-rule="nonzero"/><path fill="#4fc0e5" d="M 20.613281 275.0625 L 20.613281 288.550781 C 20.613281 299.386719 29.421875 308.1875 40.253906 308.1875 L 279.574219 308.1875 C 290.40625 308.1875 299.214844 299.386719 299.214844 288.550781 L 299.214844 275.0625 Z M 227.65625 157.558594 C 219.242188 157.558594 212.390625 164.410156 212.390625 172.820312 C 212.390625 181.230469 219.242188 188.070312 227.65625 188.070312 C 236.066406 188.070312 242.914062 181.230469 242.914062 172.820312 C 242.914062 164.410156 236.066406 157.558594 227.65625 157.558594 Z M 256.753906 225.082031 L 198.546875 225.082031 C 198.742188 224.664062 198.855469 224.199219 198.855469 223.703125 C 198.855469 207.824219 211.773438 194.910156 227.65625 194.910156 C 243.527344 194.910156 256.457031 207.824219 256.457031 223.703125 C 256.457031 224.199219 256.570312 224.664062 256.753906 225.082031 " fill-opacity="1" fill-rule="nonzero"/><path fill="#80848d" d="M 339.21875 81.21875 L 339.21875 110.695312 L 60.613281 110.695312 L 60.613281 81.21875 L 339.21875 81.21875 " fill-opacity="1" fill-rule="nonzero"/></svg>