<svg xmlns="http://www.w3.org/2000/svg" xmlns:xlink="http://www.w3.org/1999/xlink" width="480" zoomAndPan="magnify" viewBox="0 0 360 359.999987" height="480" preserveAspectRatio="xMidYMid meet" version="1.0"><defs><clipPath id="9966293f4a"><path d="M 9.773438 190 L 350.273438 190 L 350.273438 350.273438 L 9.773438 350.273438 Z M 9.773438 190 " clip-rule="nonzero"/></clipPath><clipPath id="40848703cb"><path d="M 99 9.773438 L 261 9.773438 L 261 171 L 99 171 Z M 99 9.773438 " clip-rule="nonzero"/></clipPath></defs><path fill="#00e1f7" d="M 74.871094 285.179688 C 44.453125 285.179688 19.789062 309.839844 19.789062 340.257812 L 109.921875 340.257812 L 118.492188 306.636719 C 108.425781 293.585938 92.628906 285.179688 74.871094 285.179688 Z M 74.871094 285.179688 " fill-opacity="1" fill-rule="nonzero"/><path fill="#00e1f7" d="M 285.179688 285.179688 C 267.417969 285.179688 251.621094 293.585938 241.554688 306.636719 L 250.128906 340.257812 L 340.257812 340.257812 C 340.257812 309.839844 315.597656 285.179688 285.179688 285.179688 Z M 285.179688 285.179688 " fill-opacity="1" fill-rule="nonzero"/><path fill="#0e5384" d="M 312.71875 257.636719 C 312.71875 258.539062 312.675781 259.441406 312.585938 260.335938 C 312.496094 261.234375 312.367188 262.125 312.191406 263.011719 C 312.015625 263.894531 311.796875 264.769531 311.53125 265.632812 C 311.269531 266.496094 310.96875 267.34375 310.621094 268.175781 C 310.277344 269.011719 309.890625 269.824219 309.46875 270.621094 C 309.042969 271.417969 308.578125 272.1875 308.078125 272.9375 C 307.578125 273.6875 307.039062 274.414062 306.46875 275.109375 C 305.894531 275.808594 305.289062 276.472656 304.652344 277.113281 C 304.015625 277.75 303.347656 278.355469 302.648438 278.925781 C 301.953125 279.5 301.230469 280.035156 300.480469 280.539062 C 299.730469 281.039062 298.957031 281.5 298.160156 281.925781 C 297.367188 282.351562 296.550781 282.738281 295.71875 283.082031 C 294.882812 283.425781 294.035156 283.730469 293.171875 283.992188 C 292.308594 284.253906 291.4375 284.472656 290.550781 284.648438 C 289.667969 284.824219 288.777344 284.957031 287.878906 285.046875 C 286.980469 285.132812 286.082031 285.179688 285.179688 285.179688 C 284.277344 285.179688 283.375 285.132812 282.480469 285.046875 C 281.582031 284.957031 280.691406 284.824219 279.804688 284.648438 C 278.921875 284.472656 278.046875 284.253906 277.183594 283.992188 C 276.320312 283.730469 275.472656 283.425781 274.640625 283.082031 C 273.804688 282.738281 272.992188 282.351562 272.195312 281.925781 C 271.402344 281.5 270.628906 281.039062 269.878906 280.539062 C 269.128906 280.035156 268.40625 279.5 267.707031 278.925781 C 267.011719 278.355469 266.34375 277.75 265.703125 277.113281 C 265.066406 276.472656 264.460938 275.808594 263.890625 275.109375 C 263.316406 274.414062 262.78125 273.6875 262.28125 272.9375 C 261.777344 272.1875 261.316406 271.417969 260.890625 270.621094 C 260.464844 269.824219 260.078125 269.011719 259.734375 268.175781 C 259.390625 267.34375 259.085938 266.496094 258.824219 265.632812 C 258.5625 264.769531 258.34375 263.894531 258.167969 263.011719 C 257.992188 262.125 257.859375 261.234375 257.769531 260.335938 C 257.683594 259.441406 257.636719 258.539062 257.636719 257.636719 C 257.636719 256.734375 257.683594 255.835938 257.769531 254.9375 C 257.859375 254.042969 257.992188 253.148438 258.167969 252.265625 C 258.34375 251.378906 258.5625 250.507812 258.824219 249.644531 C 259.085938 248.78125 259.390625 247.933594 259.734375 247.097656 C 260.078125 246.265625 260.464844 245.449219 260.890625 244.65625 C 261.316406 243.859375 261.777344 243.085938 262.28125 242.335938 C 262.78125 241.585938 263.316406 240.863281 263.890625 240.167969 C 264.460938 239.46875 265.066406 238.800781 265.703125 238.164062 C 266.34375 237.527344 267.011719 236.921875 267.707031 236.347656 C 268.40625 235.777344 269.128906 235.238281 269.878906 234.738281 C 270.628906 234.238281 271.402344 233.773438 272.195312 233.351562 C 272.992188 232.925781 273.804688 232.539062 274.640625 232.195312 C 275.472656 231.847656 276.320312 231.546875 277.183594 231.285156 C 278.046875 231.023438 278.921875 230.804688 279.804688 230.625 C 280.691406 230.449219 281.582031 230.320312 282.480469 230.230469 C 283.375 230.140625 284.277344 230.097656 285.179688 230.097656 C 286.082031 230.097656 286.980469 230.140625 287.878906 230.230469 C 288.777344 230.320312 289.667969 230.449219 290.550781 230.625 C 291.4375 230.804688 292.308594 231.023438 293.171875 231.285156 C 294.035156 231.546875 294.882812 231.847656 295.71875 232.195312 C 296.550781 232.539062 297.367188 232.925781 298.160156 233.351562 C 298.957031 233.773438 299.730469 234.238281 300.480469 234.738281 C 301.230469 235.238281 301.953125 235.777344 302.648438 236.347656 C 303.347656 236.921875 304.015625 237.527344 304.652344 238.164062 C 305.289062 238.800781 305.894531 239.46875 306.46875 240.167969 C 307.039062 240.863281 307.578125 241.585938 308.078125 242.335938 C 308.578125 243.085938 309.042969 243.859375 309.46875 244.65625 C 309.890625 245.449219 310.277344 246.265625 310.621094 247.097656 C 310.96875 247.933594 311.269531 248.78125 311.53125 249.644531 C 311.796875 250.507812 312.015625 251.378906 312.191406 252.265625 C 312.367188 253.148438 312.496094 254.042969 312.585938 254.9375 C 312.675781 255.835938 312.71875 256.734375 312.71875 257.636719 Z M 312.71875 257.636719 " fill-opacity="1" fill-rule="nonzero"/><path fill="#00c7e8" d="M 250.128906 340.257812 L 109.921875 340.257812 C 109.921875 301.316406 141.53125 270.15625 180.023438 270.15625 C 218.539062 270.15625 250.128906 301.351562 250.128906 340.257812 Z M 250.128906 340.257812 " fill-opacity="1" fill-rule="nonzero"/><path fill="#01e68e" d="M 250.128906 89.890625 C 250.128906 91.039062 250.097656 92.1875 250.042969 93.332031 C 249.988281 94.476562 249.902344 95.621094 249.789062 96.761719 C 249.675781 97.90625 249.535156 99.042969 249.367188 100.179688 C 249.199219 101.3125 249.003906 102.441406 248.78125 103.566406 C 248.554688 104.695312 248.304688 105.8125 248.027344 106.925781 C 247.746094 108.039062 247.441406 109.144531 247.109375 110.242188 C 246.777344 111.339844 246.414062 112.429688 246.027344 113.507812 C 245.644531 114.589844 245.230469 115.660156 244.789062 116.71875 C 244.351562 117.777344 243.886719 118.828125 243.394531 119.863281 C 242.90625 120.902344 242.390625 121.925781 241.847656 122.9375 C 241.308594 123.949219 240.742188 124.949219 240.152344 125.933594 C 239.5625 126.914062 238.949219 127.886719 238.3125 128.839844 C 237.675781 129.792969 237.015625 130.730469 236.332031 131.652344 C 235.648438 132.574219 234.941406 133.476562 234.214844 134.363281 C 233.488281 135.25 232.738281 136.121094 231.96875 136.96875 C 231.195312 137.820312 230.40625 138.652344 229.59375 139.460938 C 228.78125 140.273438 227.953125 141.0625 227.101562 141.835938 C 226.253906 142.605469 225.382812 143.355469 224.496094 144.082031 C 223.609375 144.808594 222.707031 145.515625 221.785156 146.199219 C 220.863281 146.882812 219.925781 147.542969 218.972656 148.179688 C 218.015625 148.816406 217.046875 149.429688 216.0625 150.019531 C 215.082031 150.609375 214.082031 151.175781 213.070312 151.71875 C 212.058594 152.257812 211.035156 152.773438 209.996094 153.265625 C 208.960938 153.753906 207.910156 154.21875 206.851562 154.660156 C 205.792969 155.097656 204.722656 155.511719 203.640625 155.898438 C 202.5625 156.285156 201.472656 156.644531 200.375 156.976562 C 199.277344 157.308594 198.171875 157.613281 197.058594 157.894531 C 195.945312 158.171875 194.824219 158.425781 193.699219 158.648438 C 192.574219 158.871094 191.445312 159.066406 190.308594 159.234375 C 189.175781 159.40625 188.039062 159.542969 186.894531 159.65625 C 185.753906 159.769531 184.609375 159.855469 183.464844 159.910156 C 182.316406 159.964844 181.171875 159.996094 180.023438 159.996094 C 178.875 159.996094 177.730469 159.964844 176.585938 159.910156 C 175.4375 159.855469 174.292969 159.769531 173.152344 159.65625 C 172.011719 159.542969 170.871094 159.40625 169.738281 159.234375 C 168.601562 159.066406 167.472656 158.871094 166.347656 158.648438 C 165.222656 158.425781 164.101562 158.171875 162.992188 157.894531 C 161.878906 157.613281 160.773438 157.308594 159.675781 156.976562 C 158.578125 156.644531 157.488281 156.285156 156.40625 155.898438 C 155.328125 155.511719 154.257812 155.097656 153.195312 154.660156 C 152.136719 154.21875 151.089844 153.753906 150.050781 153.265625 C 149.015625 152.773438 147.988281 152.257812 146.976562 151.71875 C 145.964844 151.175781 144.96875 150.609375 143.984375 150.019531 C 143 149.429688 142.03125 148.816406 141.078125 148.179688 C 140.125 147.542969 139.183594 146.882812 138.265625 146.199219 C 137.34375 145.515625 136.4375 144.808594 135.550781 144.082031 C 134.664062 143.355469 133.796875 142.605469 132.945312 141.835938 C 132.097656 141.0625 131.265625 140.273438 130.453125 139.460938 C 129.644531 138.652344 128.851562 137.820312 128.082031 136.96875 C 127.3125 136.121094 126.5625 135.25 125.832031 134.363281 C 125.105469 133.476562 124.402344 132.574219 123.71875 131.652344 C 123.035156 130.730469 122.375 129.792969 121.734375 128.839844 C 121.097656 127.886719 120.484375 126.914062 119.894531 125.933594 C 119.304688 124.949219 118.738281 123.949219 118.199219 122.9375 C 117.65625 121.925781 117.140625 120.902344 116.652344 119.863281 C 116.160156 118.828125 115.695312 117.777344 115.257812 116.71875 C 114.820312 115.660156 114.40625 114.589844 114.019531 113.507812 C 113.632812 112.429688 113.273438 111.339844 112.941406 110.242188 C 112.605469 109.144531 112.300781 108.039062 112.023438 106.925781 C 111.742188 105.8125 111.492188 104.695312 111.269531 103.566406 C 111.042969 102.441406 110.847656 101.3125 110.679688 100.179688 C 110.511719 99.042969 110.371094 97.90625 110.257812 96.761719 C 110.144531 95.621094 110.0625 94.476562 110.003906 93.332031 C 109.949219 92.1875 109.921875 91.039062 109.921875 89.890625 C 109.921875 88.746094 109.949219 87.597656 110.003906 86.453125 C 110.0625 85.304688 110.144531 84.164062 110.257812 83.019531 C 110.371094 81.878906 110.511719 80.742188 110.679688 79.605469 C 110.847656 78.472656 111.042969 77.339844 111.269531 76.214844 C 111.492188 75.089844 111.742188 73.972656 112.023438 72.859375 C 112.300781 71.746094 112.605469 70.640625 112.941406 69.542969 C 113.273438 68.445312 113.632812 67.355469 114.019531 66.273438 C 114.40625 65.195312 114.820312 64.125 115.257812 63.066406 C 115.695312 62.003906 116.160156 60.957031 116.652344 59.917969 C 117.140625 58.882812 117.65625 57.855469 118.199219 56.84375 C 118.738281 55.832031 119.304688 54.835938 119.894531 53.851562 C 120.484375 52.867188 121.097656 51.898438 121.734375 50.945312 C 122.375 49.992188 123.035156 49.054688 123.71875 48.132812 C 124.402344 47.210938 125.105469 46.304688 125.832031 45.417969 C 126.5625 44.53125 127.3125 43.664062 128.082031 42.8125 C 128.851562 41.964844 129.644531 41.132812 130.453125 40.320312 C 131.265625 39.511719 132.097656 38.71875 132.945312 37.949219 C 133.796875 37.179688 134.664062 36.429688 135.550781 35.703125 C 136.4375 34.972656 137.34375 34.269531 138.265625 33.585938 C 139.183594 32.902344 140.125 32.242188 141.078125 31.601562 C 142.03125 30.964844 143 30.351562 143.984375 29.761719 C 144.96875 29.171875 145.964844 28.605469 146.976562 28.066406 C 147.988281 27.527344 149.015625 27.011719 150.050781 26.519531 C 151.089844 26.027344 152.136719 25.5625 153.195312 25.125 C 154.257812 24.6875 155.328125 24.273438 156.40625 23.886719 C 157.488281 23.5 158.578125 23.140625 159.675781 22.808594 C 160.773438 22.472656 161.878906 22.167969 162.992188 21.890625 C 164.101562 21.609375 165.222656 21.359375 166.347656 21.136719 C 167.472656 20.910156 168.601562 20.714844 169.738281 20.546875 C 170.871094 20.378906 172.011719 20.238281 173.152344 20.125 C 174.292969 20.015625 175.4375 19.929688 176.585938 19.875 C 177.730469 19.816406 178.875 19.789062 180.023438 19.789062 C 181.171875 19.789062 182.316406 19.816406 183.464844 19.875 C 184.609375 19.929688 185.753906 20.015625 186.894531 20.125 C 188.039062 20.238281 189.175781 20.378906 190.308594 20.546875 C 191.445312 20.714844 192.574219 20.910156 193.699219 21.136719 C 194.824219 21.359375 195.945312 21.609375 197.058594 21.890625 C 198.171875 22.167969 199.277344 22.472656 200.375 22.808594 C 201.472656 23.140625 202.5625 23.5 203.640625 23.886719 C 204.722656 24.273438 205.792969 24.6875 206.851562 25.125 C 207.910156 25.5625 208.960938 26.027344 209.996094 26.519531 C 211.035156 27.011719 212.058594 27.527344 213.070312 28.066406 C 214.082031 28.605469 215.082031 29.171875 216.0625 29.761719 C 217.046875 30.351562 218.015625 30.964844 218.972656 31.601562 C 219.925781 32.242188 220.863281 32.902344 221.785156 33.585938 C 222.707031 34.269531 223.609375 34.972656 224.496094 35.703125 C 225.382812 36.429688 226.253906 37.179688 227.101562 37.949219 C 227.953125 38.71875 228.78125 39.511719 229.59375 40.320312 C 230.40625 41.132812 231.195312 41.964844 231.96875 42.8125 C 232.738281 43.664062 233.488281 44.53125 234.214844 45.417969 C 234.941406 46.304688 235.648438 47.210938 236.332031 48.132812 C 237.015625 49.054688 237.675781 49.992188 238.3125 50.945312 C 238.949219 51.898438 239.5625 52.867188 240.152344 53.851562 C 240.742188 54.835938 241.308594 55.832031 241.847656 56.84375 C 242.390625 57.855469 242.90625 58.882812 243.394531 59.917969 C 243.886719 60.957031 244.351562 62.003906 244.789062 63.066406 C 245.230469 64.125 245.644531 65.195312 246.027344 66.273438 C 246.414062 67.355469 246.777344 68.445312 247.109375 69.542969 C 247.441406 70.640625 247.746094 71.746094 248.027344 72.859375 C 248.304688 73.972656 248.554688 75.089844 248.78125 76.214844 C 249.003906 77.339844 249.199219 78.472656 249.367188 79.605469 C 249.535156 80.742188 249.675781 81.878906 249.789062 83.019531 C 249.902344 84.164062 249.988281 85.304688 250.042969 86.453125 C 250.097656 87.597656 250.128906 88.746094 250.128906 89.890625 Z M 250.128906 89.890625 " fill-opacity="1" fill-rule="nonzero"/><path fill="#0e5384" d="M 215.074219 235.105469 C 215.074219 236.253906 215.019531 237.398438 214.90625 238.539062 C 214.792969 239.683594 214.625 240.816406 214.402344 241.941406 C 214.179688 243.070312 213.898438 244.179688 213.566406 245.28125 C 213.234375 246.378906 212.847656 247.457031 212.40625 248.519531 C 211.96875 249.578125 211.476562 250.617188 210.9375 251.628906 C 210.394531 252.640625 209.804688 253.625 209.167969 254.578125 C 208.53125 255.53125 207.847656 256.453125 207.121094 257.339844 C 206.390625 258.230469 205.621094 259.078125 204.808594 259.890625 C 203.996094 260.703125 203.148438 261.472656 202.261719 262.199219 C 201.375 262.929688 200.453125 263.613281 199.496094 264.25 C 198.542969 264.886719 197.558594 265.476562 196.546875 266.019531 C 195.535156 266.558594 194.5 267.050781 193.4375 267.488281 C 192.378906 267.925781 191.296875 268.3125 190.199219 268.648438 C 189.101562 268.980469 187.988281 269.257812 186.863281 269.484375 C 185.738281 269.707031 184.601562 269.875 183.460938 269.988281 C 182.316406 270.101562 181.171875 270.15625 180.023438 270.15625 C 178.875 270.15625 177.730469 270.101562 176.589844 269.988281 C 175.445312 269.875 174.3125 269.707031 173.1875 269.484375 C 172.058594 269.257812 170.949219 268.980469 169.847656 268.648438 C 168.75 268.3125 167.671875 267.925781 166.609375 267.488281 C 165.550781 267.050781 164.511719 266.558594 163.5 266.019531 C 162.488281 265.476562 161.503906 264.886719 160.550781 264.25 C 159.597656 263.613281 158.675781 262.929688 157.789062 262.199219 C 156.898438 261.472656 156.050781 260.703125 155.238281 259.890625 C 154.425781 259.078125 153.65625 258.230469 152.929688 257.339844 C 152.199219 256.453125 151.519531 255.53125 150.878906 254.578125 C 150.242188 253.625 149.652344 252.640625 149.113281 251.628906 C 148.570312 250.617188 148.082031 249.578125 147.640625 248.519531 C 147.203125 247.457031 146.816406 246.378906 146.480469 245.28125 C 146.148438 244.179688 145.871094 243.070312 145.644531 241.941406 C 145.421875 240.816406 145.253906 239.683594 145.140625 238.539062 C 145.027344 237.398438 144.972656 236.253906 144.972656 235.105469 C 144.972656 233.957031 145.027344 232.8125 145.140625 231.667969 C 145.253906 230.527344 145.421875 229.394531 145.644531 228.265625 C 145.871094 227.140625 146.148438 226.027344 146.480469 224.929688 C 146.816406 223.832031 147.203125 222.753906 147.640625 221.691406 C 148.082031 220.632812 148.570312 219.59375 149.113281 218.582031 C 149.652344 217.570312 150.242188 216.585938 150.878906 215.632812 C 151.519531 214.675781 152.199219 213.757812 152.929688 212.867188 C 153.65625 211.980469 154.425781 211.132812 155.238281 210.320312 C 156.050781 209.507812 156.898438 208.738281 157.789062 208.011719 C 158.675781 207.28125 159.597656 206.597656 160.550781 205.960938 C 161.503906 205.324219 162.488281 204.734375 163.5 204.191406 C 164.511719 203.652344 165.550781 203.160156 166.609375 202.722656 C 167.671875 202.28125 168.75 201.894531 169.847656 201.5625 C 170.949219 201.230469 172.058594 200.949219 173.1875 200.726562 C 174.3125 200.503906 175.445312 200.335938 176.589844 200.222656 C 177.730469 200.109375 178.875 200.054688 180.023438 200.054688 C 181.171875 200.054688 182.316406 200.109375 183.460938 200.222656 C 184.601562 200.335938 185.738281 200.503906 186.863281 200.726562 C 187.988281 200.949219 189.101562 201.230469 190.199219 201.5625 C 191.296875 201.894531 192.378906 202.28125 193.4375 202.722656 C 194.5 203.160156 195.535156 203.652344 196.546875 204.191406 C 197.558594 204.734375 198.542969 205.324219 199.496094 205.960938 C 200.453125 206.597656 201.375 207.28125 202.261719 208.011719 C 203.148438 208.738281 203.996094 209.507812 204.808594 210.320312 C 205.621094 211.132812 206.390625 211.980469 207.121094 212.867188 C 207.847656 213.757812 208.53125 214.675781 209.167969 215.632812 C 209.804688 216.585938 210.394531 217.570312 210.9375 218.582031 C 211.476562 219.59375 211.96875 220.632812 212.40625 221.691406 C 212.847656 222.753906 213.234375 223.832031 213.566406 224.929688 C 213.898438 226.027344 214.179688 227.140625 214.402344 228.265625 C 214.625 229.394531 214.792969 230.527344 214.90625 231.667969 C 215.019531 232.8125 215.074219 233.957031 215.074219 235.105469 Z M 215.074219 235.105469 " fill-opacity="1" fill-rule="nonzero"/><path fill="#0e5384" d="M 102.410156 257.636719 C 102.410156 258.539062 102.367188 259.441406 102.277344 260.335938 C 102.1875 261.234375 102.058594 262.125 101.882812 263.011719 C 101.703125 263.894531 101.484375 264.769531 101.222656 265.632812 C 100.960938 266.496094 100.660156 267.34375 100.3125 268.175781 C 99.96875 269.011719 99.582031 269.824219 99.160156 270.621094 C 98.734375 271.417969 98.269531 272.1875 97.769531 272.9375 C 97.269531 273.6875 96.730469 274.414062 96.160156 275.109375 C 95.585938 275.808594 94.980469 276.472656 94.34375 277.113281 C 93.707031 277.75 93.039062 278.355469 92.339844 278.925781 C 91.644531 279.5 90.921875 280.035156 90.171875 280.539062 C 89.421875 281.039062 88.648438 281.5 87.851562 281.925781 C 87.058594 282.351562 86.242188 282.738281 85.410156 283.082031 C 84.574219 283.425781 83.726562 283.730469 82.863281 283.992188 C 82 284.253906 81.128906 284.472656 80.242188 284.648438 C 79.359375 284.824219 78.46875 284.957031 77.570312 285.046875 C 76.671875 285.132812 75.773438 285.179688 74.871094 285.179688 C 73.96875 285.179688 73.066406 285.132812 72.171875 285.046875 C 71.273438 284.957031 70.382812 284.824219 69.496094 284.648438 C 68.613281 284.472656 67.738281 284.253906 66.875 283.992188 C 66.011719 283.730469 65.164062 283.425781 64.332031 283.082031 C 63.496094 282.738281 62.683594 282.351562 61.886719 281.925781 C 61.09375 281.5 60.320312 281.039062 59.570312 280.539062 C 58.820312 280.035156 58.09375 279.5 57.398438 278.925781 C 56.699219 278.355469 56.035156 277.75 55.394531 277.113281 C 54.757812 276.472656 54.152344 275.808594 53.582031 275.109375 C 53.007812 274.414062 52.472656 273.6875 51.972656 272.9375 C 51.46875 272.1875 51.007812 271.417969 50.582031 270.621094 C 50.15625 269.824219 49.769531 269.011719 49.425781 268.175781 C 49.082031 267.34375 48.777344 266.496094 48.515625 265.632812 C 48.253906 264.769531 48.035156 263.894531 47.859375 263.011719 C 47.683594 262.125 47.550781 261.234375 47.460938 260.335938 C 47.375 259.441406 47.328125 258.539062 47.328125 257.636719 C 47.328125 256.734375 47.375 255.835938 47.460938 254.9375 C 47.550781 254.042969 47.683594 253.148438 47.859375 252.265625 C 48.035156 251.378906 48.253906 250.507812 48.515625 249.644531 C 48.777344 248.78125 49.082031 247.933594 49.425781 247.097656 C 49.769531 246.265625 50.15625 245.449219 50.582031 244.65625 C 51.007812 243.859375 51.46875 243.085938 51.972656 242.335938 C 52.472656 241.585938 53.007812 240.863281 53.582031 240.167969 C 54.152344 239.46875 54.757812 238.800781 55.394531 238.164062 C 56.035156 237.527344 56.699219 236.921875 57.398438 236.347656 C 58.09375 235.777344 58.820312 235.238281 59.570312 234.738281 C 60.320312 234.238281 61.09375 233.773438 61.886719 233.351562 C 62.683594 232.925781 63.496094 232.539062 64.332031 232.195312 C 65.164062 231.847656 66.011719 231.546875 66.875 231.285156 C 67.738281 231.023438 68.613281 230.804688 69.496094 230.625 C 70.382812 230.449219 71.273438 230.320312 72.171875 230.230469 C 73.066406 230.140625 73.96875 230.097656 74.871094 230.097656 C 75.773438 230.097656 76.671875 230.140625 77.570312 230.230469 C 78.46875 230.320312 79.359375 230.449219 80.242188 230.625 C 81.128906 230.804688 82 231.023438 82.863281 231.285156 C 83.726562 231.546875 84.574219 231.847656 85.410156 232.195312 C 86.242188 232.539062 87.058594 232.925781 87.851562 233.351562 C 88.648438 233.773438 89.421875 234.238281 90.171875 234.738281 C 90.921875 235.238281 91.644531 235.777344 92.339844 236.347656 C 93.039062 236.921875 93.707031 237.527344 94.34375 238.164062 C 94.980469 238.800781 95.585938 239.46875 96.160156 240.167969 C 96.730469 240.863281 97.269531 241.585938 97.769531 242.335938 C 98.269531 243.085938 98.734375 243.859375 99.160156 244.65625 C 99.582031 245.449219 99.96875 246.265625 100.3125 247.097656 C 100.660156 247.933594 100.960938 248.78125 101.222656 249.644531 C 101.484375 250.507812 101.703125 251.378906 101.882812 252.265625 C 102.058594 253.148438 102.1875 254.042969 102.277344 254.9375 C 102.367188 255.835938 102.410156 256.734375 102.410156 257.636719 Z M 102.410156 257.636719 " fill-opacity="1" fill-rule="nonzero"/><g clip-path="url(#9966293f4a)"><path fill="#000000" d="M 313.867188 281.835938 C 319.394531 275.296875 322.734375 266.851562 322.734375 257.636719 C 322.734375 236.929688 305.886719 220.082031 285.179688 220.082031 C 264.46875 220.082031 247.625 236.929688 247.625 257.636719 C 247.625 266.832031 250.949219 275.257812 256.453125 281.792969 C 251.613281 284.171875 247.078125 287.160156 242.9375 290.710938 C 234.800781 280.402344 224.191406 272.136719 212.011719 266.8125 C 220.089844 258.664062 225.089844 247.457031 225.089844 235.105469 C 225.089844 210.253906 204.875 190.039062 180.023438 190.039062 C 155.171875 190.039062 134.957031 210.253906 134.957031 235.105469 C 134.957031 247.457031 139.957031 258.664062 148.035156 266.8125 C 135.855469 272.136719 125.246094 280.402344 117.109375 290.710938 C 112.96875 287.160156 108.433594 284.171875 103.59375 281.792969 C 109.097656 275.257812 112.421875 266.832031 112.421875 257.636719 C 112.421875 236.929688 95.578125 220.082031 74.867188 220.082031 C 54.160156 220.082031 37.3125 236.929688 37.3125 257.636719 C 37.3125 266.851562 40.652344 275.296875 46.179688 281.835938 C 24.632812 292.460938 9.773438 314.65625 9.773438 340.257812 C 9.773438 345.789062 14.257812 350.273438 19.789062 350.273438 C 51.765625 350.273438 309.4375 350.273438 340.257812 350.273438 C 345.789062 350.273438 350.273438 345.789062 350.273438 340.257812 C 350.273438 314.65625 335.414062 292.460938 313.867188 281.835938 Z M 267.652344 257.636719 C 267.652344 247.972656 275.515625 240.113281 285.179688 240.113281 C 294.84375 240.113281 302.703125 247.972656 302.703125 257.636719 C 302.703125 267.300781 294.84375 275.164062 285.179688 275.164062 C 275.515625 275.164062 267.652344 267.300781 267.652344 257.636719 Z M 154.988281 235.105469 C 154.988281 221.300781 166.21875 210.066406 180.023438 210.066406 C 193.828125 210.066406 205.0625 221.300781 205.0625 235.105469 C 205.0625 248.910156 193.828125 260.140625 180.023438 260.140625 C 166.21875 260.140625 154.988281 248.910156 154.988281 235.105469 Z M 57.34375 257.636719 C 57.34375 247.972656 65.207031 240.113281 74.871094 240.113281 C 84.535156 240.113281 92.394531 247.972656 92.394531 257.636719 C 92.394531 267.300781 84.535156 275.164062 74.871094 275.164062 C 65.207031 275.164062 57.34375 267.300781 57.34375 257.636719 Z M 74.871094 295.191406 C 86.925781 295.191406 98.1875 299.898438 106.582031 308.257812 C 103.574219 315.140625 101.5 322.523438 100.53125 330.246094 L 30.925781 330.246094 C 35.492188 310.199219 53.460938 295.191406 74.871094 295.191406 Z M 120.769531 330.246094 C 125.550781 301.863281 150.300781 280.171875 180.023438 280.171875 C 209.746094 280.171875 234.496094 301.863281 239.277344 330.246094 Z M 259.515625 330.246094 C 258.550781 322.523438 256.476562 315.140625 253.464844 308.257812 C 261.859375 299.898438 273.125 295.191406 285.179688 295.191406 C 306.585938 295.191406 324.554688 310.199219 329.125 330.246094 Z M 259.515625 330.246094 " fill-opacity="1" fill-rule="nonzero"/></g><g clip-path="url(#40848703cb)"><path fill="#000000" d="M 180.023438 170.007812 C 224.199219 170.007812 260.140625 134.070312 260.140625 89.890625 C 260.140625 45.714844 224.199219 9.773438 180.023438 9.773438 C 135.847656 9.773438 99.90625 45.714844 99.90625 89.890625 C 99.90625 134.070312 135.847656 170.007812 180.023438 170.007812 Z M 180.023438 29.804688 C 213.15625 29.804688 240.113281 56.757812 240.113281 89.890625 C 240.113281 123.023438 213.15625 149.980469 180.023438 149.980469 C 146.890625 149.980469 119.9375 123.023438 119.9375 89.890625 C 119.9375 56.757812 146.890625 29.804688 180.023438 29.804688 Z M 180.023438 29.804688 " fill-opacity="1" fill-rule="nonzero"/></g><path fill="#000000" d="M 149.980469 99.90625 L 170.007812 99.90625 L 170.007812 119.9375 C 170.007812 125.464844 174.492188 129.949219 180.023438 129.949219 C 185.554688 129.949219 190.039062 125.464844 190.039062 119.9375 L 190.039062 99.90625 L 210.066406 99.90625 C 215.597656 99.90625 220.082031 95.421875 220.082031 89.890625 C 220.082031 84.359375 215.597656 79.878906 210.066406 79.878906 L 190.039062 79.878906 L 190.039062 59.847656 C 190.039062 54.316406 185.554688 49.832031 180.023438 49.832031 C 174.492188 49.832031 170.007812 54.316406 170.007812 59.847656 L 170.007812 79.878906 L 149.980469 79.878906 C 144.449219 79.878906 139.964844 84.359375 139.964844 89.890625 C 139.964844 95.421875 144.449219 99.90625 149.980469 99.90625 Z M 149.980469 99.90625 " fill-opacity="1" fill-rule="nonzero"/></svg>