<svg xmlns="http://www.w3.org/2000/svg" xmlns:xlink="http://www.w3.org/1999/xlink" width="480" zoomAndPan="magnify" viewBox="0 0 360 359.999987" height="480" preserveAspectRatio="xMidYMid meet" version="1.0"><defs><g/><clipPath id="27da329740"><path d="M 72.214844 85.109375 L 210 85.109375 L 210 317.191406 L 72.214844 317.191406 Z M 72.214844 85.109375 " clip-rule="nonzero"/></clipPath><clipPath id="515eb24086"><path d="M 216.679688 85.109375 L 353.964844 85.109375 L 353.964844 317.191406 L 216.679688 317.191406 Z M 216.679688 85.109375 " clip-rule="nonzero"/></clipPath><clipPath id="ef6c99b514"><path d="M 84 42.730469 L 342 42.730469 L 342 122 L 84 122 Z M 84 42.730469 " clip-rule="nonzero"/></clipPath><clipPath id="d0435abb8b"><path d="M 5.964844 148 L 145 148 L 145 288 L 5.964844 288 Z M 5.964844 148 " clip-rule="nonzero"/></clipPath></defs><g clip-path="url(#27da329740)"><path fill="#000000" d="M 72.839844 85.355469 L 72.839844 141.863281 C 73.707031 141.832031 74.574219 141.820312 75.445312 141.820312 C 95.800781 141.820312 115.171875 149.84375 129.566406 164.238281 C 143.960938 178.632812 151.984375 198.007812 151.984375 218.367188 C 151.984375 238.722656 143.960938 258.097656 129.566406 272.492188 C 122.539062 279.519531 114.328125 285.03125 105.390625 288.828125 L 209.929688 317.183594 L 209.929688 127.890625 C 209.699219 127.859375 209.480469 127.796875 209.265625 127.714844 C 163.792969 113.589844 118.304688 99.503906 72.839844 85.355469 " fill-opacity="1" fill-rule="evenodd"/></g><g clip-path="url(#515eb24086)"><path fill="#000000" d="M 334.179688 237.917969 L 294.734375 249.933594 C 293.351562 250.21875 292.308594 251.445312 292.308594 252.910156 L 292.308594 276.683594 C 292.273438 278.703125 294.273438 280.289062 296.234375 279.636719 L 335.675781 267.625 C 337.0625 267.339844 338.101562 266.113281 338.101562 264.644531 L 338.101562 240.871094 C 338.140625 238.824219 336.148438 237.300781 334.179688 237.917969 Z M 348.703125 86.992188 C 352.523438 85.769531 352.953125 85.671875 353.984375 85.355469 L 353.984375 277.625 C 354.007812 278.980469 353.113281 280.234375 351.738281 280.605469 L 216.925781 317.191406 L 216.925781 127.886719 C 217.148438 127.851562 217.359375 127.792969 217.5625 127.714844 L 348.703125 86.992188 " fill-opacity="1" fill-rule="evenodd"/></g><path fill="#000000" d="M 298.394531 255.152344 L 332.019531 244.914062 L 332.019531 262.40625 L 298.394531 272.648438 L 298.394531 255.152344 " fill-opacity="1" fill-rule="evenodd"/><g clip-path="url(#ef6c99b514)"><path fill="#000000" d="M 248.652344 64.738281 C 250.257812 64.257812 251.953125 65.164062 252.4375 66.773438 C 252.925781 68.378906 252.015625 70.078125 250.410156 70.5625 L 149.679688 101.070312 C 170.367188 107.320312 190.980469 113.789062 211.375 120.964844 L 213.484375 121.285156 L 215.464844 120.964844 C 215.46875 120.964844 215.46875 120.964844 215.46875 120.964844 L 341.921875 81.699219 L 213.414062 42.777344 L 84.945312 81.6875 C 103.535156 87.375 122.199219 92.832031 140.824219 98.40625 C 156.640625 92.289062 238.066406 67.945312 248.652344 64.738281 " fill-opacity="1" fill-rule="evenodd"/></g><g clip-path="url(#d0435abb8b)"><path fill="#000000" d="M 20.097656 218.367188 C 20.097656 233.097656 25.890625 247.085938 36.308594 257.503906 C 46.726562 267.917969 60.710938 273.710938 75.445312 273.710938 C 90.171875 273.710938 104.164062 267.917969 114.578125 257.503906 C 124.992188 247.085938 130.785156 233.097656 130.785156 218.367188 C 130.785156 203.632812 124.992188 189.644531 114.578125 179.230469 C 104.164062 168.8125 90.171875 163.019531 75.445312 163.019531 C 60.710938 163.019531 46.726562 168.8125 36.308594 179.230469 C 25.890625 189.644531 20.097656 203.632812 20.097656 218.367188 Z M 75.445312 148.886719 C 93.929688 148.886719 111.503906 156.167969 124.570312 169.238281 C 137.640625 182.308594 144.921875 199.878906 144.921875 218.367188 C 144.921875 236.851562 137.640625 254.421875 124.570312 267.496094 C 111.503906 280.566406 93.929688 287.84375 75.445312 287.84375 C 56.953125 287.84375 39.386719 280.566406 26.316406 267.496094 C 13.242188 254.421875 5.964844 236.851562 5.964844 218.367188 C 5.964844 199.878906 13.246094 182.308594 26.316406 169.238281 C 39.386719 156.167969 56.953125 148.886719 75.445312 148.886719 " fill-opacity="1" fill-rule="evenodd"/></g><path fill="#000000" d="M 65.597656 227.632812 L 98.527344 194.699219 C 101.285156 191.945312 105.761719 191.945312 108.523438 194.699219 C 111.28125 197.460938 111.28125 201.9375 108.523438 204.695312 L 71.222656 241.992188 C 68.679688 244.539062 64.695312 244.8125 61.851562 242.59375 L 43.023438 227.933594 C 39.949219 225.539062 39.40625 221.09375 41.800781 218.027344 C 44.199219 214.960938 48.628906 214.417969 51.699219 216.808594 L 65.597656 227.632812 " fill-opacity="1" fill-rule="evenodd"/><g fill="#fefbfd" fill-opacity="1"><g transform="translate(51.907828, 149.034442)"><g><path d="M 0.515625 0 L 0.515625 -5.9375 L 2.859375 -5.9375 C 3.304688 -5.9375 3.6875 -5.847656 4 -5.671875 C 4.320312 -5.503906 4.566406 -5.269531 4.734375 -4.96875 C 4.898438 -4.664062 4.984375 -4.316406 4.984375 -3.921875 C 4.984375 -3.523438 4.894531 -3.175781 4.71875 -2.875 C 4.550781 -2.582031 4.304688 -2.347656 3.984375 -2.171875 C 3.660156 -2.003906 3.273438 -1.921875 2.828125 -1.921875 L 1.765625 -1.921875 L 1.765625 0 Z M 1.765625 -2.921875 L 2.625 -2.921875 C 2.976562 -2.921875 3.242188 -3.015625 3.421875 -3.203125 C 3.597656 -3.390625 3.6875 -3.628906 3.6875 -3.921875 C 3.6875 -4.210938 3.597656 -4.445312 3.421875 -4.625 C 3.242188 -4.8125 2.972656 -4.90625 2.609375 -4.90625 L 1.765625 -4.90625 Z M 1.765625 -2.921875 "/></g></g></g><g fill="#fefbfd" fill-opacity="1"><g transform="translate(57.653786, 149.034442)"><g><path d="M 1.765625 0.078125 C 1.335938 0.078125 0.984375 -0.03125 0.703125 -0.25 C 0.421875 -0.46875 0.28125 -0.800781 0.28125 -1.25 C 0.28125 -1.570312 0.359375 -1.828125 0.515625 -2.015625 C 0.671875 -2.210938 0.875 -2.351562 1.125 -2.4375 C 1.382812 -2.53125 1.660156 -2.585938 1.953125 -2.609375 C 2.335938 -2.648438 2.613281 -2.691406 2.78125 -2.734375 C 2.945312 -2.773438 3.03125 -2.867188 3.03125 -3.015625 L 3.03125 -3.03125 C 3.03125 -3.21875 2.972656 -3.359375 2.859375 -3.453125 C 2.742188 -3.554688 2.582031 -3.609375 2.375 -3.609375 C 2.144531 -3.609375 1.960938 -3.554688 1.828125 -3.453125 C 1.703125 -3.359375 1.617188 -3.238281 1.578125 -3.09375 L 0.4375 -3.1875 C 0.519531 -3.59375 0.726562 -3.910156 1.0625 -4.140625 C 1.40625 -4.378906 1.84375 -4.5 2.375 -4.5 C 2.707031 -4.5 3.015625 -4.445312 3.296875 -4.34375 C 3.585938 -4.238281 3.820312 -4.078125 4 -3.859375 C 4.175781 -3.640625 4.265625 -3.351562 4.265625 -3 L 4.265625 0 L 3.09375 0 L 3.09375 -0.609375 L 3.0625 -0.609375 C 2.957031 -0.410156 2.796875 -0.242188 2.578125 -0.109375 C 2.359375 0.015625 2.085938 0.078125 1.765625 0.078125 Z M 2.109375 -0.765625 C 2.378906 -0.765625 2.601562 -0.84375 2.78125 -1 C 2.957031 -1.15625 3.046875 -1.351562 3.046875 -1.59375 L 3.046875 -2.0625 C 2.992188 -2.03125 2.914062 -2 2.8125 -1.96875 C 2.71875 -1.945312 2.609375 -1.925781 2.484375 -1.90625 C 2.367188 -1.882812 2.269531 -1.867188 2.1875 -1.859375 C 1.96875 -1.828125 1.789062 -1.765625 1.65625 -1.671875 C 1.53125 -1.585938 1.46875 -1.457031 1.46875 -1.28125 C 1.46875 -1.113281 1.523438 -0.984375 1.640625 -0.890625 C 1.765625 -0.804688 1.921875 -0.765625 2.109375 -0.765625 Z M 2.109375 -0.765625 "/></g></g></g><g fill="#fefbfd" fill-opacity="1"><g transform="translate(62.849613, 149.034442)"><g><path d="M 0.5 0 L 0.5 -5.9375 L 1.71875 -5.9375 L 1.71875 -2.765625 L 1.796875 -2.765625 L 3.21875 -4.453125 L 4.640625 -4.453125 L 2.984375 -2.515625 L 4.71875 0 L 3.265625 0 L 2.0625 -1.796875 L 1.71875 -1.40625 L 1.71875 0 Z M 0.5 0 "/></g></g></g><g fill="#fefbfd" fill-opacity="1"><g transform="translate(68.057022, 149.034442)"><g><path d="M 2.515625 0.09375 C 2.066406 0.09375 1.675781 0 1.34375 -0.1875 C 1.007812 -0.375 0.753906 -0.640625 0.578125 -0.984375 C 0.398438 -1.328125 0.3125 -1.734375 0.3125 -2.203125 C 0.3125 -2.660156 0.398438 -3.0625 0.578125 -3.40625 C 0.753906 -3.75 1.003906 -4.015625 1.328125 -4.203125 C 1.648438 -4.398438 2.03125 -4.5 2.46875 -4.5 C 2.863281 -4.5 3.21875 -4.414062 3.53125 -4.25 C 3.84375 -4.09375 4.09375 -3.84375 4.28125 -3.5 C 4.46875 -3.164062 4.5625 -2.75 4.5625 -2.25 L 4.5625 -1.90625 L 1.53125 -1.90625 C 1.53125 -1.570312 1.617188 -1.304688 1.796875 -1.109375 C 1.984375 -0.921875 2.234375 -0.828125 2.546875 -0.828125 C 2.742188 -0.828125 2.914062 -0.867188 3.0625 -0.953125 C 3.21875 -1.046875 3.328125 -1.175781 3.390625 -1.34375 L 4.53125 -1.28125 C 4.445312 -0.863281 4.226562 -0.53125 3.875 -0.28125 C 3.519531 -0.03125 3.066406 0.09375 2.515625 0.09375 Z M 1.53125 -2.671875 L 3.40625 -2.671875 C 3.394531 -2.929688 3.304688 -3.144531 3.140625 -3.3125 C 2.972656 -3.488281 2.753906 -3.578125 2.484375 -3.578125 C 2.210938 -3.578125 1.988281 -3.488281 1.8125 -3.3125 C 1.632812 -3.132812 1.539062 -2.921875 1.53125 -2.671875 Z M 1.53125 -2.671875 "/></g></g></g><g fill="#fefbfd" fill-opacity="1"><g transform="translate(73.394723, 149.034442)"><g><path d="M 2.859375 -4.453125 L 2.859375 -3.515625 L 2.015625 -3.515625 L 2.015625 -1.359375 C 2.015625 -1.191406 2.050781 -1.078125 2.125 -1.015625 C 2.207031 -0.960938 2.3125 -0.9375 2.4375 -0.9375 C 2.5 -0.9375 2.554688 -0.941406 2.609375 -0.953125 C 2.671875 -0.960938 2.71875 -0.96875 2.75 -0.96875 L 2.9375 -0.0625 C 2.875 -0.0390625 2.785156 -0.0195312 2.671875 0 C 2.566406 0.03125 2.429688 0.0507812 2.265625 0.0625 C 1.816406 0.0820312 1.457031 -0.0078125 1.1875 -0.21875 C 0.914062 -0.4375 0.78125 -0.765625 0.78125 -1.203125 L 0.78125 -3.515625 L 0.171875 -3.515625 L 0.171875 -4.453125 L 0.78125 -4.453125 L 0.78125 -5.515625 L 2.015625 -5.515625 L 2.015625 -4.453125 Z M 2.859375 -4.453125 "/></g></g></g></svg>