<svg xmlns="http://www.w3.org/2000/svg" xmlns:xlink="http://www.w3.org/1999/xlink" width="480" zoomAndPan="magnify" viewBox="0 0 360 359.999987" height="480" preserveAspectRatio="xMidYMid meet" version="1.0"><defs><clipPath id="9f624f1344"><path d="M 17 13 L 353 13 L 353 348.878906 L 17 348.878906 Z M 17 13 " clip-rule="nonzero"/></clipPath></defs><g clip-path="url(#9f624f1344)"><path fill="#ffffff" d="M 346.226562 286.78125 L 294.609375 235.164062 C 286.847656 227.398438 274.242188 227.398438 266.480469 235.164062 L 241.863281 259.777344 C 204.511719 237.617188 127.945312 161.121094 105.789062 123.699219 L 130.402344 99.085938 C 138.164062 91.324219 138.164062 78.71875 130.402344 70.953125 L 78.851562 19.402344 C 71.089844 11.640625 58.414062 11.640625 50.652344 19.402344 C 10.710938 59.410156 6 122.769531 39.90625 168.152344 C 39.972656 168.21875 98.886719 252.148438 179.632812 312.390625 C 190.445312 318.691406 216.386719 348.351562 265.617188 348.351562 C 295.871094 348.351562 324.863281 336.339844 346.226562 314.976562 C 353.988281 307.148438 353.988281 294.609375 346.226562 286.78125 Z M 346.226562 286.78125 " fill-opacity="1" fill-rule="nonzero"/></g><path fill="#ffffff" d="M 266.941406 185.535156 C 270.59375 185.535156 273.578125 182.550781 273.578125 178.902344 C 273.578125 131.328125 234.898438 92.648438 187.328125 92.648438 C 183.679688 92.648438 180.691406 95.636719 180.691406 99.285156 C 180.691406 102.933594 183.679688 105.917969 187.328125 105.917969 C 227.601562 105.917969 260.308594 138.628906 260.308594 178.902344 C 260.308594 182.550781 263.226562 185.535156 266.941406 185.535156 Z M 266.941406 185.535156 " fill-opacity="1" fill-rule="nonzero"/><path fill="#ffffff" d="M 178.570312 125.359375 C 174.921875 125.359375 171.933594 128.34375 171.933594 131.992188 C 171.933594 135.640625 174.921875 138.628906 178.570312 138.628906 C 205.574219 138.628906 227.535156 160.589844 227.535156 187.59375 C 227.535156 191.242188 230.519531 194.226562 234.167969 194.226562 C 237.816406 194.226562 240.804688 191.242188 240.804688 187.59375 C 240.804688 153.289062 212.871094 125.359375 178.570312 125.359375 Z M 178.570312 125.359375 " fill-opacity="1" fill-rule="nonzero"/><path fill="#ffffff" d="M 176.113281 65.382812 C 244.917969 65.382812 300.847656 121.3125 300.847656 190.113281 C 300.847656 193.761719 303.832031 196.746094 307.480469 196.746094 C 311.128906 196.746094 314.117188 193.761719 314.117188 190.113281 C 314.117188 114.011719 252.214844 52.113281 176.113281 52.113281 C 172.464844 52.113281 169.480469 55.097656 169.480469 58.746094 C 169.480469 62.394531 172.464844 65.382812 176.113281 65.382812 Z M 176.113281 65.382812 " fill-opacity="1" fill-rule="nonzero"/></svg>