<svg xmlns="http://www.w3.org/2000/svg" xmlns:xlink="http://www.w3.org/1999/xlink" width="480" zoomAndPan="magnify" viewBox="0 0 360 359.999987" height="480" preserveAspectRatio="xMidYMid meet" version="1.0"><defs><clipPath id="269c03fb13"><path d="M 14.074219 0 L 345.574219 0 L 345.574219 360 L 14.074219 360 Z M 14.074219 0 " clip-rule="nonzero"/></clipPath></defs><path fill="#ffffff" d="M 77.644531 171.882812 L 105.878906 171.882812 C 109.78125 171.882812 112.941406 168.722656 112.941406 164.824219 L 112.941406 136.589844 C 112.941406 132.691406 109.78125 129.53125 105.878906 129.53125 L 77.644531 129.53125 C 73.746094 129.53125 70.585938 132.691406 70.585938 136.589844 L 70.585938 164.824219 C 70.585938 168.722656 73.746094 171.882812 77.644531 171.882812 Z M 84.703125 143.648438 L 98.820312 143.648438 L 98.820312 157.765625 L 84.703125 157.765625 Z M 84.703125 143.648438 " fill-opacity="1" fill-rule="nonzero"/><path fill="#ffffff" d="M 77.644531 228.351562 L 105.878906 228.351562 C 109.78125 228.351562 112.941406 225.191406 112.941406 221.292969 L 112.941406 193.058594 C 112.941406 189.160156 109.78125 186 105.878906 186 L 77.644531 186 C 73.746094 186 70.585938 189.160156 70.585938 193.058594 L 70.585938 221.292969 C 70.585938 225.191406 73.746094 228.351562 77.644531 228.351562 Z M 84.703125 200.117188 L 98.820312 200.117188 L 98.820312 214.234375 L 84.703125 214.234375 Z M 84.703125 200.117188 " fill-opacity="1" fill-rule="nonzero"/><path fill="#ffffff" d="M 77.644531 284.824219 L 105.878906 284.824219 C 109.78125 284.824219 112.941406 281.664062 112.941406 277.765625 L 112.941406 249.53125 C 112.941406 245.632812 109.78125 242.46875 105.878906 242.46875 L 77.644531 242.46875 C 73.746094 242.46875 70.585938 245.632812 70.585938 249.53125 L 70.585938 277.765625 C 70.585938 281.664062 73.746094 284.824219 77.644531 284.824219 Z M 84.703125 256.589844 L 98.820312 256.589844 L 98.820312 270.707031 L 84.703125 270.707031 Z M 84.703125 256.589844 " fill-opacity="1" fill-rule="nonzero"/><path fill="#ffffff" d="M 134.117188 141.175781 L 218.820312 141.175781 C 222.71875 141.175781 225.878906 138.015625 225.878906 134.117188 C 225.878906 130.21875 222.71875 127.058594 218.820312 127.058594 L 134.117188 127.058594 C 130.21875 127.058594 127.058594 130.21875 127.058594 134.117188 C 127.058594 138.015625 130.21875 141.175781 134.117188 141.175781 Z M 134.117188 141.175781 " fill-opacity="1" fill-rule="nonzero"/><path fill="#ffffff" d="M 134.117188 169.410156 L 155.292969 169.410156 C 159.191406 169.410156 162.351562 166.25 162.351562 162.351562 C 162.351562 158.453125 159.191406 155.292969 155.292969 155.292969 L 134.117188 155.292969 C 130.21875 155.292969 127.058594 158.453125 127.058594 162.351562 C 127.058594 166.25 130.21875 169.410156 134.117188 169.410156 Z M 134.117188 169.410156 " fill-opacity="1" fill-rule="nonzero"/><path fill="#ffffff" d="M 134.117188 197.648438 L 218.820312 197.648438 C 222.71875 197.648438 225.878906 194.484375 225.878906 190.589844 C 225.878906 186.691406 222.71875 183.53125 218.820312 183.53125 L 134.117188 183.53125 C 130.21875 183.53125 127.058594 186.691406 127.058594 190.589844 C 127.058594 194.484375 130.21875 197.648438 134.117188 197.648438 Z M 134.117188 197.648438 " fill-opacity="1" fill-rule="nonzero"/><path fill="#ffffff" d="M 134.117188 225.882812 L 155.292969 225.882812 C 159.191406 225.882812 162.351562 222.722656 162.351562 218.824219 C 162.351562 214.925781 159.191406 211.765625 155.292969 211.765625 L 134.117188 211.765625 C 130.21875 211.765625 127.058594 214.925781 127.058594 218.824219 C 127.058594 222.722656 130.21875 225.882812 134.117188 225.882812 Z M 134.117188 225.882812 " fill-opacity="1" fill-rule="nonzero"/><path fill="#ffffff" d="M 134.117188 254.117188 L 190.585938 254.117188 C 194.484375 254.117188 197.644531 250.957031 197.644531 247.058594 C 197.644531 243.160156 194.484375 240 190.585938 240 L 134.117188 240 C 130.21875 240 127.058594 243.160156 127.058594 247.058594 C 127.058594 250.957031 130.21875 254.117188 134.117188 254.117188 Z M 134.117188 254.117188 " fill-opacity="1" fill-rule="nonzero"/><path fill="#ffffff" d="M 134.117188 282.351562 L 155.292969 282.351562 C 159.191406 282.351562 162.351562 279.191406 162.351562 275.292969 C 162.351562 271.394531 159.191406 268.234375 155.292969 268.234375 L 134.117188 268.234375 C 130.21875 268.234375 127.058594 271.394531 127.058594 275.292969 C 127.058594 279.191406 130.21875 282.351562 134.117188 282.351562 Z M 134.117188 282.351562 " fill-opacity="1" fill-rule="nonzero"/><g clip-path="url(#269c03fb13)"><path fill="#ffffff" d="M 282.351562 219.175781 L 282.351562 70.589844 C 282.351562 58.910156 272.851562 49.410156 261.175781 49.410156 L 218.820312 49.410156 L 218.820312 42.351562 C 218.820312 38.453125 215.660156 35.292969 211.761719 35.292969 L 204.703125 35.292969 L 204.703125 28.234375 C 204.703125 12.667969 192.039062 0 176.46875 0 L 120 0 C 104.429688 0 91.761719 12.667969 91.761719 28.234375 L 91.761719 35.292969 L 84.703125 35.292969 C 80.804688 35.292969 77.644531 38.453125 77.644531 42.351562 L 77.644531 49.410156 L 35.292969 49.410156 C 23.617188 49.410156 14.117188 58.910156 14.117188 70.589844 L 14.117188 338.824219 C 14.117188 350.5 23.617188 360 35.292969 360 L 275.292969 360 C 314.214844 360 345.878906 328.335938 345.878906 289.410156 C 345.878906 252.871094 317.972656 222.726562 282.351562 219.175781 Z M 261.175781 63.53125 C 265.066406 63.53125 268.234375 66.695312 268.234375 70.589844 L 268.234375 219.175781 C 263.367188 219.660156 258.644531 220.644531 254.117188 222.070312 L 254.117188 84.707031 C 254.117188 80.808594 250.957031 77.648438 247.058594 77.648438 L 218.820312 77.648438 L 218.820312 63.53125 Z M 240 91.765625 L 240 228.300781 C 209.296875 246.101562 196.871094 283.394531 209.714844 315.53125 L 56.46875 315.53125 L 56.46875 91.765625 C 95.589844 91.765625 198.003906 91.765625 240 91.765625 Z M 91.761719 49.410156 L 98.820312 49.410156 C 102.71875 49.410156 105.878906 46.25 105.878906 42.351562 L 105.878906 28.234375 C 105.878906 20.449219 112.214844 14.117188 120 14.117188 L 176.46875 14.117188 C 184.253906 14.117188 190.585938 20.449219 190.585938 28.234375 L 190.585938 42.351562 C 190.585938 46.25 193.746094 49.410156 197.644531 49.410156 L 204.703125 49.410156 L 204.703125 77.648438 L 91.761719 77.648438 Z M 35.292969 345.882812 C 31.402344 345.882812 28.234375 342.714844 28.234375 338.824219 L 28.234375 70.589844 C 28.234375 66.695312 31.402344 63.53125 35.292969 63.53125 L 77.644531 63.53125 L 77.644531 77.648438 L 49.410156 77.648438 C 45.511719 77.648438 42.351562 80.808594 42.351562 84.707031 L 42.351562 322.589844 C 42.351562 326.484375 45.511719 329.648438 49.410156 329.648438 L 217.328125 329.648438 C 221.652344 335.855469 226.941406 341.34375 232.984375 345.882812 Z M 275.292969 345.882812 C 244.15625 345.882812 218.820312 320.550781 218.820312 289.410156 C 218.820312 258.273438 244.15625 232.941406 275.292969 232.941406 C 306.429688 232.941406 331.761719 258.273438 331.761719 289.410156 C 331.761719 320.550781 306.429688 345.882812 275.292969 345.882812 Z M 275.292969 345.882812 " fill-opacity="1" fill-rule="nonzero"/></g><path fill="#ffffff" d="M 296.773438 265.890625 L 264.703125 297.957031 L 253.8125 287.066406 C 251.054688 284.3125 246.589844 284.3125 243.828125 287.066406 C 241.074219 289.824219 241.074219 294.292969 243.828125 297.050781 L 259.710938 312.933594 C 262.472656 315.691406 266.9375 315.6875 269.695312 312.933594 L 306.753906 275.875 C 309.511719 273.117188 309.511719 268.648438 306.753906 265.890625 C 303.996094 263.132812 299.527344 263.132812 296.773438 265.890625 Z M 296.773438 265.890625 " fill-opacity="1" fill-rule="nonzero"/></svg>