<svg xmlns="http://www.w3.org/2000/svg" xmlns:xlink="http://www.w3.org/1999/xlink" width="480" zoomAndPan="magnify" viewBox="0 0 360 359.999987" height="480" preserveAspectRatio="xMidYMid meet" version="1.0"><defs><clipPath id="5a95f627e8"><path d="M 11.84375 11.839844 L 347.839844 11.839844 L 347.839844 347.839844 L 11.84375 347.839844 Z M 11.84375 11.839844 " clip-rule="nonzero"/></clipPath></defs><g clip-path="url(#5a95f627e8)"><path fill="#ffffff" d="M 342.710938 348.132812 L 17.316406 348.132812 C 14.371094 348.132812 11.984375 345.746094 11.984375 342.800781 L 11.984375 312.402344 C 11.984375 261.832031 53.128906 220.6875 103.699219 220.6875 L 256.328125 220.6875 C 306.898438 220.6875 348.042969 261.832031 348.042969 312.402344 L 348.042969 342.800781 C 348.042969 345.746094 345.65625 348.132812 342.710938 348.132812 Z M 180.011719 206.347656 C 126.386719 206.347656 82.761719 162.71875 82.761719 109.09375 C 82.761719 55.46875 126.386719 11.839844 180.011719 11.839844 C 233.636719 11.839844 277.265625 55.46875 277.265625 109.09375 C 277.265625 162.71875 233.636719 206.347656 180.011719 206.347656 Z M 180.011719 206.347656 " fill-opacity="1" fill-rule="nonzero"/></g></svg>