<svg xmlns="http://www.w3.org/2000/svg" xmlns:xlink="http://www.w3.org/1999/xlink" width="480" zoomAndPan="magnify" viewBox="0 0 360 359.999987" height="480" preserveAspectRatio="xMidYMid meet" version="1.0"><defs><clipPath id="ce5cc199fd"><path d="M 15.582031 15.582031 L 344.082031 15.582031 L 344.082031 344.082031 L 15.582031 344.082031 Z M 15.582031 15.582031 " clip-rule="nonzero"/></clipPath></defs><g clip-path="url(#ce5cc199fd)"><path fill="#000000" d="M 19.476562 95.859375 C 22.578125 54.898438 54.898438 22.578125 95.859375 19.476562 C 123.507812 17.382812 154.621094 15.582031 179.832031 15.582031 C 205.039062 15.582031 236.152344 17.382812 263.800781 19.476562 C 304.765625 22.578125 337.082031 54.898438 340.183594 95.859375 C 342.277344 123.507812 344.082031 154.621094 344.082031 179.832031 C 344.082031 205.039062 342.277344 236.152344 340.183594 263.800781 C 337.082031 304.765625 304.765625 337.082031 263.800781 340.183594 C 236.152344 342.277344 205.039062 344.082031 179.832031 344.082031 C 154.621094 344.082031 123.507812 342.277344 95.859375 340.183594 C 54.898438 337.082031 22.578125 304.765625 19.476562 263.800781 C 17.382812 236.152344 15.582031 205.039062 15.582031 179.832031 C 15.582031 154.621094 17.382812 123.507812 19.476562 95.859375 Z M 19.476562 95.859375 " fill-opacity="1" fill-rule="nonzero"/></g><path fill="#ffffff" d="M 92.230469 126.863281 C 92.230469 107.734375 107.734375 92.230469 126.863281 92.230469 L 147.234375 92.230469 C 150.609375 92.230469 153.347656 94.96875 153.347656 98.34375 C 153.347656 101.71875 150.609375 104.453125 147.234375 104.453125 L 126.863281 104.453125 C 114.488281 104.453125 104.453125 114.488281 104.453125 126.863281 L 104.453125 147.234375 C 104.453125 150.609375 101.71875 153.347656 98.34375 153.347656 C 94.96875 153.347656 92.230469 150.609375 92.230469 147.234375 Z M 206.3125 98.34375 C 206.3125 94.96875 209.050781 92.230469 212.425781 92.230469 L 232.796875 92.230469 C 251.925781 92.230469 267.429688 107.734375 267.429688 126.863281 L 267.429688 147.234375 C 267.429688 150.609375 264.695312 153.347656 261.320312 153.347656 C 257.945312 153.347656 255.207031 150.609375 255.207031 147.234375 L 255.207031 126.863281 C 255.207031 114.488281 245.175781 104.453125 232.796875 104.453125 L 212.425781 104.453125 C 209.050781 104.453125 206.3125 101.71875 206.3125 98.34375 Z M 98.34375 206.3125 C 101.71875 206.3125 104.453125 209.050781 104.453125 212.425781 L 104.453125 232.796875 C 104.453125 245.175781 114.488281 255.207031 126.863281 255.207031 L 147.234375 255.207031 C 150.609375 255.207031 153.347656 257.945312 153.347656 261.320312 C 153.347656 264.695312 150.609375 267.429688 147.234375 267.429688 L 126.863281 267.429688 C 107.734375 267.429688 92.230469 251.925781 92.230469 232.796875 L 92.230469 212.425781 C 92.230469 209.050781 94.96875 206.3125 98.34375 206.3125 Z M 261.320312 206.3125 C 264.695312 206.3125 267.429688 209.050781 267.429688 212.425781 L 267.429688 228.722656 C 267.429688 232.097656 264.695312 234.835938 261.320312 234.835938 C 257.945312 234.835938 255.207031 232.097656 255.207031 228.722656 L 255.207031 212.425781 C 255.207031 209.050781 257.945312 206.3125 261.320312 206.3125 Z M 206.3125 261.320312 C 206.3125 257.945312 209.050781 255.207031 212.425781 255.207031 L 232.796875 255.207031 C 236.175781 255.207031 238.910156 257.945312 238.910156 261.320312 C 238.910156 264.695312 236.175781 267.429688 232.796875 267.429688 L 212.425781 267.429688 C 209.050781 267.429688 206.3125 264.695312 206.3125 261.320312 Z M 206.3125 261.320312 " fill-opacity="1" fill-rule="evenodd"/><path fill="#ffffff" d="M 112.601562 135.011719 C 112.601562 122.636719 122.632812 112.601562 135.011719 112.601562 L 151.308594 112.601562 C 163.683594 112.601562 173.71875 122.636719 173.71875 135.011719 L 173.71875 151.308594 C 173.71875 163.6875 163.683594 173.71875 151.308594 173.71875 L 135.011719 173.71875 C 122.632812 173.71875 112.601562 163.6875 112.601562 151.308594 Z M 135.011719 124.824219 C 129.386719 124.824219 124.824219 129.386719 124.824219 135.011719 L 124.824219 151.308594 C 124.824219 156.933594 129.386719 161.496094 135.011719 161.496094 L 151.308594 161.496094 C 156.933594 161.496094 161.496094 156.933594 161.496094 151.308594 L 161.496094 135.011719 C 161.496094 129.386719 156.933594 124.824219 151.308594 124.824219 Z M 135.011719 124.824219 " fill-opacity="1" fill-rule="evenodd"/><path fill="#ffffff" d="M 112.601562 208.351562 C 112.601562 195.976562 122.632812 185.941406 135.011719 185.941406 L 151.308594 185.941406 C 163.683594 185.941406 173.71875 195.976562 173.71875 208.351562 L 173.71875 224.648438 C 173.71875 237.027344 163.683594 247.058594 151.308594 247.058594 L 135.011719 247.058594 C 122.632812 247.058594 112.601562 237.027344 112.601562 224.648438 Z M 135.011719 198.164062 C 129.386719 198.164062 124.824219 202.726562 124.824219 208.351562 L 124.824219 224.648438 C 124.824219 230.273438 129.386719 234.835938 135.011719 234.835938 L 151.308594 234.835938 C 156.933594 234.835938 161.496094 230.273438 161.496094 224.648438 L 161.496094 208.351562 C 161.496094 202.726562 156.933594 198.164062 151.308594 198.164062 Z M 135.011719 198.164062 " fill-opacity="1" fill-rule="evenodd"/><path fill="#ffffff" d="M 185.949219 135.011719 C 185.949219 122.636719 195.980469 112.601562 208.355469 112.601562 L 224.65625 112.601562 C 237.03125 112.601562 247.0625 122.636719 247.0625 135.011719 L 247.0625 151.308594 C 247.0625 163.6875 237.03125 173.71875 224.65625 173.71875 L 208.355469 173.71875 C 195.980469 173.71875 185.949219 163.6875 185.949219 151.308594 Z M 208.355469 124.824219 C 202.730469 124.824219 198.171875 129.386719 198.171875 135.011719 L 198.171875 151.308594 C 198.171875 156.933594 202.730469 161.496094 208.355469 161.496094 L 224.65625 161.496094 C 230.28125 161.496094 234.839844 156.933594 234.839844 151.308594 L 234.839844 135.011719 C 234.839844 129.386719 230.28125 124.824219 224.65625 124.824219 Z M 208.355469 124.824219 " fill-opacity="1" fill-rule="evenodd"/><path fill="#ffffff" d="M 185.949219 208.351562 C 185.949219 195.976562 195.980469 185.941406 208.355469 185.941406 L 224.65625 185.941406 C 237.03125 185.941406 247.0625 195.976562 247.0625 208.351562 L 247.0625 224.648438 C 247.0625 237.027344 237.03125 247.058594 224.65625 247.058594 L 208.355469 247.058594 C 195.980469 247.058594 185.949219 237.027344 185.949219 224.648438 Z M 208.355469 198.164062 C 202.730469 198.164062 198.171875 202.726562 198.171875 208.351562 L 198.171875 224.648438 C 198.171875 230.273438 202.730469 234.835938 208.355469 234.835938 L 224.65625 234.835938 C 230.28125 234.835938 234.839844 230.273438 234.839844 224.648438 L 234.839844 208.351562 C 234.839844 202.726562 230.28125 198.164062 224.65625 198.164062 Z M 208.355469 198.164062 " fill-opacity="1" fill-rule="evenodd"/></svg>