<svg xmlns="http://www.w3.org/2000/svg" xmlns:xlink="http://www.w3.org/1999/xlink" width="480" zoomAndPan="magnify" viewBox="0 0 360 359.999987" height="480" preserveAspectRatio="xMidYMid meet" version="1.0"><defs><clipPath id="cb016c1c04"><path d="M 8.324219 8.324219 L 60 8.324219 L 60 60 L 8.324219 60 Z M 8.324219 8.324219 " clip-rule="nonzero"/></clipPath><clipPath id="1cf6be9c78"><path d="M 300 8.324219 L 351.824219 8.324219 L 351.824219 60 L 300 60 Z M 300 8.324219 " clip-rule="nonzero"/></clipPath><clipPath id="919873b45f"><path d="M 300 300 L 351.824219 300 L 351.824219 351.824219 L 300 351.824219 Z M 300 300 " clip-rule="nonzero"/></clipPath><clipPath id="44d9942393"><path d="M 8.324219 300 L 60 300 L 60 351.824219 L 8.324219 351.824219 Z M 8.324219 300 " clip-rule="nonzero"/></clipPath></defs><path fill="#000000" d="M 111.371094 59.847656 L 65.574219 59.847656 C 62.425781 59.847656 59.847656 62.421875 59.847656 65.574219 L 59.847656 111.371094 C 59.847656 114.519531 62.425781 117.097656 65.574219 117.097656 L 111.371094 117.097656 C 114.519531 117.097656 117.097656 114.519531 117.097656 111.371094 L 117.097656 65.574219 C 117.097656 62.421875 114.519531 59.847656 111.371094 59.847656 Z M 105.648438 105.648438 L 71.296875 105.648438 L 71.296875 71.296875 L 105.648438 71.296875 Z M 105.648438 105.648438 " fill-opacity="1" fill-rule="nonzero"/><path fill="#000000" d="M 294.574219 59.847656 L 248.773438 59.847656 C 245.625 59.847656 243.046875 62.421875 243.046875 65.574219 L 243.046875 111.371094 C 243.046875 114.519531 245.625 117.097656 248.773438 117.097656 L 294.574219 117.097656 C 297.722656 117.097656 300.296875 114.519531 300.296875 111.371094 L 300.296875 65.574219 C 300.296875 62.421875 297.722656 59.847656 294.574219 59.847656 Z M 288.847656 105.648438 L 254.496094 105.648438 L 254.496094 71.296875 L 288.847656 71.296875 Z M 288.847656 105.648438 " fill-opacity="1" fill-rule="nonzero"/><path fill="#000000" d="M 111.371094 243.046875 L 65.574219 243.046875 C 62.425781 243.046875 59.847656 245.625 59.847656 248.773438 L 59.847656 294.574219 C 59.847656 297.722656 62.425781 300.296875 65.574219 300.296875 L 111.371094 300.296875 C 114.519531 300.296875 117.097656 297.722656 117.097656 294.574219 L 117.097656 248.773438 C 117.097656 245.625 114.519531 243.046875 111.371094 243.046875 Z M 105.648438 288.847656 L 71.296875 288.847656 L 71.296875 254.496094 L 105.648438 254.496094 Z M 105.648438 288.847656 " fill-opacity="1" fill-rule="nonzero"/><path fill="#000000" d="M 71.296875 157.171875 L 36.949219 157.171875 C 33.800781 157.171875 31.222656 159.75 31.222656 162.898438 L 31.222656 180.074219 L 42.671875 180.074219 L 42.671875 168.621094 L 71.296875 168.621094 Z M 71.296875 157.171875 " fill-opacity="1" fill-rule="nonzero"/><path fill="#000000" d="M 54.121094 191.523438 L 54.121094 202.972656 L 65.574219 202.972656 C 68.722656 202.972656 71.296875 200.394531 71.296875 197.246094 L 71.296875 180.074219 L 59.847656 180.074219 L 59.847656 191.523438 Z M 54.121094 191.523438 " fill-opacity="1" fill-rule="nonzero"/><path fill="#000000" d="M 82.746094 157.171875 L 94.199219 157.171875 L 94.199219 168.621094 L 82.746094 168.621094 Z M 82.746094 157.171875 " fill-opacity="1" fill-rule="nonzero"/><path fill="#000000" d="M 82.746094 191.523438 L 94.199219 191.523438 L 94.199219 202.972656 L 82.746094 202.972656 Z M 82.746094 191.523438 " fill-opacity="1" fill-rule="nonzero"/><path fill="#000000" d="M 174.347656 77.023438 L 185.796875 77.023438 L 185.796875 42.671875 L 202.972656 42.671875 L 202.972656 31.222656 L 157.171875 31.222656 L 157.171875 42.671875 L 174.347656 42.671875 Z M 174.347656 77.023438 " fill-opacity="1" fill-rule="nonzero"/><path fill="#000000" d="M 191.523438 65.574219 L 202.972656 65.574219 L 202.972656 77.023438 L 191.523438 77.023438 Z M 191.523438 65.574219 " fill-opacity="1" fill-rule="nonzero"/><path fill="#000000" d="M 157.171875 65.574219 L 168.621094 65.574219 L 168.621094 77.023438 L 157.171875 77.023438 Z M 157.171875 65.574219 " fill-opacity="1" fill-rule="nonzero"/><path fill="#000000" d="M 31.222656 36.949219 L 31.222656 139.996094 C 31.222656 143.144531 33.800781 145.722656 36.949219 145.722656 L 139.996094 145.722656 C 143.144531 145.722656 145.722656 143.144531 145.722656 139.996094 L 145.722656 36.949219 C 145.722656 33.796875 143.144531 31.222656 139.996094 31.222656 L 36.949219 31.222656 C 33.800781 31.222656 31.222656 33.796875 31.222656 36.949219 Z M 42.671875 42.671875 L 134.273438 42.671875 L 134.273438 134.273438 L 42.671875 134.273438 Z M 42.671875 42.671875 " fill-opacity="1" fill-rule="nonzero"/><path fill="#000000" d="M 220.148438 145.722656 L 323.199219 145.722656 C 326.347656 145.722656 328.921875 143.144531 328.921875 139.996094 L 328.921875 36.949219 C 328.921875 33.796875 326.347656 31.222656 323.199219 31.222656 L 220.148438 31.222656 C 217 31.222656 214.421875 33.796875 214.421875 36.949219 L 214.421875 139.996094 C 214.421875 143.144531 217 145.722656 220.148438 145.722656 Z M 225.871094 42.671875 L 317.472656 42.671875 L 317.472656 134.273438 L 225.871094 134.273438 Z M 225.871094 42.671875 " fill-opacity="1" fill-rule="nonzero"/><path fill="#000000" d="M 31.222656 323.199219 C 31.222656 326.347656 33.800781 328.921875 36.949219 328.921875 L 139.996094 328.921875 C 143.144531 328.921875 145.722656 326.347656 145.722656 323.199219 L 145.722656 220.148438 C 145.722656 217 143.144531 214.421875 139.996094 214.421875 L 36.949219 214.421875 C 33.800781 214.421875 31.222656 217 31.222656 220.148438 Z M 42.671875 225.871094 L 134.273438 225.871094 L 134.273438 317.472656 L 42.671875 317.472656 Z M 42.671875 225.871094 " fill-opacity="1" fill-rule="nonzero"/><path fill="#000000" d="M 220.148438 260.222656 L 254.496094 260.222656 C 257.644531 260.222656 260.222656 257.644531 260.222656 254.496094 L 260.222656 220.148438 C 260.222656 217 257.644531 214.421875 254.496094 214.421875 L 220.148438 214.421875 C 217 214.421875 214.421875 217 214.421875 220.148438 L 214.421875 254.496094 C 214.421875 257.644531 217 260.222656 220.148438 260.222656 Z M 225.871094 225.871094 L 248.773438 225.871094 L 248.773438 248.773438 L 225.871094 248.773438 Z M 225.871094 225.871094 " fill-opacity="1" fill-rule="nonzero"/><path fill="#000000" d="M 288.847656 328.921875 L 323.199219 328.921875 C 326.347656 328.921875 328.921875 326.347656 328.921875 323.199219 L 328.921875 288.847656 C 328.921875 285.699219 326.347656 283.121094 323.199219 283.121094 L 288.847656 283.121094 C 285.699219 283.121094 283.121094 285.699219 283.121094 288.847656 L 283.121094 323.199219 C 283.121094 326.347656 285.699219 328.921875 288.847656 328.921875 Z M 294.574219 294.574219 L 317.472656 294.574219 L 317.472656 317.472656 L 294.574219 317.472656 Z M 294.574219 294.574219 " fill-opacity="1" fill-rule="nonzero"/><path fill="#000000" d="M 225.871094 283.121094 L 260.222656 283.121094 L 260.222656 271.671875 L 220.148438 271.671875 C 217 271.671875 214.421875 274.25 214.421875 277.398438 L 214.421875 328.921875 L 225.871094 328.921875 Z M 225.871094 283.121094 " fill-opacity="1" fill-rule="nonzero"/><path fill="#000000" d="M 237.324219 328.921875 L 265.949219 328.921875 C 269.097656 328.921875 271.671875 326.347656 271.671875 323.199219 L 271.671875 294.574219 L 260.222656 294.574219 L 260.222656 317.472656 L 237.324219 317.472656 Z M 237.324219 328.921875 " fill-opacity="1" fill-rule="nonzero"/><path fill="#000000" d="M 82.746094 185.796875 L 111.371094 185.796875 L 111.371094 202.972656 L 122.824219 202.972656 L 122.824219 180.074219 C 122.824219 176.921875 120.246094 174.347656 117.097656 174.347656 L 82.746094 174.347656 Z M 82.746094 185.796875 " fill-opacity="1" fill-rule="nonzero"/><path fill="#000000" d="M 105.648438 157.171875 L 122.824219 157.171875 L 122.824219 168.621094 L 105.648438 168.621094 Z M 105.648438 157.171875 " fill-opacity="1" fill-rule="nonzero"/><path fill="#000000" d="M 134.273438 157.171875 L 145.722656 157.171875 L 145.722656 180.074219 L 134.273438 180.074219 Z M 134.273438 157.171875 " fill-opacity="1" fill-rule="nonzero"/><path fill="#000000" d="M 134.273438 191.523438 L 145.722656 191.523438 L 145.722656 202.972656 L 134.273438 202.972656 Z M 134.273438 191.523438 " fill-opacity="1" fill-rule="nonzero"/><path fill="#000000" d="M 328.921875 180.074219 L 317.472656 180.074219 L 317.472656 191.523438 L 288.847656 191.523438 L 288.847656 202.972656 L 323.199219 202.972656 C 326.347656 202.972656 328.921875 200.394531 328.921875 197.246094 Z M 328.921875 180.074219 " fill-opacity="1" fill-rule="nonzero"/><path fill="#000000" d="M 306.023438 168.621094 L 306.023438 157.171875 L 294.574219 157.171875 C 291.421875 157.171875 288.847656 159.75 288.847656 162.898438 L 288.847656 180.074219 L 300.296875 180.074219 L 300.296875 168.621094 Z M 306.023438 168.621094 " fill-opacity="1" fill-rule="nonzero"/><path fill="#000000" d="M 265.949219 191.523438 L 277.398438 191.523438 L 277.398438 202.972656 L 265.949219 202.972656 Z M 265.949219 191.523438 " fill-opacity="1" fill-rule="nonzero"/><path fill="#000000" d="M 265.949219 157.171875 L 277.398438 157.171875 L 277.398438 168.621094 L 265.949219 168.621094 Z M 265.949219 157.171875 " fill-opacity="1" fill-rule="nonzero"/><path fill="#000000" d="M 277.398438 174.347656 L 248.773438 174.347656 L 248.773438 157.171875 L 237.324219 157.171875 L 237.324219 180.074219 C 237.324219 183.222656 239.898438 185.796875 243.046875 185.796875 L 277.398438 185.796875 Z M 277.398438 174.347656 " fill-opacity="1" fill-rule="nonzero"/><path fill="#000000" d="M 237.324219 191.523438 L 254.496094 191.523438 L 254.496094 202.972656 L 237.324219 202.972656 Z M 237.324219 191.523438 " fill-opacity="1" fill-rule="nonzero"/><path fill="#000000" d="M 214.421875 180.074219 L 225.871094 180.074219 L 225.871094 202.972656 L 214.421875 202.972656 Z M 214.421875 180.074219 " fill-opacity="1" fill-rule="nonzero"/><path fill="#000000" d="M 214.421875 157.171875 L 225.871094 157.171875 L 225.871094 168.621094 L 214.421875 168.621094 Z M 214.421875 157.171875 " fill-opacity="1" fill-rule="nonzero"/><path fill="#000000" d="M 191.523438 122.824219 L 202.972656 122.824219 L 202.972656 94.199219 C 202.972656 91.046875 200.394531 88.472656 197.246094 88.472656 L 157.171875 88.472656 L 157.171875 99.921875 L 191.523438 99.921875 Z M 191.523438 122.824219 " fill-opacity="1" fill-rule="nonzero"/><path fill="#000000" d="M 157.171875 111.371094 L 180.074219 111.371094 L 180.074219 122.824219 L 157.171875 122.824219 Z M 157.171875 111.371094 " fill-opacity="1" fill-rule="nonzero"/><path fill="#000000" d="M 157.171875 134.273438 L 168.621094 134.273438 L 168.621094 145.722656 L 157.171875 145.722656 Z M 157.171875 134.273438 " fill-opacity="1" fill-rule="nonzero"/><path fill="#000000" d="M 180.074219 134.273438 L 202.972656 134.273438 L 202.972656 145.722656 L 180.074219 145.722656 Z M 180.074219 134.273438 " fill-opacity="1" fill-rule="nonzero"/><path fill="#000000" d="M 202.972656 317.472656 L 185.796875 317.472656 L 185.796875 283.121094 L 174.347656 283.121094 L 174.347656 317.472656 L 157.171875 317.472656 L 157.171875 328.921875 L 202.972656 328.921875 Z M 202.972656 317.472656 " fill-opacity="1" fill-rule="nonzero"/><path fill="#000000" d="M 157.171875 283.121094 L 168.621094 283.121094 L 168.621094 294.574219 L 157.171875 294.574219 Z M 157.171875 283.121094 " fill-opacity="1" fill-rule="nonzero"/><path fill="#000000" d="M 191.523438 283.121094 L 202.972656 283.121094 L 202.972656 294.574219 L 191.523438 294.574219 Z M 191.523438 283.121094 " fill-opacity="1" fill-rule="nonzero"/><path fill="#000000" d="M 162.898438 271.671875 L 202.972656 271.671875 L 202.972656 260.222656 L 168.621094 260.222656 L 168.621094 237.324219 L 157.171875 237.324219 L 157.171875 265.949219 C 157.171875 269.097656 159.75 271.671875 162.898438 271.671875 Z M 162.898438 271.671875 " fill-opacity="1" fill-rule="nonzero"/><path fill="#000000" d="M 180.074219 237.324219 L 202.972656 237.324219 L 202.972656 248.773438 L 180.074219 248.773438 Z M 180.074219 237.324219 " fill-opacity="1" fill-rule="nonzero"/><path fill="#000000" d="M 191.523438 214.421875 L 202.972656 214.421875 L 202.972656 225.871094 L 191.523438 225.871094 Z M 191.523438 214.421875 " fill-opacity="1" fill-rule="nonzero"/><path fill="#000000" d="M 157.171875 214.421875 L 180.074219 214.421875 L 180.074219 225.871094 L 157.171875 225.871094 Z M 157.171875 214.421875 " fill-opacity="1" fill-rule="nonzero"/><path fill="#000000" d="M 31.222656 191.523438 L 42.671875 191.523438 L 42.671875 202.972656 L 31.222656 202.972656 Z M 31.222656 191.523438 " fill-opacity="1" fill-rule="nonzero"/><path fill="#000000" d="M 317.472656 157.171875 L 328.921875 157.171875 L 328.921875 168.621094 L 317.472656 168.621094 Z M 317.472656 157.171875 " fill-opacity="1" fill-rule="nonzero"/><path fill="#000000" d="M 191.523438 180.074219 L 202.972656 180.074219 L 202.972656 162.898438 C 202.972656 159.75 200.394531 157.171875 197.246094 157.171875 L 157.171875 157.171875 L 157.171875 168.621094 L 191.523438 168.621094 Z M 191.523438 180.074219 " fill-opacity="1" fill-rule="nonzero"/><path fill="#000000" d="M 162.898438 202.972656 L 202.972656 202.972656 L 202.972656 191.523438 L 168.621094 191.523438 L 168.621094 180.074219 L 157.171875 180.074219 L 157.171875 197.246094 C 157.171875 200.394531 159.75 202.972656 162.898438 202.972656 Z M 162.898438 202.972656 " fill-opacity="1" fill-rule="nonzero"/><path fill="#000000" d="M 237.324219 294.574219 L 248.773438 294.574219 L 248.773438 306.023438 L 237.324219 306.023438 Z M 237.324219 294.574219 " fill-opacity="1" fill-rule="nonzero"/><path fill="#000000" d="M 328.921875 220.148438 C 328.921875 217 326.347656 214.421875 323.199219 214.421875 L 283.121094 214.421875 L 283.121094 225.871094 L 317.472656 225.871094 L 317.472656 271.671875 L 328.921875 271.671875 Z M 328.921875 220.148438 " fill-opacity="1" fill-rule="nonzero"/><path fill="#000000" d="M 306.023438 260.222656 L 283.121094 260.222656 L 283.121094 237.324219 L 271.671875 237.324219 L 271.671875 265.949219 C 271.671875 269.097656 274.25 271.671875 277.398438 271.671875 L 306.023438 271.671875 Z M 306.023438 260.222656 " fill-opacity="1" fill-rule="nonzero"/><path fill="#000000" d="M 294.574219 237.324219 L 306.023438 237.324219 L 306.023438 248.773438 L 294.574219 248.773438 Z M 294.574219 237.324219 " fill-opacity="1" fill-rule="nonzero"/><g clip-path="url(#cb016c1c04)"><path fill="#000000" d="M 19.773438 19.773438 L 59.847656 19.773438 L 59.847656 8.324219 L 14.046875 8.324219 C 10.898438 8.324219 8.324219 10.898438 8.324219 14.046875 L 8.324219 59.847656 L 19.773438 59.847656 Z M 19.773438 19.773438 " fill-opacity="1" fill-rule="nonzero"/></g><g clip-path="url(#1cf6be9c78)"><path fill="#000000" d="M 346.097656 8.324219 L 300.296875 8.324219 L 300.296875 19.773438 L 340.371094 19.773438 L 340.371094 59.847656 L 351.824219 59.847656 L 351.824219 14.046875 C 351.824219 10.898438 349.246094 8.324219 346.097656 8.324219 Z M 346.097656 8.324219 " fill-opacity="1" fill-rule="nonzero"/></g><g clip-path="url(#919873b45f)"><path fill="#000000" d="M 340.371094 340.371094 L 300.296875 340.371094 L 300.296875 351.824219 L 346.097656 351.824219 C 349.246094 351.824219 351.824219 349.246094 351.824219 346.097656 L 351.824219 300.296875 L 340.371094 300.296875 Z M 340.371094 340.371094 " fill-opacity="1" fill-rule="nonzero"/></g><g clip-path="url(#44d9942393)"><path fill="#000000" d="M 14.046875 351.824219 L 59.847656 351.824219 L 59.847656 340.371094 L 19.773438 340.371094 L 19.773438 300.296875 L 8.324219 300.296875 L 8.324219 346.097656 C 8.324219 349.246094 10.898438 351.824219 14.046875 351.824219 Z M 14.046875 351.824219 " fill-opacity="1" fill-rule="nonzero"/></g></svg>