<svg xmlns="http://www.w3.org/2000/svg" xmlns:xlink="http://www.w3.org/1999/xlink" width="480" zoomAndPan="magnify" viewBox="0 0 360 359.999987" height="480" preserveAspectRatio="xMidYMid meet" version="1.0"><defs><clipPath id="a4dd3710a8"><path d="M 79.707031 9.289062 L 279.957031 9.289062 L 279.957031 350.539062 L 79.707031 350.539062 Z M 79.707031 9.289062 " clip-rule="nonzero"/></clipPath></defs><g clip-path="url(#a4dd3710a8)"><path fill="#ffffff" d="M 180.265625 306.457031 L 205.546875 273.183594 L 203.890625 235.835938 C 203.578125 235.464844 203.269531 235.074219 202.960938 234.632812 C 200.386719 231.46875 198.59375 227.328125 197.617188 222.320312 L 197.589844 222.175781 L 197.574219 222.027344 C 196.804688 215.429688 196.410156 209.617188 196.394531 204.210938 C 194.914062 208.609375 193.738281 213.351562 192.878906 218.417969 C 191.921875 224.050781 187.089844 228.136719 181.382812 228.136719 C 180.730469 228.136719 180.070312 228.082031 179.421875 227.972656 C 173.070312 226.894531 168.785156 220.855469 169.863281 214.507812 C 176.703125 174.265625 198.429688 157.617188 211.992188 151.011719 L 211.992188 59.449219 L 262.339844 26.546875 L 262.339844 341.210938 L 276.738281 350.621094 L 280.3125 345.152344 L 268.871094 337.675781 L 268.871094 22.277344 L 280.3125 14.800781 L 276.738281 9.332031 L 206.433594 55.277344 L 206.785156 55.816406 L 79.707031 55.816406 L 79.707031 314.261719 L 177.121094 314.261719 C 177.453125 311.453125 178.511719 308.769531 180.265625 306.457031 Z M 98.5625 215.660156 L 88.835938 215.660156 L 88.835938 160.324219 L 98.5625 160.324219 Z M 98.5625 215.660156 " fill-opacity="1" fill-rule="nonzero"/></g><path fill="#ffffff" d="M 231.523438 285.625 C 233.242188 283.363281 234.113281 280.570312 233.988281 277.730469 L 233.417969 264.871094 L 207.867188 237.695312 L 209.5 274.414062 L 183.367188 308.8125 C 179.304688 314.15625 180.34375 321.785156 185.691406 325.847656 C 187.890625 327.519531 190.476562 328.324219 193.039062 328.324219 C 196.710938 328.324219 200.339844 326.671875 202.730469 323.523438 Z M 231.523438 285.625 " fill-opacity="1" fill-rule="nonzero"/><path fill="#ffffff" d="M 236.265625 229.136719 C 236.34375 227.683594 236.332031 226.019531 236.21875 224.09375 C 235.585938 219.371094 235.519531 214.425781 235.796875 209.457031 L 232.640625 207.867188 C 230.332031 206.707031 228.582031 204.726562 227.710938 202.292969 L 217.632812 174.128906 C 215.769531 168.925781 218.488281 163.179688 223.691406 161.320312 C 224.78125 160.929688 225.917969 160.730469 227.066406 160.730469 C 231.285156 160.730469 235.078125 163.402344 236.5 167.378906 L 240.5 178.558594 C 240.804688 177.066406 241.097656 175.609375 241.367188 174.226562 C 244.160156 164.546875 240.507812 152.960938 232.207031 150.890625 C 230.058594 150.355469 227.65625 150.261719 225.195312 150.664062 C 224.800781 150.675781 224.40625 150.710938 224.003906 150.785156 C 222.34375 151.097656 183.226562 159.078125 173.699219 215.160156 C 172.980469 219.394531 175.832031 223.414062 180.070312 224.132812 C 180.507812 224.207031 180.949219 224.246094 181.382812 224.246094 C 185.105469 224.246094 188.398438 221.5625 189.042969 217.765625 C 191.644531 202.453125 196.730469 191.609375 202.355469 183.949219 C 199.851562 195.738281 199.6875 206.511719 201.4375 221.578125 C 202.363281 226.328125 203.996094 229.78125 206.070312 232.289062 C 206.417969 232.792969 206.792969 233.285156 207.226562 233.746094 L 241.734375 270.453125 L 251.425781 318.605469 C 252.167969 322.304688 254.523438 325.261719 257.605469 326.917969 L 257.605469 251.832031 Z M 236.265625 229.136719 " fill-opacity="1" fill-rule="nonzero"/><path fill="#ffffff" d="M 234.390625 168.132812 C 232.945312 164.085938 228.492188 161.976562 224.441406 163.425781 C 220.398438 164.875 218.289062 169.328125 219.738281 173.375 L 229.816406 201.539062 C 230.488281 203.421875 231.859375 204.972656 233.644531 205.867188 L 257.605469 217.925781 L 257.605469 200.503906 L 243.421875 193.367188 Z M 234.390625 168.132812 " fill-opacity="1" fill-rule="nonzero"/><path fill="#ffffff" d="M 248.507812 149.5 C 251.757812 149.5 254.835938 148.789062 257.605469 147.519531 L 257.605469 107.707031 C 254.835938 106.441406 251.757812 105.726562 248.507812 105.726562 C 236.421875 105.726562 226.625 115.527344 226.625 127.613281 C 226.625 139.703125 236.421875 149.5 248.507812 149.5 Z M 248.507812 149.5 " fill-opacity="1" fill-rule="nonzero"/></svg>