<svg xmlns="http://www.w3.org/2000/svg" xmlns:xlink="http://www.w3.org/1999/xlink" width="480" zoomAndPan="magnify" viewBox="0 0 360 359.999987" height="480" preserveAspectRatio="xMidYMid meet" version="1.0"><defs><clipPath id="fc344f2600"><path d="M 32 5.683594 L 212 5.683594 L 212 257 L 32 257 Z M 32 5.683594 " clip-rule="nonzero"/></clipPath><clipPath id="9e4492d99f"><path d="M 148 103 L 328 103 L 328 354.433594 L 148 354.433594 Z M 148 103 " clip-rule="nonzero"/></clipPath></defs><g clip-path="url(#fc344f2600)"><path fill="#ffffff" d="M 55.121094 160.484375 C 60.300781 127.535156 78.003906 98.578125 104.96875 78.949219 C 125.011719 64.351562 148.390625 56.21875 172.605469 55.132812 L 156.359375 71.378906 L 171.152344 86.171875 L 211.410156 45.914062 L 171.15625 5.660156 L 156.363281 20.453125 L 170.207031 34.300781 C 142.441406 35.820312 115.667969 45.277344 92.65625 62.035156 C 61.171875 84.953125 40.5 118.765625 34.453125 157.234375 C 29.015625 191.824219 36.195312 227.222656 54.675781 256.90625 L 72.4375 245.847656 C 56.613281 220.425781 50.460938 190.113281 55.121094 160.484375 Z M 55.121094 160.484375 " fill-opacity="1" fill-rule="nonzero"/></g><path fill="#ffffff" d="M 85.546875 263.316406 L 69.96875 277.28125 C 77.941406 286.171875 86.980469 294.0625 96.835938 300.730469 L 108.5625 283.402344 C 100.121094 277.691406 92.378906 270.933594 85.546875 263.316406 Z M 85.546875 263.316406 " fill-opacity="1" fill-rule="nonzero"/><g clip-path="url(#9e4492d99f)"><path fill="#ffffff" d="M 305.242188 103.011719 L 287.480469 114.070312 C 303.304688 139.492188 309.457031 169.808594 304.800781 199.433594 C 299.617188 232.382812 281.914062 261.339844 254.949219 280.972656 C 234.90625 295.566406 211.527344 303.699219 187.3125 304.785156 L 203.5625 288.539062 L 188.765625 273.746094 L 148.507812 314.003906 L 188.765625 354.257812 L 203.558594 339.464844 L 189.714844 325.625 C 217.480469 324.101562 244.253906 314.636719 267.265625 297.886719 C 298.746094 274.964844 319.417969 241.152344 325.46875 202.683594 C 330.90625 168.09375 323.722656 132.699219 305.242188 103.011719 Z M 305.242188 103.011719 " fill-opacity="1" fill-rule="nonzero"/></g><path fill="#ffffff" d="M 274.371094 96.601562 L 289.949219 82.636719 C 281.980469 73.746094 272.941406 65.859375 263.085938 59.1875 L 251.359375 76.515625 C 259.800781 82.226562 267.542969 88.984375 274.371094 96.601562 Z M 274.371094 96.601562 " fill-opacity="1" fill-rule="nonzero"/><path fill="#ffffff" d="M 260.484375 180.160156 C 260.484375 134.867188 223.769531 98.152344 178.476562 98.152344 C 133.183594 98.152344 96.46875 134.867188 96.46875 180.160156 C 96.46875 225.449219 133.183594 262.164062 178.476562 262.164062 C 223.769531 262.164062 260.484375 225.449219 260.484375 180.160156 Z M 137.683594 212.421875 L 148.808594 196.292969 C 155.296875 203.519531 170.132812 208.898438 180.332031 209.082031 C 188.859375 209.269531 196.832031 204.820312 196.832031 198.144531 C 196.832031 191.839844 191.640625 189.242188 178.660156 188.503906 C 161.417969 187.207031 140.835938 180.902344 140.835938 160.136719 C 140.835938 143.382812 154.585938 135.253906 168.597656 132.601562 L 168.597656 119.886719 L 188.355469 119.886719 L 188.355469 132.039062 C 198.402344 133.132812 206.761719 136.40625 215.003906 143.636719 L 202.394531 158.46875 C 195.902344 152.351562 188.488281 150.308594 179.773438 150.308594 C 169.019531 150.308594 163.085938 153.648438 163.085938 159.394531 C 163.085938 165.328125 168.464844 168.664062 180.144531 169.40625 C 197.386719 170.519531 219.265625 174.410156 219.265625 198.699219 C 219.265625 213 208.914062 225.542969 188.355469 228.207031 L 188.355469 240.433594 L 168.597656 240.433594 L 168.597656 228.070312 C 157.984375 226.675781 147.53125 222.679688 137.683594 212.421875 Z M 137.683594 212.421875 " fill-opacity="1" fill-rule="nonzero"/></svg>